<svg width="17" height="13" viewBox="0 0 17 13" fill="none" xmlns="http://www.w3.org/2000/svg">
<mask id="path-1-outside-1_1261_698" maskUnits="userSpaceOnUse" x="0.214233" y="0" width="16" height="13" fill="black">
<rect fill="white" x="0.214233" width="16" height="13"/>
<path fill-rule="evenodd" clip-rule="evenodd" d="M1.21423 2C1.21423 1.44772 1.66195 1 2.21423 1H14.2142C14.7665 1 15.2142 1.44772 15.2142 2V10.5C15.2142 11.0523 14.7665 11.5 14.2142 11.5H2.21423C1.66195 11.5 1.21423 11.0523 1.21423 10.5V2ZM3.83923 1.875H2.08923V3.625L3.83923 1.875ZM14.3392 1.875H12.5892L14.3392 3.625V1.875ZM3.83923 10.625H2.08923V8.875L3.83923 10.625ZM14.3392 10.625H12.5892L14.3392 8.875V10.625Z"/>
</mask>
<path d="M2.08923 1.875V0.875H1.08923V1.875H2.08923ZM3.83923 1.875L4.54634 2.58211L6.25345 0.875H3.83923V1.875ZM2.08923 3.625H1.08923V6.03921L2.79634 4.33211L2.08923 3.625ZM12.5892 1.875V0.875H10.175L11.8821 2.58211L12.5892 1.875ZM14.3392 1.875H15.3392V0.875H14.3392V1.875ZM14.3392 3.625L13.6321 4.33211L15.3392 6.03921V3.625H14.3392ZM2.08923 10.625H1.08923V11.625H2.08923V10.625ZM3.83923 10.625V11.625H6.25345L4.54634 9.91789L3.83923 10.625ZM2.08923 8.875L2.79634 8.16789L1.08923 6.46079V8.875H2.08923ZM12.5892 10.625L11.8821 9.91789L10.175 11.625H12.5892V10.625ZM14.3392 10.625V11.625H15.3392V10.625H14.3392ZM14.3392 8.875H15.3392V6.46079L13.6321 8.16789L14.3392 8.875ZM2.21423 0C1.10966 0 0.214233 0.89543 0.214233 2H2.21423V2V0ZM14.2142 0H2.21423V2H14.2142V0ZM16.2142 2C16.2142 0.89543 15.3188 0 14.2142 0V2H16.2142ZM16.2142 10.5V2H14.2142V10.5H16.2142ZM14.2142 12.5C15.3188 12.5 16.2142 11.6046 16.2142 10.5H14.2142V12.5ZM2.21423 12.5H14.2142V10.5H2.21423V12.5ZM0.214233 10.5C0.214233 11.6046 1.10966 12.5 2.21423 12.5V10.5H2.21423H0.214233ZM0.214233 2V10.5H2.21423V2H0.214233ZM2.08923 2.875H3.83923V0.875H2.08923V2.875ZM3.08923 3.625V1.875H1.08923V3.625H3.08923ZM3.13213 1.16789L1.38213 2.91789L2.79634 4.33211L4.54634 2.58211L3.13213 1.16789ZM12.5892 2.875H14.3392V0.875H12.5892V2.875ZM15.0463 2.91789L13.2963 1.16789L11.8821 2.58211L13.6321 4.33211L15.0463 2.91789ZM13.3392 1.875V3.625H15.3392V1.875H13.3392ZM2.08923 11.625H3.83923V9.625H2.08923V11.625ZM1.08923 8.875V10.625H3.08923V8.875H1.08923ZM4.54634 9.91789L2.79634 8.16789L1.38213 9.58211L3.13213 11.3321L4.54634 9.91789ZM12.5892 11.625H14.3392V9.625H12.5892V11.625ZM13.6321 8.16789L11.8821 9.91789L13.2963 11.3321L15.0463 9.58211L13.6321 8.16789ZM15.3392 10.625V8.875H13.3392V10.625H15.3392Z" fill="#13A199" mask="url(#path-1-outside-1_1261_698)"/>
<g clip-path="url(#clip0_1261_698)">
<mask id="mask0_1261_698" style="mask-type:luminance" maskUnits="userSpaceOnUse" x="5" y="3" width="7" height="7">
<path d="M5 3H12V10H5V3Z" fill="white"/>
</mask>
<g mask="url(#mask0_1261_698)">
<path d="M7.625 5.62501C7.625 5.4703 7.68646 5.32192 7.79585 5.21253C7.90525 5.10313 8.05362 5.04167 8.20833 5.04167V6.20834C8.05362 6.20834 7.90525 6.14688 7.79585 6.03748C7.68646 5.92809 7.625 5.77971 7.625 5.62501ZM9.375 7.37501C9.375 7.52971 9.31354 7.67809 9.20415 7.78748C9.09475 7.89688 8.94638 7.95834 8.79167 7.95834V6.79167C8.94638 6.79167 9.09475 6.85313 9.20415 6.96253C9.31354 7.07192 9.375 7.2203 9.375 7.37501Z" fill="#13A199"/>
<path fill-rule="evenodd" clip-rule="evenodd" d="M12 3H5V10H12V3ZM8.5 3.875C8.57735 3.875 8.65154 3.90573 8.70624 3.96043C8.76094 4.01513 8.79167 4.08931 8.79167 4.16667V4.45833C9.03296 4.45836 9.26832 4.53317 9.46534 4.67248C9.66236 4.81178 9.81136 5.00873 9.89183 5.23621C9.91597 5.30873 9.91067 5.38783 9.87709 5.45648C9.8435 5.52514 9.7843 5.57787 9.71223 5.60333C9.64016 5.62878 9.56098 5.62493 9.49172 5.5926C9.42246 5.56027 9.36866 5.50205 9.3419 5.43046C9.30162 5.31673 9.22708 5.21828 9.12855 5.14865C9.03001 5.07902 8.91232 5.04165 8.79167 5.04167V6.20833C9.10109 6.20833 9.39783 6.33125 9.61662 6.55004C9.83542 6.76883 9.95833 7.06558 9.95833 7.375C9.95833 7.68442 9.83542 7.98116 9.61662 8.19996C9.39783 8.41875 9.10109 8.54167 8.79167 8.54167V8.83333C8.79167 8.91069 8.76094 8.98487 8.70624 9.03957C8.65154 9.09427 8.57735 9.125 8.5 9.125C8.42265 9.125 8.34846 9.09427 8.29376 9.03957C8.23906 8.98487 8.20833 8.91069 8.20833 8.83333V8.54167C7.96704 8.54164 7.73168 8.46683 7.53466 8.32752C7.33764 8.18822 7.18864 7.99127 7.10817 7.76379C7.08403 7.69127 7.08933 7.61217 7.12291 7.54352C7.1565 7.47486 7.2157 7.42213 7.28777 7.39667C7.35984 7.37122 7.43902 7.37507 7.50828 7.4074C7.57754 7.43973 7.63134 7.49795 7.6581 7.56954C7.69838 7.68327 7.77292 7.78172 7.87145 7.85135C7.96999 7.92098 8.08768 7.95835 8.20833 7.95833V6.79167C7.89891 6.79167 7.60217 6.66875 7.38338 6.44996C7.16458 6.23117 7.04167 5.93442 7.04167 5.625C7.04167 5.31558 7.16458 5.01883 7.38338 4.80004C7.60217 4.58125 7.89891 4.45833 8.20833 4.45833V4.16667C8.20833 4.08931 8.23906 4.01513 8.29376 3.96043C8.34846 3.90573 8.42265 3.875 8.5 3.875Z" fill="#13A199"/>
</g>
</g>
<defs>
<clipPath id="clip0_1261_698">
<rect width="7" height="7" fill="white" transform="translate(5 3)"/>
</clipPath>
</defs>
</svg>
