<svg width="188" height="126" viewBox="0 0 188 126" fill="none" xmlns="http://www.w3.org/2000/svg">
<path d="M37.0086 10.1823C37.0086 10.1823 16.8757 -24.6791 -10.354 34.6068C-31.5556 80.7735 -17.8527 132.133 31.1993 146.225C80.2499 160.318 156.861 131.855 132.814 111.797C81.8035 69.2494 43.0897 31.5355 37.0086 10.1823Z" fill="url(#paint0_linear_102_67194)"/>
<g style="mix-blend-mode:multiply" opacity="0.3">
<path d="M11.7444 41.5118C10.3111 45.7347 9.98635 57.7638 10.5915 71.5968C11.1308 83.9378 10.0107 90.3894 29.6444 99.3658C36.3735 102.443 41.0283 112.206 51.3323 118.014C56.0043 120.647 73.6024 130.173 96.3288 126.324C111.366 123.776 122.563 116.4 130.103 109.528C80.4416 67.9118 42.981 31.155 37.0086 10.1823C37.0086 10.1823 29.6515 -2.5463 17.8212 0.467774C20.6908 3.66782 21.6664 12.2838 11.7444 41.5118Z" fill="url(#paint1_linear_102_67194)"/>
</g>
<g style="mix-blend-mode:multiply" opacity="0.3">
<path d="M109.707 132.202C86.5098 145.01 47.766 152.83 18.9027 131.391C-7.82346 111.541 -10.2053 78.2973 -11.0965 68.1522C-12.6543 50.4211 -9.18959 34.983 -4.19427 22.5291C-6.20127 26.0367 -8.25547 30.0406 -10.3526 34.6082C-31.5556 80.7735 -17.8527 132.133 31.1993 146.225C79.4803 160.097 154.465 132.738 133.871 112.747C128.019 119.349 120.122 126.45 109.707 132.2V132.202Z" fill="url(#paint2_linear_102_67194)"/>
</g>
<path style="mix-blend-mode:multiply" opacity="0.3" d="M73.1619 136.005C72.4738 136.005 71.7843 135.998 71.0862 135.982C53.1706 135.582 28.018 129.631 9.93211 103.554C-5.34284 81.5302 -3.29864 56.6738 1.10588 39.6994C5.87233 21.3302 14.3595 7.98076 14.4439 7.84772C14.5398 7.69895 14.7372 7.65747 14.8845 7.75188C15.0333 7.84629 15.0762 8.0437 14.9804 8.19248C14.896 8.32408 6.45741 21.602 1.71814 39.8782C-2.64919 56.7181 -4.67765 81.3714 10.4557 103.191C28.3885 129.047 53.3322 134.948 71.0991 135.344C90.378 135.774 105.579 130.014 105.73 129.956C105.893 129.891 106.079 129.974 106.142 130.139C106.205 130.303 106.124 130.488 105.959 130.551C105.812 130.608 91.5596 136.004 73.1605 136.005H73.1619Z" fill="url(#paint3_linear_102_67194)"/>
<path d="M169.37 132.708C168.091 131.332 165.801 125.407 169.98 124.189C174.181 122.965 176.516 121.416 182.302 116.778C188.087 112.14 189.573 116.123 181.402 123.654C173.231 131.186 171.19 134.665 169.372 132.708H169.37Z" fill="url(#paint4_linear_102_67194)"/>
<path d="M163.896 124.056L167.338 127.062C168.057 127.69 169.103 127.77 169.91 127.261C170.286 127.023 170.526 126.621 170.558 126.178C170.589 125.734 170.409 125.302 170.071 125.012L165.04 120.707L163.896 124.058V124.056Z" fill="url(#paint5_linear_102_67194)"/>
<path d="M60.8179 95.1215C54.7369 100.449 67.4297 117.918 87.7072 112.256C112.279 105.394 143.528 108.478 164.594 125.63C165.816 124.543 168.843 122.838 167.459 121.437C148.429 102.194 130.804 91.1476 116.204 88.1821C94.133 83.7003 78.1328 79.9538 60.8179 95.1215Z" fill="url(#paint6_linear_102_67194)"/>
<g style="mix-blend-mode:multiply" opacity="0.24">
<path d="M132.104 102.439C135.669 104.511 136.429 100.299 138.268 97.5276C130.375 92.6811 122.962 89.554 116.204 88.1821C94.133 83.7003 78.1328 79.9538 60.8179 95.1215C54.7369 100.449 67.4297 117.918 87.7072 112.256C95.0414 110.208 102.972 109.069 111.047 108.903C117.542 104.819 122.856 95.4462 132.104 102.44V102.439Z" fill="#552D63"/>
</g>
<path d="M57.2287 113.319L55.9799 113.795C55.9799 113.795 47.9061 106.172 46.467 104.23C44.7118 101.859 64.4814 95.8153 70.9015 87.9089C77.6478 79.6005 72.3177 97.7722 72.3177 97.7722L57.2273 113.318L57.2287 113.319Z" fill="url(#paint7_linear_102_67194)"/>
<path d="M49.9074 38.5306C49.9074 38.5306 57.0757 39.5134 64.9349 53.4494C70.8443 63.9278 83.6731 72.6082 83.6731 72.6082L84.9906 80.8536L74.3419 82.7247L70.5325 80.217L60.1413 58.11L49.906 38.5321L49.9074 38.5306Z" fill="url(#paint8_linear_102_67194)"/>
<path d="M36.0101 37.6422C36.0101 37.6422 18.3419 39.8209 17.9629 60.1512C17.6124 78.9123 24.3815 86.1807 40.9911 101.825C42.662 103.398 45.3699 103.398 45.5702 103.624C46.6488 104.842 47.7431 106.109 48.8475 107.435C63.7119 93.1702 80.4731 88.3393 80.4731 88.3393C80.4731 88.3393 64.9721 56.2703 58.1601 45.6402C51.1377 34.6796 40.5448 36.5522 36.0087 37.6422H36.0101Z" fill="url(#paint9_linear_102_67194)"/>
<g style="mix-blend-mode:multiply" opacity="0.3">
<path d="M65.3441 85.0019C57.8854 88.993 47.3154 88.541 43.4287 83.6029C40.5019 79.8836 40.027 78.4974 36.4636 72.6581C33.5968 67.9603 32.2007 67.2064 25.9365 63.2511C23.5719 61.7576 20.8897 59.5976 18.259 56.3589C18.093 57.5491 17.9886 58.8079 17.9629 60.1526C17.6124 78.9137 24.3815 86.1835 40.9911 101.826C42.662 103.4 45.3699 103.4 45.5702 103.626C46.6488 104.843 47.7431 106.11 48.8475 107.437C63.7119 93.1715 80.4731 88.3407 80.4731 88.3407C80.4731 88.3407 77.9011 83.2967 74.4936 76.2043C72.0231 80.3442 70.1277 82.4427 65.3441 85.0033V85.0019Z" fill="url(#paint10_linear_102_67194)"/>
</g>
<path d="M53.1616 85.5985C53.1616 85.5985 56.5104 85.753 58.8879 84.7946C61.2654 83.8361 61.0709 83.6173 63.8074 83.2696C66.4682 82.932 71.7095 81.3528 68.7412 78.6534C65.4382 75.6493 59.7777 76.4919 58.1512 78.486C56.5834 80.4086 53.8654 81.6289 53.8654 81.6289L53.1602 85.5985H53.1616Z" fill="white"/>
<path d="M23.2957 47.776C23.2957 47.776 13.4825 48.9189 19.2088 80.5174C22.1785 96.9067 36.8584 94.5993 54.5838 87.8273C55.784 85.3167 54.239 79.9967 54.239 79.9967C54.239 79.9967 32.2164 89.0775 31.6456 75.8296C31.0062 60.9767 29.0192 46.2067 23.2943 47.776H23.2957Z" fill="url(#paint11_linear_102_67194)"/>
<path d="M40.1214 44.3642C35.9214 44.3642 31.6542 41.2542 31.4496 41.1026C31.3795 41.0511 31.3638 40.951 31.4167 40.8794C31.4697 40.8079 31.5698 40.7936 31.6399 40.8465C31.6957 40.888 37.3047 44.9778 41.8451 43.842C43.1025 43.5273 43.9637 42.9122 44.4043 42.0124C45.2426 40.3001 44.2927 38.1043 44.2827 38.0828C44.2469 38.0027 44.2827 37.9083 44.3642 37.8725C44.4458 37.8382 44.5388 37.8739 44.5745 37.9541C44.6174 38.0499 45.593 40.3087 44.6904 42.1526C44.2069 43.1396 43.2756 43.812 41.9224 44.151C41.3316 44.2983 40.7279 44.3627 40.1214 44.3627V44.3642Z" fill="url(#paint12_linear_102_67194)"/>
<path d="M46.3654 102.975C46.3211 102.975 46.2782 102.956 46.2467 102.922C46.1881 102.856 46.1923 102.756 46.2581 102.697C46.4169 102.554 62.2326 88.3966 76.5119 84.9047C76.5992 84.8818 76.6836 84.9362 76.705 85.022C76.7265 85.1078 76.6736 85.1937 76.5877 85.2151C62.3871 88.687 46.6286 102.792 46.4713 102.933C46.4413 102.961 46.4026 102.975 46.364 102.975H46.3654Z" fill="url(#paint13_linear_102_67194)"/>
<path d="M37.519 29.8933C37.519 29.8933 36.1701 36.7969 35.1444 37.8326C34.1187 38.8669 35.6007 41.2987 39.3744 43.3687C43.1481 45.4386 42.2511 37.0258 42.2511 37.0258L37.5205 29.8947L37.519 29.8933Z" fill="white"/>
<path d="M47.631 27.4729L48.0416 27.5172C49.7324 27.6975 50.9069 29.6945 50.6623 31.9775L50.648 32.1063C50.4033 34.3894 48.8355 36.0931 47.1432 35.9129L46.7327 35.8685C45.8801 35.777 45.388 33.8243 45.6369 31.5055C45.8844 29.1866 46.777 27.3813 47.631 27.4729Z" fill="url(#paint14_linear_102_67194)"/>
<path d="M44.6744 31.4025C44.4026 33.9402 45.1722 36.1032 46.4325 36.2376C47.6927 36.3721 48.9673 34.428 49.2391 31.8903C49.5109 29.3526 48.6755 27.184 47.4152 27.0481C46.1549 26.9136 44.9462 28.8648 44.6758 31.4025H44.6744Z" fill="url(#paint15_linear_102_67194)"/>
<path d="M47.4822 27.053L47.0015 27.0016L46.0195 36.1904L46.5002 36.2418L47.4822 27.053Z" fill="url(#paint16_linear_102_67194)"/>
<path d="M44.2253 31.3538C43.9535 33.8915 44.756 36.0573 46.0162 36.1918C47.2765 36.3262 48.5182 34.3793 48.79 31.8416C49.0618 29.3039 48.2593 27.1381 46.999 27.0036C45.7387 26.8692 44.4971 28.8161 44.2253 31.3538Z" fill="url(#paint17_linear_102_67194)"/>
<path style="mix-blend-mode:multiply" opacity="0.6" d="M45.2669 31.4654C45.1195 32.8444 45.5559 34.0232 46.2411 34.0961C46.9263 34.1691 47.6015 33.1105 47.7488 31.7301C47.8962 30.3511 47.4599 29.1723 46.7746 29.0994C46.0894 29.0264 45.4142 30.085 45.2669 31.4654Z" fill="url(#paint18_linear_102_67194)"/>
<path d="M46.716 31.0506C48.3068 30.0178 49.2223 27.5487 48.4813 25.5174C47.8447 23.7707 46.1839 22.9668 45.1925 22.4847C42.3215 21.0914 38.1545 20.9727 35.95 23.1799C34.6454 24.486 35.2048 28.3641 35.2677 29.0464C35.3378 29.8189 35.797 30.2409 36.1231 30.9233C36.5752 31.8703 37.2761 33.3694 38.4077 35.8642C38.731 35.365 39.1687 34.7599 39.7495 34.1419C39.9726 33.9044 40.861 32.9789 41.9467 32.338C44.1268 31.0492 45.2111 32.0291 46.7175 31.0506H46.716Z" fill="url(#paint19_linear_102_67194)"/>
<path d="M36.4249 33.3951C36.4249 33.3951 37.3204 37.2217 41.2972 38.3819C44.8692 39.4233 47.9762 31.9718 46.2854 29.5485C45.7217 28.7403 44.3041 27.9835 42.978 27.882C42.1955 27.8219 41.8551 28.025 40.5791 27.902C39.4032 27.789 39.1371 27.563 38.7194 27.7146C38.1973 27.9048 37.6208 28.6187 37.5493 31.0891C37.1072 30.1951 36.3948 29.6572 35.744 29.7159C35.6395 29.7259 35.3477 29.7988 35.1331 29.9905C34.3535 30.6843 34.7927 32.0862 36.4263 33.3966L36.4249 33.3951Z" fill="white"/>
<path d="M38.7165 27.2025C38.8438 27.3842 38.1228 27.8119 37.7923 28.6645C37.15 30.3167 38.2115 32.956 39.9324 33.7671C40.9509 34.2463 41.4501 33.7328 43.254 34.1791C44.3727 34.4566 45.2267 34.9129 45.7531 35.2377C45.6759 37.2804 44.5343 38.9341 42.9779 39.3289C41.3042 39.7538 39.7536 38.5679 39.1055 38.0729C38.6721 37.7425 37.2845 36.6853 36.9426 35.0031C36.5864 33.2507 37.7122 32.6756 37.0728 31.3467C36.7495 30.6772 36.1802 30.2323 35.8769 29.0507C35.7954 28.7303 35.7596 28.4599 35.7424 28.2797C36.9526 27.6731 38.5348 26.9393 38.7179 27.2025H38.7165Z" fill="url(#paint20_linear_102_67194)"/>
<path d="M44.2482 35.4637C44.2482 35.4637 43.3627 35.5753 42.0824 35.0345C42.0209 35.0088 41.9437 35.0016 41.9251 35.0302C41.855 35.1404 42.5073 35.9801 43.3513 36.0473C43.9507 36.0945 44.5472 35.7441 44.5172 35.5881C44.5043 35.5223 44.3784 35.4851 44.2482 35.4623V35.4637Z" fill="white"/>
<path d="M37.09 27.7647L36.5679 27.7032L36.7524 26.0896C37.07 23.3072 39.2472 21.2344 41.7062 21.3717L44.3398 21.5177C45.7174 21.5935 46.9562 22.2873 47.8317 23.4703C48.7071 24.6533 49.0977 26.1625 48.9317 27.7218L48.7944 29.0121L48.2723 28.9563L48.4096 27.666C48.5584 26.2712 48.2093 24.9208 47.4254 23.8623C46.6415 22.8037 45.5314 22.1828 44.2998 22.1142L41.6662 21.9683C39.4847 21.8467 37.5564 23.6849 37.2745 26.1511L37.09 27.7647Z" fill="url(#paint21_linear_102_67194)"/>
<path d="M47.7301 24.8407C47.517 24.8179 47.3167 24.6977 47.1823 24.4888C46.4985 23.4231 45.4327 22.7751 44.2612 22.7093L41.6276 22.5634C40.7078 22.5119 39.8066 22.8595 39.0913 23.5404C38.7523 23.8623 38.2559 23.8194 37.9812 23.4446C37.7066 23.0698 37.7566 22.5047 38.0957 22.1829C39.1256 21.2015 40.4231 20.7009 41.7478 20.7752L44.3813 20.9212C46.0235 21.0127 47.5127 21.9197 48.4683 23.4102C48.7215 23.8051 48.6385 24.3658 48.2837 24.6648C48.1164 24.805 47.919 24.8622 47.7301 24.8422V24.8407Z" fill="url(#paint22_linear_102_67194)"/>
<path style="mix-blend-mode:multiply" opacity="0.3" d="M46.8188 22.911C44.9606 22.0684 45.0121 21.4805 44.0108 21.3288C42.1368 21.0442 41.1612 22.9754 39.3559 22.5147C38.9325 22.406 38.5863 22.1986 38.3159 21.984C38.2401 22.0484 38.1657 22.1156 38.0927 22.1843C37.7537 22.5061 37.7036 23.0712 37.9783 23.446C38.253 23.8208 38.7508 23.8637 39.0884 23.5418C39.8036 22.8609 40.7049 22.5133 41.6247 22.5648L44.2582 22.7107C45.4312 22.7765 46.4955 23.4245 47.1793 24.4903C47.3138 24.6991 47.5141 24.8193 47.7272 24.8422C47.916 24.8622 48.1134 24.805 48.2808 24.6648C48.6027 24.3944 48.7 23.908 48.5269 23.5261C48.0248 23.3902 47.4425 23.1956 46.816 22.9124L46.8188 22.911Z" fill="url(#paint23_linear_102_67194)"/>
<path d="M38.9541 30.7143C38.6795 33.2792 37.4249 35.249 36.1504 35.1131C34.8758 34.9772 34.0647 32.7871 34.3393 30.2222C34.614 27.6573 35.8685 25.6875 37.1431 25.8234C38.4177 25.9593 39.2288 28.1494 38.9541 30.7143Z" fill="url(#paint24_linear_102_67194)"/>
<path d="M38.5002 30.6647C38.7744 28.0991 37.9637 25.9088 36.6895 25.7726C35.4153 25.6364 34.1601 27.6059 33.8859 30.1716C33.6117 32.7373 34.4223 34.9276 35.6965 35.0638C36.9707 35.1999 38.226 33.2304 38.5002 30.6647Z" fill="url(#paint25_linear_102_67194)"/>
<path d="M36.1174 26.118L35.7025 26.0737C33.9931 25.8906 32.4066 27.6144 32.1592 29.9218L32.1449 30.0519C31.8988 32.3593 33.0847 34.3792 34.7942 34.5623L35.209 34.6067C36.0716 34.6982 36.9742 32.8743 37.2246 30.5297C37.4749 28.1866 36.9785 26.211 36.1159 26.1195L36.1174 26.118Z" fill="url(#paint26_linear_102_67194)"/>
<path d="M35.2104 30.2479C35.0302 31.9402 34.2005 33.2377 33.3579 33.1476C32.5153 33.0574 31.9789 31.6126 32.1591 29.9218C32.3394 28.2295 33.1691 26.932 34.0116 27.0221C34.8542 27.1122 35.3906 28.5571 35.2104 30.2479Z" fill="url(#paint27_linear_102_67194)"/>
<path d="M55.5152 89.8457C55.3535 89.8686 55.2062 89.9859 55.1647 90.139C55.159 90.1618 55.2219 90.9629 55.219 90.9858C55.2033 91.1718 55.3177 91.3449 55.4951 91.4021L70.5183 96.2816L98.5948 85.2867L85.2554 86.3066L55.5137 89.8443L55.5152 89.8457Z" fill="#26264F"/>
<path d="M55.5081 89.737C55.3236 89.7642 55.1805 89.9144 55.1648 90.1004C55.149 90.2863 55.2635 90.4594 55.4409 90.5167L70.4655 95.3961L98.542 84.4012L85.2011 85.4212L55.5067 89.737H55.5081Z" fill="#444B8C"/>
<path d="M69.8018 95.1787L72.0391 65.8905C72.0748 65.4213 72.4296 65.0379 72.8945 64.9649L106.517 59.7021C106.818 59.6549 107.125 59.745 107.351 59.9496C107.579 60.1527 107.702 60.4474 107.687 60.7521L106.426 88.0504C106.404 88.5211 106.061 88.9159 105.597 89.0017L70.6672 95.4691L69.8018 95.1801V95.1787Z" fill="url(#paint28_linear_102_67194)"/>
<path d="M70.5195 96.283L72.8284 66.3496C72.8641 65.8804 73.2189 65.4985 73.6838 65.4255L107.308 60.1627C107.608 60.1155 107.916 60.2056 108.142 60.4102C108.369 60.6133 108.492 60.908 108.478 61.2127L107.216 88.5153C107.195 88.9845 106.853 89.3779 106.392 89.4652L70.521 96.2844L70.5195 96.283Z" fill="#26264F"/>
<path d="M70.5195 96.2816L106.391 89.4624C106.853 89.3751 107.193 88.9817 107.215 88.5125L107.595 80.2785C96.9095 86.3467 83.5185 87.1192 71.0388 89.5525L70.5195 96.2816Z" fill="#1F1F44"/>
<path d="M131.275 90.1463C130.784 88.444 129.701 86.5614 133.569 85.1896C136.377 84.1925 141.255 83.8721 145.69 83.6446C151.903 83.3256 153.332 87.0435 144.252 89.4081C138.306 90.9574 131.973 92.5681 131.275 90.1463Z" fill="url(#paint29_linear_102_67194)"/>
<path d="M136.117 87.5399C136.176 88.4926 135.569 89.2408 134.777 89.3538C132.938 89.617 133.283 88.67 133.224 87.7173C133.166 86.7646 132.423 86.1023 134.565 85.9034C135.362 85.829 136.058 86.5872 136.117 87.5399Z" fill="url(#paint30_linear_102_67194)"/>
<path d="M117.251 82.0597L119.067 81.7736C119.067 81.7736 122.602 82.104 132.345 84.7905C134.43 85.1367 137.274 91.2235 131.163 91.4624C125.052 91.7013 117.613 96.2517 117.613 96.2517L117.251 82.0597Z" fill="url(#paint31_linear_102_67194)"/>
<path d="M53.8001 110.382C53.8001 110.382 54.6898 118.281 73.0575 117.562C91.4252 116.844 124.238 97.7751 124.031 87.7701C123.825 77.7652 111.614 81.762 98.9711 87.5455C88.301 92.4264 71.8173 95.2545 68.4399 95.7781C64.1154 96.449 52.7544 106.587 53.8001 110.382Z" fill="url(#paint32_linear_102_67194)"/>
<g style="mix-blend-mode:multiply" opacity="0.2">
<path d="M77.8339 100.483C86.3354 99.6177 88.2451 93.5151 98.8251 91.7513C105.682 90.6083 108.102 92.6325 111.597 90.2922C114.356 88.444 115.764 85.2225 116.442 81.7234C111.753 82.1211 105.425 84.593 98.9739 87.5456C88.6099 92.2863 72.7627 95.0901 68.7659 95.7281C68.6472 95.7467 65.9678 94.7883 65.9678 94.7883C65.9678 94.7883 63.9737 95.9284 62.5432 96.8282C68.1165 99.8151 74.7311 100.799 77.8353 100.483H77.8339Z" fill="url(#paint33_linear_102_67194)"/>
</g>
<defs>
<linearGradient id="paint0_linear_102_67194" x1="18.4692" y1="20.5335" x2="77.4531" y2="89.8394" gradientUnits="userSpaceOnUse">
<stop stop-color="#3940BE"/>
<stop offset="1" stop-color="#0098EA"/>
</linearGradient>
<linearGradient id="paint1_linear_102_67194" x1="73.3621" y1="58.5306" x2="62.32" y2="123.463" gradientUnits="userSpaceOnUse">
<stop stop-color="#E7A510"/>
<stop offset="1" stop-color="#E7A510"/>
</linearGradient>
<linearGradient id="paint2_linear_102_67194" x1="18.4692" y1="20.5335" x2="137.969" y2="275.812" gradientUnits="userSpaceOnUse">
<stop stop-color="#DB8412"/>
<stop offset="1" stop-color="#FED253"/>
</linearGradient>
<linearGradient id="paint3_linear_102_67194" x1="-2.08987" y1="71.8543" x2="106.165" y2="71.8543" gradientUnits="userSpaceOnUse">
<stop stop-color="#AA80F9"/>
<stop offset="1" stop-color="#6165D7"/>
</linearGradient>
<linearGradient id="paint4_linear_102_67194" x1="168.47" y1="131.937" x2="184.77" y2="113.22" gradientUnits="userSpaceOnUse">
<stop stop-color="#40447E"/>
<stop offset="1" stop-color="#3C3B6B"/>
</linearGradient>
<linearGradient id="paint5_linear_102_67194" x1="125.118" y1="71.513" x2="303.597" y2="297.351" gradientUnits="userSpaceOnUse">
<stop stop-color="#FFC444"/>
<stop offset="1" stop-color="#F36F56"/>
</linearGradient>
<linearGradient id="paint6_linear_102_67194" x1="54.5296" y1="81.4719" x2="181" y2="139.041" gradientUnits="userSpaceOnUse">
<stop stop-color="#311944"/>
<stop offset="1" stop-color="#6B3976"/>
</linearGradient>
<linearGradient id="paint7_linear_102_67194" x1="9.93166" y1="113.454" x2="119.74" y2="86.0252" gradientUnits="userSpaceOnUse">
<stop stop-color="#311944"/>
<stop offset="1" stop-color="#893976"/>
</linearGradient>
<linearGradient id="paint8_linear_102_67194" x1="70.4066" y1="49.8331" x2="58.5763" y2="89.2664" gradientUnits="userSpaceOnUse">
<stop stop-color="#FFC444"/>
<stop offset="1" stop-color="#F36F56"/>
</linearGradient>
<linearGradient id="paint9_linear_102_67194" x1="47.8637" y1="79.3126" x2="9.4248" y2="262.021" gradientUnits="userSpaceOnUse">
<stop stop-color="#FFC444"/>
<stop offset="1" stop-color="#F36F56"/>
</linearGradient>
<linearGradient id="paint10_linear_102_67194" x1="55.7345" y1="99.0619" x2="40.6926" y2="52.3273" gradientUnits="userSpaceOnUse">
<stop stop-color="#FFC444"/>
<stop offset="1" stop-color="#F36F56"/>
</linearGradient>
<linearGradient id="paint11_linear_102_67194" x1="35.3588" y1="76.6823" x2="-3.07864" y2="259.39" gradientUnits="userSpaceOnUse">
<stop stop-color="#FFC444"/>
<stop offset="1" stop-color="#F36F56"/>
</linearGradient>
<linearGradient id="paint12_linear_102_67194" x1="31.3853" y1="41.1126" x2="45.0709" y2="41.1126" gradientUnits="userSpaceOnUse">
<stop stop-color="#FFC444"/>
<stop offset="1" stop-color="#F36F56"/>
</linearGradient>
<linearGradient id="paint13_linear_102_67194" x1="46.2052" y1="93.9384" x2="76.7093" y2="93.9384" gradientUnits="userSpaceOnUse">
<stop stop-color="#FFC444"/>
<stop offset="1" stop-color="#F36F56"/>
</linearGradient>
<linearGradient id="paint14_linear_102_67194" x1="49.9189" y1="29.3853" x2="47.5766" y2="32.0655" gradientUnits="userSpaceOnUse">
<stop stop-color="#FFC444"/>
<stop offset="1" stop-color="#F36F56"/>
</linearGradient>
<linearGradient id="paint15_linear_102_67194" x1="45.7317" y1="33.5804" x2="50.532" y2="25.9118" gradientUnits="userSpaceOnUse">
<stop stop-color="#FFC444"/>
<stop offset="1" stop-color="#F36F56"/>
</linearGradient>
<linearGradient id="paint16_linear_102_67194" x1="48.9624" y1="30.5546" x2="49.6741" y2="30.2092" gradientUnits="userSpaceOnUse">
<stop stop-color="#FFC444"/>
<stop offset="1" stop-color="#F36F56"/>
</linearGradient>
<linearGradient id="paint17_linear_102_67194" x1="49.8021" y1="28.4477" x2="47.5008" y2="30.6504" gradientUnits="userSpaceOnUse">
<stop stop-color="#FFC444"/>
<stop offset="1" stop-color="#F36F56"/>
</linearGradient>
<linearGradient id="paint18_linear_102_67194" x1="45.2737" y1="31.4612" x2="47.7543" y2="31.7263" gradientUnits="userSpaceOnUse">
<stop stop-color="#FFC444"/>
<stop offset="1" stop-color="#F36F56"/>
</linearGradient>
<linearGradient id="paint19_linear_102_67194" x1="1783.94" y1="604.922" x2="1783.78" y2="604.869" gradientUnits="userSpaceOnUse">
<stop stop-color="#311944"/>
<stop offset="1" stop-color="#A03976"/>
</linearGradient>
<linearGradient id="paint20_linear_102_67194" x1="1782.52" y1="609.147" x2="1782.36" y2="609.095" gradientUnits="userSpaceOnUse">
<stop stop-color="#311944"/>
<stop offset="1" stop-color="#A03976"/>
</linearGradient>
<linearGradient id="paint21_linear_102_67194" x1="41.3803" y1="30.3859" x2="46.622" y2="22.4122" gradientUnits="userSpaceOnUse">
<stop stop-color="#FFC444"/>
<stop offset="1" stop-color="#F36F56"/>
</linearGradient>
<linearGradient id="paint22_linear_102_67194" x1="45.22" y1="19.9101" x2="43.9552" y2="22.7805" gradientUnits="userSpaceOnUse">
<stop stop-color="#FFC444"/>
<stop offset="1" stop-color="#F36F56"/>
</linearGradient>
<linearGradient id="paint23_linear_102_67194" x1="45.2259" y1="19.8965" x2="43.9586" y2="22.7745" gradientUnits="userSpaceOnUse">
<stop stop-color="#FFC444"/>
<stop offset="1" stop-color="#F36F56"/>
</linearGradient>
<linearGradient id="paint24_linear_102_67194" x1="34.3449" y1="30.2168" x2="38.9592" y2="30.71" gradientUnits="userSpaceOnUse">
<stop stop-color="#FFC444"/>
<stop offset="1" stop-color="#F36F56"/>
</linearGradient>
<linearGradient id="paint25_linear_102_67194" x1="34.7034" y1="31.0833" x2="30.7692" y2="32.8424" gradientUnits="userSpaceOnUse">
<stop stop-color="#FFC444"/>
<stop offset="1" stop-color="#F36F56"/>
</linearGradient>
<linearGradient id="paint26_linear_102_67194" x1="32.1572" y1="29.983" x2="37.2309" y2="30.5252" gradientUnits="userSpaceOnUse">
<stop stop-color="#FFC444"/>
<stop offset="1" stop-color="#F36F56"/>
</linearGradient>
<linearGradient id="paint27_linear_102_67194" x1="32.1641" y1="29.9176" x2="35.2152" y2="30.2436" gradientUnits="userSpaceOnUse">
<stop stop-color="#FFC444"/>
<stop offset="1" stop-color="#F36F56"/>
</linearGradient>
<linearGradient id="paint28_linear_102_67194" x1="68.7957" y1="78.8006" x2="108.648" y2="76.3632" gradientUnits="userSpaceOnUse">
<stop stop-color="#40447E"/>
<stop offset="1" stop-color="#3C3B6B"/>
</linearGradient>
<linearGradient id="paint29_linear_102_67194" x1="131.399" y1="90.4772" x2="149.769" y2="83.0066" gradientUnits="userSpaceOnUse">
<stop stop-color="#40447E"/>
<stop offset="1" stop-color="#3C3B6B"/>
</linearGradient>
<linearGradient id="paint30_linear_102_67194" x1="127.607" y1="81.3965" x2="339.636" y2="276.1" gradientUnits="userSpaceOnUse">
<stop stop-color="#FFC444"/>
<stop offset="1" stop-color="#F36F56"/>
</linearGradient>
<linearGradient id="paint31_linear_102_67194" x1="45.7409" y1="100.606" x2="136.508" y2="86.1205" gradientUnits="userSpaceOnUse">
<stop stop-color="#311944"/>
<stop offset="1" stop-color="#6B3976"/>
</linearGradient>
<linearGradient id="paint32_linear_102_67194" x1="11.7273" y1="120.642" x2="121.537" y2="93.2116" gradientUnits="userSpaceOnUse">
<stop stop-color="#311944"/>
<stop offset="1" stop-color="#893976"/>
</linearGradient>
<linearGradient id="paint33_linear_102_67194" x1="50.4587" y1="103.743" x2="116.779" y2="85.2705" gradientUnits="userSpaceOnUse">
<stop stop-color="#311944"/>
<stop offset="1" stop-color="#6B3976"/>
</linearGradient>
</defs>
</svg>
