<svg width="16" height="16" viewBox="0 0 16 16" fill="none" xmlns="http://www.w3.org/2000/svg">
<path d="M14.0577 14.8027H1.9423C1.79941 14.7706 1.65788 14.7367 1.54153 14.6385C1.37768 14.5 1.31076 14.3171 1.28845 14.1114V14.0537C1.29594 14.0364 1.30148 14.0183 1.30499 13.9998C1.33871 13.6048 1.37166 13.2098 1.40384 12.8146C1.46268 12.086 1.78845 11.509 2.42307 11.1427C2.83134 10.9069 3.27172 10.7267 3.69768 10.5214C3.73076 10.5054 3.76326 10.4881 3.80018 10.4692C3.78095 10.4308 3.76864 10.4021 3.75499 10.3731C3.56422 9.97949 3.37339 9.5859 3.18249 9.19231C3.04268 8.90385 2.9423 8.60135 2.90672 8.28155C2.84653 7.7477 2.93961 7.23905 3.1748 6.75539C3.75172 5.56962 4.30941 4.37501 4.90557 3.19885C5.52672 1.97251 6.56114 1.35597 7.9248 1.29174C8.38537 1.27001 8.83537 1.35693 9.26711 1.52635C10.1325 1.86578 10.7446 2.47328 11.1473 3.29943C11.6958 4.42462 12.2388 5.55212 12.7861 6.6777C12.9592 7.03424 13.08 7.4027 13.1025 7.8027C13.1242 8.18885 13.0821 8.56616 12.9283 8.91808C12.724 9.38597 12.4938 9.84231 12.2744 10.3039C12.2488 10.3577 12.2246 10.4123 12.1975 10.47C12.236 10.4892 12.2673 10.5058 12.2988 10.5208C12.6913 10.7073 13.0902 10.8815 13.475 11.0827C14.0629 11.3904 14.4344 11.8781 14.55 12.5308C14.6188 12.9196 14.6311 13.3192 14.6698 13.7127C14.681 13.8264 14.6958 13.9396 14.7083 14.0531V14.0915C14.7038 14.1196 14.6988 14.1475 14.695 14.1758C14.6565 14.4727 14.5 14.6729 14.2106 14.7631C14.1627 14.7796 14.1098 14.7898 14.0577 14.8027Z" fill="url(#paint0_linear_5_19158)"/>
<path d="M8.30195 11.4038C8.52599 11.355 8.7358 11.3248 8.93657 11.2629C9.69157 11.0294 10.2904 10.5827 10.7237 9.92C11.0179 9.47019 11.2023 8.97539 11.2262 8.44115C11.255 7.78962 11.2477 7.13615 11.2427 6.48365C11.2389 5.96212 10.8641 5.60288 10.3441 5.60269C8.77997 5.60269 7.21631 5.60269 5.65311 5.60269C5.59872 5.60101 5.5443 5.60397 5.49042 5.61154C5.05042 5.68712 4.75965 6.03673 4.75715 6.49615C4.75445 7.04013 4.75445 7.5841 4.75715 8.12808C4.76022 8.73058 4.89926 9.29885 5.21445 9.81654C5.71445 10.6388 6.44388 11.1435 7.38426 11.3431C7.48503 11.3646 7.58868 11.3719 7.69888 11.3869C7.69888 11.1506 7.69888 10.9302 7.69888 10.7098C7.69718 10.6524 7.70072 10.5949 7.70945 10.5381C7.71762 10.4941 7.73577 10.4525 7.76253 10.4166C7.78928 10.3807 7.82392 10.3514 7.86377 10.331C7.90362 10.3106 7.94762 10.2997 7.99238 10.299C8.03714 10.2982 8.08147 10.3078 8.12195 10.3269C8.25657 10.3873 8.30176 10.5 8.30195 10.6385V11.4038Z" fill="#69CAFF"/>
<path fill-rule="evenodd" clip-rule="evenodd" d="M9.19111 7.77877C9.24418 7.77918 9.29726 7.7796 9.35034 7.7796C9.39201 7.77965 9.43367 7.77984 9.47533 7.78004C9.60342 7.78065 9.73139 7.78126 9.8588 7.77748C9.91905 7.77827 9.9788 7.76641 10.0342 7.74268C10.0915 7.71292 10.1374 7.66511 10.1648 7.60664C10.1922 7.54816 10.1995 7.48229 10.1857 7.41921C10.1698 7.35171 10.1317 7.2915 10.0776 7.24823C10.0234 7.20496 9.95622 7.18113 9.88688 7.18056C9.65406 7.17966 9.42124 7.17996 9.18842 7.18026C9.07201 7.18041 8.9556 7.18056 8.83919 7.18056C8.65438 7.18114 8.5188 7.30537 8.51226 7.47306C8.51131 7.51468 8.519 7.55605 8.53484 7.59455C8.55067 7.63305 8.57432 7.66785 8.60427 7.69676C8.63423 7.72567 8.66985 7.74806 8.70889 7.76252C8.74793 7.77697 8.78955 7.78318 8.83111 7.78075C8.95111 7.77689 9.07111 7.77783 9.19111 7.77877ZM6.64937 7.77959C6.59167 7.77959 6.53398 7.77983 6.47629 7.78006C6.3609 7.78053 6.24552 7.781 6.13013 7.77959C5.93283 7.77671 5.80552 7.65517 5.80802 7.47748C5.81052 7.30613 5.94937 7.18132 6.14033 7.18094L6.48648 7.18068C6.71725 7.18043 6.94802 7.18017 7.17879 7.18094C7.24331 7.18024 7.30641 7.19985 7.35918 7.23698C7.41194 7.27412 7.4517 7.3269 7.47283 7.38786C7.51283 7.5044 7.47937 7.64228 7.37206 7.71286C7.30751 7.75187 7.23414 7.7739 7.15879 7.7769C7.03697 7.78339 6.91495 7.78205 6.79295 7.7807C6.74508 7.78017 6.69722 7.77965 6.64937 7.77959ZM6.18435 9.53001C6.35737 9.65912 6.56716 9.72946 6.78303 9.73075C7.2163 9.73075 7.62015 9.43248 7.74303 9.02306C7.79746 8.84171 7.69361 8.67133 7.5063 8.63479C7.36496 8.60729 7.23342 8.68979 7.17265 8.84363C7.08899 9.05633 6.9113 9.16325 6.69707 9.11863C6.53688 9.08537 6.44073 8.97844 6.38457 8.82556C6.37214 8.78914 6.35262 8.75555 6.32714 8.72672C6.30165 8.6979 6.2707 8.67441 6.23608 8.65762C6.20146 8.64083 6.16385 8.63107 6.12544 8.6289C6.08702 8.62673 6.04856 8.63219 6.01226 8.64498C5.93849 8.66904 5.87714 8.72114 5.84145 8.79004C5.80575 8.85894 5.79859 8.93911 5.82149 9.01325C5.88418 9.21982 6.01134 9.40091 6.18435 9.53001ZM8.62337 9.53368C8.79458 9.65964 9.00106 9.72859 9.21361 9.73076C9.6538 9.73365 10.0625 9.42749 10.1798 9.00711C10.1985 8.94207 10.1942 8.87254 10.1675 8.81034C10.1407 8.74815 10.0933 8.69713 10.0332 8.66595C9.86418 8.57807 9.67765 8.65134 9.60803 8.84038C9.55245 8.99134 9.45168 9.08942 9.29572 9.11942C9.08015 9.16076 8.91341 9.05672 8.82495 8.83711C8.75745 8.66865 8.59668 8.59019 8.44034 8.64749C8.28399 8.7048 8.20745 8.86653 8.25957 9.02884C8.3249 9.23111 8.45217 9.40771 8.62337 9.53368Z" fill="url(#paint1_linear_5_19158)"/>
<defs>
<linearGradient id="paint0_linear_5_19158" x1="1.28845" y1="8.04555" x2="14.7083" y2="8.04555" gradientUnits="userSpaceOnUse">
<stop stop-color="white"/>
<stop offset="1" stop-color="#F3F3F6"/>
</linearGradient>
<linearGradient id="paint1_linear_5_19158" x1="5.80798" y1="8.45537" x2="10.1925" y2="8.45537" gradientUnits="userSpaceOnUse">
<stop stop-color="white"/>
<stop offset="1" stop-color="#F3F3F6"/>
</linearGradient>
</defs>
</svg>
