<svg width="32" height="32" viewBox="0 0 32 32" fill="none" xmlns="http://www.w3.org/2000/svg">
<g clip-path="url(#clip0_106_81259)">
<path fill-rule="evenodd" clip-rule="evenodd" d="M9.33339 12.6667C9.33368 10.4099 10.0973 8.21957 11.5002 6.45178C12.9031 4.68399 14.8627 3.4427 17.0604 2.92973C19.2581 2.41676 21.5647 2.66227 23.6053 3.62634C25.6458 4.59042 27.3002 6.21637 28.2995 8.23985C29.2989 10.2633 29.5844 12.5653 29.1096 14.7716C28.6349 16.9779 27.4278 18.9588 25.6846 20.3921C23.9414 21.8255 21.7646 22.627 19.5082 22.6665C17.2517 22.7059 15.0483 21.9809 13.2561 20.6094L10.8721 22.9921L12.7734 24.8934C12.9007 25.0164 13.0023 25.1635 13.0722 25.3262C13.1421 25.4889 13.1789 25.6638 13.1804 25.8409C13.1819 26.0179 13.1482 26.1935 13.0812 26.3573C13.0141 26.5212 12.9151 26.6701 12.7899 26.7952C12.6647 26.9204 12.5159 27.0194 12.352 27.0865C12.1881 27.1535 12.0126 27.1873 11.8355 27.1857C11.6585 27.1842 11.4835 27.1474 11.3209 27.0775C11.1582 27.0076 11.0111 26.9061 10.8881 26.7787L8.98673 24.8787L6.16006 27.7054C5.90987 27.9554 5.57061 28.0958 5.21692 28.0957C4.86323 28.0955 4.52407 27.9549 4.27406 27.7047C4.02405 27.4545 3.88366 27.1153 3.88379 26.7616C3.88391 26.4079 4.02454 26.0687 4.27473 25.8187L7.10139 22.9921L5.23073 21.1214C5.10338 20.9984 5.0018 20.8513 4.93192 20.6886C4.86205 20.5259 4.82526 20.351 4.82373 20.1739C4.82219 19.9969 4.85592 19.8213 4.92296 19.6575C4.99 19.4936 5.08901 19.3447 5.2142 19.2195C5.33939 19.0943 5.48826 18.9953 5.65212 18.9283C5.81598 18.8613 5.99156 18.8275 6.16859 18.8291C6.34563 18.8306 6.52059 18.8674 6.68327 18.9373C6.84594 19.0071 6.99306 19.1087 7.11606 19.2361L8.98673 21.1067L11.3734 18.7201C10.047 16.9811 9.33005 14.8538 9.33339 12.6667ZM19.3334 5.33339C17.3885 5.33339 15.5232 6.10601 14.1479 7.48127C12.7727 8.85654 12.0001 10.7218 12.0001 12.6667C12.0001 14.6116 12.7727 16.4769 14.1479 17.8522C15.5232 19.2274 17.3885 20.0001 19.3334 20.0001C21.2783 20.0001 23.1436 19.2274 24.5188 17.8522C25.8941 16.4769 26.6667 14.6116 26.6667 12.6667C26.6667 10.7218 25.8941 8.85654 24.5188 7.48127C23.1436 6.10601 21.2783 5.33339 19.3334 5.33339Z" fill="#A4A4A4"/>
</g>
<defs>
<clipPath id="clip0_106_81259">
<rect width="32" height="32" fill="white"/>
</clipPath>
</defs>
</svg>
