<svg width="63" height="63" viewBox="0 0 63 63" fill="none" xmlns="http://www.w3.org/2000/svg">
<circle cx="31.5" cy="31.5" r="31.5" fill="url(#paint0_linear_402_1467)"/>
<path d="M18.5 13.0633C17.9094 13.2461 17.3187 13.7524 17.0164 14.336L16.8477 14.6524V31.0001V47.3477L17.0164 47.6641C17.2414 48.093 17.6914 48.5501 18.1133 48.7751L18.4648 48.9649L28.9414 48.986C40.3883 49.0071 39.8891 49.0211 41.1758 48.5993C42.0336 48.318 42.5891 48.0508 43.3414 47.5446C44.9445 46.4829 46.1891 44.8305 46.7867 42.9883C47.2086 41.6876 47.1875 42.468 47.1734 27.9415L47.1523 14.6524L46.9625 14.3008C46.7375 13.879 46.2805 13.429 45.8516 13.204L45.5352 13.0352L32.1055 13.0211C24.7227 13.0141 18.5984 13.0352 18.5 13.0633ZM40.4937 18.2172C41.1828 18.4915 41.6891 19.0118 41.9562 19.7149C42.0828 20.0524 42.0898 20.3407 42.0898 25.9376C42.0898 31.5344 42.0828 31.8227 41.9562 32.1602C41.7664 32.6665 41.45 33.0743 41.0422 33.3485C40.3672 33.8055 40.8945 33.7774 32 33.7774C24.1883 33.7774 23.8648 33.7704 23.5273 33.6438C22.8242 33.3766 22.3531 32.9126 22.0437 32.1954C21.9172 31.893 21.9102 31.6188 21.8891 26.3032C21.875 23.118 21.8961 20.5235 21.9313 20.2563C21.9734 19.9961 22.0719 19.6305 22.1562 19.4477C22.4727 18.7727 23.1898 18.2454 23.9492 18.1329C24.1461 18.1047 27.8797 18.0836 32.2461 18.0907C39.5867 18.0977 40.2125 18.1047 40.4937 18.2172ZM26.5016 35.704C27.0852 36.0063 27.3875 36.4915 27.4719 37.2719L27.5211 37.736L28.0133 37.7852C28.5617 37.8344 28.9062 37.9821 29.2156 38.2844C29.8484 38.9172 29.8344 39.993 29.1805 40.6118C28.8711 40.9071 28.5406 41.0407 27.9781 41.0969L27.5211 41.1461L27.4719 41.6032C27.4156 42.1657 27.282 42.4961 26.9867 42.8055C26.1992 43.6352 24.8 43.3961 24.3289 42.3555C24.2586 42.2008 24.1812 41.8633 24.1531 41.6032L24.1039 41.1461L23.6469 41.0969C22.5781 40.9844 21.9453 40.3727 21.9453 39.4376C21.9453 38.5094 22.5781 37.8836 23.6117 37.7852L24.1039 37.736L24.1531 37.2719C24.2305 36.4985 24.5328 36.0133 25.1094 35.704C25.4469 35.5282 26.15 35.5282 26.5016 35.704ZM40.0016 36.2665C40.5992 36.5758 40.9297 37.0961 40.9297 37.7501C40.9297 38.6641 40.2406 39.3602 39.3266 39.3672C38.4055 39.3672 37.6953 38.6641 37.6953 37.7501C37.6953 37.1172 38.0539 36.5618 38.6445 36.2524C38.9469 36.0907 39.6711 36.0977 40.0016 36.2665ZM36.0641 39.6415C36.6617 39.9508 36.9922 40.4711 36.9922 41.1251C36.9922 42.0391 36.3031 42.7352 35.3891 42.7422C34.468 42.7422 33.7578 42.0391 33.7578 41.1251C33.7578 40.4922 34.1164 39.9368 34.707 39.6274C35.0094 39.4657 35.7336 39.4727 36.0641 39.6415Z" fill="url(#paint1_linear_402_1467)"/>
<path fill-rule="evenodd" clip-rule="evenodd" d="M32.5 20C32.7397 20 32.9708 20.0877 33.1483 20.2461C33.3257 20.4044 33.4368 20.622 33.4598 20.8565L33.4643 20.9474V21.2632H35.7143C35.962 21.2633 36.2001 21.357 36.3793 21.5249C36.5585 21.6929 36.6651 21.9221 36.677 22.1651C36.6889 22.4081 36.6052 22.6463 36.4432 22.8303C36.2812 23.0144 36.0534 23.1301 35.8069 23.1536L35.7143 23.158H33.4643V25.0528H34.1072C34.8626 25.0528 35.588 25.3432 36.1285 25.8618C36.6689 26.3804 36.9814 27.0861 36.9992 27.8281C37.017 28.5701 36.7387 29.2895 36.2237 29.8325C35.7088 30.3755 34.998 30.6991 34.2434 30.7341L34.1072 30.7373H33.4643V31.0531C33.4642 31.2964 33.3688 31.5303 33.1979 31.7064C33.027 31.8825 32.7937 31.9872 32.5463 31.9989C32.299 32.0106 32.0565 31.9283 31.8692 31.7692C31.6819 31.61 31.5641 31.3862 31.5402 31.144L31.5357 31.0531V30.7373H29.2857C29.038 30.7371 28.7999 30.6434 28.6207 30.4755C28.4415 30.3076 28.3349 30.0784 28.323 29.8354C28.3111 29.5924 28.3948 29.3542 28.5568 29.1701C28.7188 28.9861 28.9466 28.8703 29.1931 28.8469L29.2857 28.8425H31.5357V26.9476H30.8928C30.1374 26.9476 29.412 26.6573 28.8715 26.1387C28.3311 25.6201 28.0186 24.9144 28.0008 24.1724C27.983 23.4304 28.2613 22.711 28.7763 22.168C29.2912 21.6249 30.002 21.3013 30.7566 21.2664L30.8928 21.2632H31.5357V20.9474C31.5357 20.6961 31.6373 20.4552 31.8181 20.2775C31.999 20.0998 32.2443 20 32.5 20ZM34.1072 26.9476H33.4643V28.8425H34.1072C34.3629 28.8425 34.6082 28.7426 34.789 28.565C34.9699 28.3873 35.0715 28.1463 35.0715 27.895C35.0715 27.6438 34.9699 27.4028 34.789 27.2251C34.6082 27.0475 34.3629 26.9476 34.1072 26.9476ZM31.5357 23.158H30.8928C30.6371 23.158 30.3918 23.2578 30.211 23.4355C30.0301 23.6132 29.9285 23.8542 29.9285 24.1054C29.9285 24.3567 30.0301 24.5977 30.211 24.7753C30.3918 24.953 30.6371 25.0528 30.8928 25.0528H31.5357V23.158Z" fill="white"/>
<defs>
<linearGradient id="paint0_linear_402_1467" x1="31.5" y1="0" x2="31.5" y2="63" gradientUnits="userSpaceOnUse">
<stop stop-color="#55C3FF"/>
<stop offset="1" stop-color="#4190F7"/>
</linearGradient>
<linearGradient id="paint1_linear_402_1467" x1="32.0134" y1="48.9944" x2="32.0134" y2="13.0198" gradientUnits="userSpaceOnUse">
<stop stop-color="white"/>
<stop offset="0.494792" stop-color="#EDF7FF"/>
<stop offset="1" stop-color="white"/>
</linearGradient>
</defs>
</svg>
