<svg width="12" height="12" viewBox="0 0 12 12" fill="none" xmlns="http://www.w3.org/2000/svg">
<path d="M6.17281 1.24808C6.17281 1.5788 6.04426 1.87958 5.83397 2.10297L7.47137 4.14972C7.49363 4.17765 7.52479 4.19711 7.55965 4.20483C7.59452 4.21255 7.63098 4.20808 7.66295 4.19216L9.31657 3.36472C9.28084 3.18368 9.28562 2.99697 9.33057 2.818C9.37552 2.63902 9.45952 2.47222 9.57655 2.32954C9.69358 2.18686 9.84074 2.07185 10.0075 1.99276C10.1742 1.91367 10.3563 1.87246 10.5409 1.87209C10.8477 1.87215 11.1437 1.98523 11.3725 2.18973C11.6012 2.39422 11.7466 2.67581 11.7808 2.9807C11.8151 3.28559 11.7359 3.59243 11.5582 3.8426C11.3806 4.09277 11.1171 4.26875 10.8179 4.33693L9.69223 10.3418C9.64522 10.5921 9.51223 10.818 9.31624 10.9806C9.12025 11.1433 8.87359 11.2322 8.61893 11.2322H1.23065C0.975985 11.2322 0.729329 11.1433 0.533339 10.9806C0.33735 10.818 0.157349 10.3418 0.157349 10.3418L1.24984 4.68002L4.0156 2.10297C3.87612 1.95464 3.77504 1.77442 3.72119 1.57805C3.66735 1.38168 3.66237 1.17512 3.70669 0.976384C3.751 0.777648 3.84328 0.592773 3.97545 0.437886C4.10763 0.282999 4.27569 0.162805 4.46499 0.0877875C4.65428 0.0127701 4.85906 -0.0147918 5.06145 0.00750594C5.26385 0.0298037 5.45771 0.101284 5.62614 0.215711C5.79456 0.330139 5.93243 0.484038 6.02772 0.663984C6.12301 0.843931 6.17282 1.04446 6.17281 1.24808ZM4.92479 8.7362C5.25578 8.7362 5.57322 8.60471 5.80727 8.37066C6.04132 8.13661 6.17281 7.81917 6.17281 7.48818C6.17281 7.15718 6.04132 6.83974 5.80727 6.60569C5.57322 6.37164 5.25578 6.24016 4.92479 6.24016C4.59379 6.24016 4.27635 6.37164 4.0423 6.60569C3.80825 6.83974 3.67677 7.15718 3.67677 7.48818C3.67677 7.81917 3.80825 8.13661 4.0423 8.37066C4.27635 8.60471 4.59379 8.7362 4.92479 8.7362Z" fill="white" fill-opacity="0.5"/>
</svg>
