<svg width="32" height="32" viewBox="0 0 32 32" fill="none" xmlns="http://www.w3.org/2000/svg">
<path d="M26.625 1H22C21.6353 1 21.2856 1.14487 21.0277 1.40273C20.7699 1.66059 20.625 2.01033 20.625 2.375C20.625 2.73967 20.7699 3.08941 21.0277 3.34727C21.2856 3.60513 21.6353 3.75 22 3.75H23.3056L20.9869 6.06812C20.0614 4.98788 18.913 4.1208 17.6206 3.52645C16.3282 2.9321 14.9225 2.62457 13.5 2.625C8.055 2.625 3.625 7.055 3.625 12.5C3.625 17.4788 7.32875 21.6075 12.125 22.2787V24.625H10.375C10.0103 24.625 9.66059 24.7699 9.40273 25.0277C9.14487 25.2856 9 25.6353 9 26C9 26.3647 9.14487 26.7144 9.40273 26.9723C9.66059 27.2301 10.0103 27.375 10.375 27.375H12.125V29.625C12.125 29.9897 12.2699 30.3394 12.5277 30.5973C12.7856 30.8551 13.1353 31 13.5 31C13.8647 31 14.2144 30.8551 14.4723 30.5973C14.7301 30.3394 14.875 29.9897 14.875 29.625V27.375H16.625C16.9897 27.375 17.3394 27.2301 17.5973 26.9723C17.8551 26.7144 18 26.3647 18 26C18 25.6353 17.8551 25.2856 17.5973 25.0277C17.3394 24.7699 16.9897 24.625 16.625 24.625H14.875V22.2787C19.6712 21.6075 23.375 17.4788 23.375 12.5C23.3757 11.1006 23.0774 9.71722 22.5 8.4425L25.25 5.6925V7C25.25 7.36467 25.3949 7.71441 25.6527 7.97227C25.9106 8.23013 26.2603 8.375 26.625 8.375C26.9897 8.375 27.3394 8.23013 27.5973 7.97227C27.8551 7.71441 28 7.36467 28 7V2.375C28 2.01033 27.8551 1.66059 27.5973 1.40273C27.3394 1.14487 26.9897 1 26.625 1ZM13.5 19.625C12.0908 19.625 10.7133 19.2071 9.54156 18.4242C8.36986 17.6413 7.45663 16.5285 6.91736 15.2266C6.37808 13.9247 6.23698 12.4921 6.5119 11.11C6.78682 9.72787 7.46542 8.45831 8.46186 7.46186C9.45831 6.46542 10.7279 5.78682 12.11 5.5119C13.4921 5.23699 14.9247 5.37808 16.2266 5.91736C17.5285 6.45663 18.6413 7.36986 19.4242 8.54156C20.2071 9.71326 20.625 11.0908 20.625 12.5C20.6229 14.389 19.8715 16.2 18.5358 17.5358C17.2 18.8715 15.389 19.6229 13.5 19.625Z" fill="#A4A4A4"/>
</svg>
