<svg width="24" height="24" viewBox="0 0 24 24" fill="none" xmlns="http://www.w3.org/2000/svg">
<path fill-rule="evenodd" clip-rule="evenodd" d="M1.33333 0C0.979712 0 0.640573 0.140476 0.390524 0.390524C0.140476 0.640573 0 0.979712 0 1.33333V9.33334C0 9.68696 0.140476 10.0261 0.390524 10.2761C0.640573 10.5262 0.979712 10.6667 1.33333 10.6667H9.33334C9.68696 10.6667 10.0261 10.5262 10.2761 10.2761C10.5262 10.0261 10.6667 9.68696 10.6667 9.33334V1.33333C10.6667 0.979712 10.5262 0.640573 10.2761 0.390524C10.0261 0.140476 9.68696 0 9.33334 0H1.33333ZM2.66667 8V2.66667H8V8H2.66667ZM14.6667 0C14.3131 0 13.9739 0.140476 13.7239 0.390524C13.4738 0.640573 13.3333 0.979712 13.3333 1.33333V9.33334C13.3333 9.68696 13.4738 10.0261 13.7239 10.2761C13.9739 10.5262 14.3131 10.6667 14.6667 10.6667H22.6667C23.0203 10.6667 23.3594 10.5262 23.6095 10.2761C23.8595 10.0261 24 9.68696 24 9.33334V1.33333C24 0.979712 23.8595 0.640573 23.6095 0.390524C23.3594 0.140476 23.0203 0 22.6667 0H14.6667ZM1.33333 13.3333C0.979712 13.3333 0.640573 13.4738 0.390524 13.7239C0.140476 13.9739 0 14.3131 0 14.6667V22.6667C0 23.0203 0.140476 23.3594 0.390524 23.6095C0.640573 23.8595 0.979712 24 1.33333 24H9.33334C9.68696 24 10.0261 23.8595 10.2761 23.6095C10.5262 23.3594 10.6667 23.0203 10.6667 22.6667V14.6667C10.6667 14.3131 10.5262 13.9739 10.2761 13.7239C10.0261 13.4738 9.68696 13.3333 9.33334 13.3333H1.33333ZM14.6667 13.3333C14.3131 13.3333 13.9739 13.4738 13.7239 13.7239C13.4738 13.9739 13.3333 14.3131 13.3333 14.6667V16C13.3333 16.3536 13.4738 16.6928 13.7239 16.9428C13.9739 17.1929 14.3131 17.3333 14.6667 17.3333H16C16.3536 17.3333 16.6928 17.1929 16.9428 16.9428C17.1929 16.6928 17.3333 16.3536 17.3333 16V14.6667C17.3333 14.3131 17.1929 13.9739 16.9428 13.7239C16.6928 13.4738 16.3536 13.3333 16 13.3333H14.6667ZM21.3333 13.3333C20.9798 13.3334 20.6407 13.4739 20.3907 13.724L17.724 16.3907C17.4811 16.6421 17.3467 16.9789 17.3498 17.3285C17.3528 17.6781 17.493 18.0126 17.7403 18.2598C17.9875 18.507 18.3219 18.6472 18.6715 18.6502C19.0211 18.6533 19.3579 18.5189 19.6093 18.276L21.8853 16H22.6667C23.0203 16 23.3594 15.8595 23.6095 15.6095C23.8595 15.3594 24 15.0203 24 14.6667C24 14.3131 23.8595 13.9739 23.6095 13.7239C23.3594 13.4738 23.0203 13.3333 22.6667 13.3333H21.3333ZM14.6667 18.6667C14.3131 18.6667 13.9739 18.8072 13.7239 19.0572C13.4738 19.3072 13.3333 19.6464 13.3333 20V22.6667C13.3333 23.0203 13.4738 23.3594 13.7239 23.6095C13.9739 23.8595 14.3131 24 14.6667 24C15.0203 24 15.3594 23.8595 15.6095 23.6095C15.8595 23.3594 16 23.0203 16 22.6667V21.3333H17.3333C17.687 21.3333 18.0261 21.1929 18.2762 20.9428C18.5262 20.6928 18.6667 20.3536 18.6667 20C18.6667 19.6464 18.5262 19.3072 18.2762 19.0572C18.0261 18.8072 17.687 18.6667 17.3333 18.6667H14.6667ZM24 20C24 19.6464 23.8595 19.3072 23.6095 19.0572C23.3594 18.8072 23.0203 18.6667 22.6667 18.6667C22.3131 18.6667 21.9739 18.8072 21.7239 19.0572C21.4738 19.3072 21.3333 19.6464 21.3333 20V21.3333H20C19.6464 21.3333 19.3072 21.4738 19.0572 21.7239C18.8072 21.9739 18.6667 22.3131 18.6667 22.6667C18.6667 23.0203 18.8072 23.3594 19.0572 23.6095C19.3072 23.8595 19.6464 24 20 24H22.6667C23.0203 24 23.3594 23.8595 23.6095 23.6095C23.8595 23.3594 24 23.0203 24 22.6667V20ZM17.3333 5.33334C17.3333 4.97971 17.4738 4.64058 17.7239 4.39053C17.9739 4.14048 18.3131 4 18.6667 4C19.0203 4 19.3608 4.14048 19.6108 4.39053C19.8609 4.64058 20.0013 4.97971 20.0013 5.33334C20.0013 5.68696 19.8609 6.0261 19.6108 6.27615C19.3608 6.52619 19.0216 6.66667 18.668 6.66667C18.3144 6.66667 17.9739 6.52619 17.7239 6.27615C17.4738 6.0261 17.3333 5.68696 17.3333 5.33334ZM5.33334 17.3333C4.97971 17.3333 4.64058 17.4738 4.39053 17.7239C4.14048 17.9739 4 18.3131 4 18.6667C4 19.0203 4.14048 19.3594 4.39053 19.6095C4.64058 19.8595 4.97971 20 5.33334 20C5.68696 20 6.02743 19.8595 6.27748 19.6095C6.52753 19.3594 6.668 19.0203 6.668 18.6667C6.668 18.3131 6.52753 17.9739 6.27748 17.7239C6.02743 17.4738 5.68696 17.3333 5.33334 17.3333Z" fill="url(#paint0_linear_106_81391)"/>
<defs>
<linearGradient id="paint0_linear_106_81391" x1="12" y1="0" x2="12" y2="24" gradientUnits="userSpaceOnUse">
<stop stop-color="#5BAEFF"/>
<stop offset="1" stop-color="#468EFE"/>
</linearGradient>
</defs>
</svg>
