<svg width="17" height="16" viewBox="0 0 17 16" fill="none" xmlns="http://www.w3.org/2000/svg">
<path fill-rule="evenodd" clip-rule="evenodd" d="M1.30619 4.5C1.3021 4.53276 1.3 4.56613 1.3 4.6V11.4C1.3 11.4339 1.3021 11.4672 1.30619 11.5C1.35131 11.8619 1.63813 12.1487 2 12.1938C2.03276 12.1979 2.06613 12.2 2.1 12.2H11.7C11.7339 12.2 11.7672 12.1979 11.8 12.1938C11.9635 12.1734 12.1117 12.1037 12.2292 12H13.1837C12.9463 12.5864 12.3715 13 11.7 13H2.1C1.21634 13 0.5 12.2837 0.5 11.4V4.6C0.5 3.71634 1.21634 3 2.1 3H11.7C12.3715 3 12.9463 3.41363 13.1837 4H12.2292C12.1117 3.8963 11.9635 3.82658 11.8 3.80619C11.7672 3.8021 11.7339 3.8 11.7 3.8H2.1C2.06613 3.8 2.03276 3.8021 2 3.80619C1.63813 3.85131 1.35131 4.13813 1.30619 4.5ZM11.8 10.1V11.5H10.4L11.8 10.1ZM10.4 4.5H11.8V5.9L10.4 4.5ZM7.20235 4.6C7.25795 4.6 7.30243 4.64448 7.30243 4.70009V5.66759H7.48593C7.51373 5.66759 7.54131 5.66867 7.56864 5.6708C8.16418 5.71711 8.63692 6.25944 8.63692 6.91868C8.63692 7.20226 8.54796 7.46916 8.39783 7.68045C8.70365 7.90287 8.90382 8.28097 8.90382 8.698C8.90382 9.38193 8.38671 9.93241 7.75282 9.93241H7.30243V10.8999C7.30243 10.9555 7.25795 11 7.20235 11H6.86872C6.81312 11 6.76864 10.9555 6.76864 10.8999V9.93241H6.23484V10.8999C6.23484 10.9555 6.19036 11 6.13475 11H5.80113C5.74553 11 5.70104 10.9555 5.70104 10.8999V9.93241H4.63901C4.58897 9.92129 4.55004 9.87124 4.56116 9.81564L4.62233 9.47646C4.62426 9.46295 4.63021 9.45011 4.63901 9.43887C4.65557 9.41772 4.68225 9.40224 4.7113 9.39861C4.72764 9.39715 4.74353 9.39515 4.75896 9.39264C4.88009 9.37292 4.97309 9.32139 5.03951 9.24777C5.07024 9.21372 5.09527 9.17495 5.11478 9.13241C5.15006 9.05547 5.16725 8.96623 5.16725 8.87037V6.80191C5.16725 6.67856 5.13468 6.56335 5.07101 6.46759C5.04441 6.4276 5.01239 6.391 4.97505 6.35861C4.88233 6.27819 4.7568 6.22378 4.60009 6.208L4.58897 6.20695C4.53892 6.20139 4.5 6.15691 4.5 6.10686V5.76768C4.5 5.71208 4.54448 5.66759 4.60009 5.66759H5.70104V4.70009C5.70104 4.64448 5.74553 4.6 5.80113 4.6H6.13475C6.19036 4.6 6.23484 4.64448 6.23484 4.70009V5.66759H6.76864V4.70009C6.76864 4.64448 6.81312 4.6 6.86872 4.6H7.20235ZM7.53487 7.28515C7.48491 7.3761 7.41 7.45109 7.31911 7.50114L7.30888 7.50664C7.2324 7.54666 7.14513 7.56924 7.05222 7.56924H6.23484V6.46829H7.05222C7.35804 6.46829 7.60269 6.71295 7.60269 7.01877C7.60269 7.11564 7.57814 7.20638 7.53487 7.28515ZM6.23484 8.06968H7.31911C7.463 8.06706 7.59458 8.11984 7.69358 8.20831C7.805 8.30788 7.87515 8.45266 7.87515 8.6146C7.87515 8.85142 7.7351 9.05157 7.52989 9.13241C7.4701 9.15596 7.40479 9.16938 7.33579 9.17063H6.23484V8.06968ZM3.4 11.5H2V10.1L3.4 11.5ZM2 5.9V4.5H3.4L2 5.9Z" fill="white"/>
<path d="M10.5 8C10.5 7.58579 10.8358 7.25 11.25 7.25H15.75C16.1642 7.25 16.5 7.58579 16.5 8C16.5 8.41421 16.1642 8.75 15.75 8.75H11.25C10.8358 8.75 10.5 8.41421 10.5 8Z" fill="white"/>
</svg>
