<svg width="16" height="13" viewBox="0 0 16 13" fill="none" xmlns="http://www.w3.org/2000/svg">
<mask id="path-1-outside-1_930_505" maskUnits="userSpaceOnUse" x="0" y="0" width="16" height="13" fill="black">
<rect fill="white" width="16" height="13"/>
<path fill-rule="evenodd" clip-rule="evenodd" d="M1 2C1 1.44772 1.44772 1 2 1H14C14.5523 1 15 1.44772 15 2V10.5C15 11.0523 14.5523 11.5 14 11.5H2C1.44772 11.5 1 11.0523 1 10.5V2ZM3.625 1.875H1.875V3.625L3.625 1.875ZM14.125 1.875H12.375L14.125 3.625V1.875ZM3.625 10.625H1.875V8.875L3.625 10.625ZM14.125 10.625H12.375L14.125 8.875V10.625Z"/>
</mask>
<path d="M1.875 1.875V0.875H0.875V1.875H1.875ZM3.625 1.875L4.33211 2.58211L6.03921 0.875H3.625V1.875ZM1.875 3.625H0.875V6.03921L2.58211 4.33211L1.875 3.625ZM12.375 1.875V0.875H9.96079L11.6679 2.58211L12.375 1.875ZM14.125 1.875H15.125V0.875H14.125V1.875ZM14.125 3.625L13.4179 4.33211L15.125 6.03921V3.625H14.125ZM1.875 10.625H0.875V11.625H1.875V10.625ZM3.625 10.625V11.625H6.03921L4.33211 9.91789L3.625 10.625ZM1.875 8.875L2.58211 8.16789L0.875 6.46079V8.875H1.875ZM12.375 10.625L11.6679 9.91789L9.96079 11.625H12.375V10.625ZM14.125 10.625V11.625H15.125V10.625H14.125ZM14.125 8.875H15.125V6.46079L13.4179 8.16789L14.125 8.875ZM2 0C0.895431 0 0 0.89543 0 2H2V2V0ZM14 0H2V2H14V0ZM16 2C16 0.89543 15.1046 0 14 0V2H16ZM16 10.5V2H14V10.5H16ZM14 12.5C15.1046 12.5 16 11.6046 16 10.5H14V12.5ZM2 12.5H14V10.5H2V12.5ZM0 10.5C0 11.6046 0.895431 12.5 2 12.5V10.5H2H0ZM0 2V10.5H2V2H0ZM1.875 2.875H3.625V0.875H1.875V2.875ZM2.875 3.625V1.875H0.875V3.625H2.875ZM2.91789 1.16789L1.16789 2.91789L2.58211 4.33211L4.33211 2.58211L2.91789 1.16789ZM12.375 2.875H14.125V0.875H12.375V2.875ZM14.8321 2.91789L13.0821 1.16789L11.6679 2.58211L13.4179 4.33211L14.8321 2.91789ZM13.125 1.875V3.625H15.125V1.875H13.125ZM1.875 11.625H3.625V9.625H1.875V11.625ZM0.875 8.875V10.625H2.875V8.875H0.875ZM4.33211 9.91789L2.58211 8.16789L1.16789 9.58211L2.91789 11.3321L4.33211 9.91789ZM12.375 11.625H14.125V9.625H12.375V11.625ZM13.4179 8.16789L11.6679 9.91789L13.0821 11.3321L14.8321 9.58211L13.4179 8.16789ZM15.125 10.625V8.875H13.125V10.625H15.125Z" fill="#0098EA" mask="url(#path-1-outside-1_930_505)"/>
<path d="M6.63002 3.82869C6.62856 4.28049 6.2749 4.62892 5.81788 4.62892C5.60187 4.62892 5.39471 4.54311 5.24197 4.39037C5.08923 4.23763 5.00342 4.03047 5.00342 3.81446C5.00342 3.59845 5.08923 3.39129 5.24197 3.23855C5.39471 3.08581 5.60187 3 5.81788 3C6.28013 3.0029 6.63176 3.36092 6.63002 3.82869Z" fill="#0098EA"/>
<path d="M10.1827 3.00543H7.7811C7.33225 3.00543 6.96838 3.36923 6.96838 3.818C6.96838 4.26678 7.33225 4.63058 7.7811 4.63058H10.1827C10.6315 4.63058 10.9954 4.26678 10.9954 3.818C10.9954 3.36923 10.6315 3.00543 10.1827 3.00543Z" fill="#0098EA"/>
<path d="M10.1855 7.45618H5.81446C5.36465 7.45618 5 7.82082 5 8.27064C5 8.72045 5.36465 9.0851 5.81446 9.0851H10.1855C10.6354 9.0851 11 8.72045 11 8.27064C11 7.82082 10.6354 7.45618 10.1855 7.45618Z" fill="#0098EA"/>
<path d="M8.05282 5.62515C7.88709 5.48688 7.67336 5.41984 7.45834 5.43866C7.24333 5.45749 7.04451 5.56065 6.90532 5.72562L5.19219 7.74914C5.05347 7.91461 4.98592 8.12829 5.00431 8.34343C5.0227 8.55858 5.12554 8.75769 5.29034 8.89722C5.43732 9.02026 5.62304 9.08742 5.81473 9.08682H7.94219C7.78581 9.08739 7.63258 9.04285 7.50087 8.95853C7.36917 8.87421 7.26457 8.7537 7.19963 8.61143C7.13469 8.46917 7.11216 8.3112 7.13474 8.15645C7.15731 8.0017 7.22404 7.85675 7.32692 7.73897L7.56327 7.45616L8.15358 6.77265C8.29174 6.60685 8.35869 6.39312 8.33981 6.17813C8.32093 5.96313 8.21776 5.76434 8.05282 5.62515Z" fill="#0098EA"/>
</svg>
