<svg width="12" height="12" viewBox="0 0 12 12" fill="none" xmlns="http://www.w3.org/2000/svg">
<path fill-rule="evenodd" clip-rule="evenodd" d="M6 0.75C8.8995 0.75 11.25 3.10051 11.25 6C11.25 8.8995 8.8995 11.25 6 11.25C3.10051 11.25 0.75 8.8995 0.75 6C0.75 3.10051 3.10051 0.75 6 0.75ZM8.35984 4.44653L5.32293 7.48344L3.64017 5.80068C3.49372 5.65423 3.25628 5.65423 3.10983 5.80068C2.96339 5.94713 2.96339 6.18456 3.10983 6.33101L5.05776 8.27894C5.20421 8.42538 5.44164 8.42538 5.58809 8.27894L8.89017 4.97686C9.03661 4.83042 9.03661 4.59298 8.89017 4.44653C8.74372 4.30009 8.50628 4.30009 8.35984 4.44653Z" fill="url(#paint0_linear_1035_79)"/>
<defs>
<linearGradient id="paint0_linear_1035_79" x1="0.75" y1="5.99998" x2="11.25" y2="5.99998" gradientUnits="userSpaceOnUse">
<stop stop-color="#13A165"/>
<stop offset="1" stop-color="#35C2BA"/>
</linearGradient>
</defs>
</svg>
