<svg width="14" height="15" viewBox="0 0 14 15" fill="none" xmlns="http://www.w3.org/2000/svg">
<path d="M13.0577 13.8027H0.942298C0.799414 13.7706 0.657875 13.7367 0.541529 13.6385C0.377683 13.5 0.31076 13.3171 0.288452 13.1114V13.0537C0.295935 13.0364 0.301482 13.0183 0.304991 12.9998C0.338709 12.6048 0.371657 12.2098 0.403837 11.8146C0.462683 11.086 0.788452 10.509 1.42307 10.1427C1.83134 9.90693 2.27172 9.72674 2.69768 9.52135C2.73076 9.50539 2.76326 9.48808 2.80018 9.46924C2.78095 9.43078 2.76864 9.40212 2.75499 9.37308C2.56422 8.97949 2.37339 8.5859 2.18249 8.19231C2.04268 7.90385 1.9423 7.60135 1.90672 7.28155C1.84653 6.7477 1.93961 6.23905 2.1748 5.75539C2.75172 4.56962 3.30941 3.37501 3.90557 2.19885C4.52672 0.972508 5.56114 0.355969 6.9248 0.291738C7.38537 0.270008 7.83537 0.356931 8.26711 0.526354C9.13249 0.865777 9.74461 1.47328 10.1473 2.29943C10.6958 3.42462 11.2388 4.55212 11.7861 5.6777C11.9592 6.03424 12.08 6.4027 12.1025 6.8027C12.1242 7.18885 12.0821 7.56616 11.9283 7.91808C11.724 8.38597 11.4938 8.84231 11.2744 9.30385C11.2488 9.3577 11.2246 9.41231 11.1975 9.47001C11.236 9.48924 11.2673 9.50578 11.2988 9.52078C11.6913 9.70731 12.0902 9.88155 12.475 10.0827C13.0629 10.3904 13.4344 10.8781 13.55 11.5308C13.6188 11.9196 13.6311 12.3192 13.6698 12.7127C13.681 12.8264 13.6958 12.9396 13.7083 13.0531V13.0915C13.7038 13.1196 13.6988 13.1475 13.695 13.1758C13.6565 13.4727 13.5 13.6729 13.2106 13.7631C13.1627 13.7796 13.1098 13.7898 13.0577 13.8027Z" fill="url(#paint0_linear_1261_489)"/>
<path d="M7.30195 10.4038C7.52599 10.355 7.7358 10.3248 7.93657 10.2629C8.69157 10.0294 9.29042 9.58269 9.72369 8.92C10.0179 8.47019 10.2023 7.97539 10.2262 7.44115C10.255 6.78962 10.2477 6.13615 10.2427 5.48365C10.2389 4.96212 9.86407 4.60288 9.34407 4.60269C7.77997 4.60269 6.21631 4.60269 4.65311 4.60269C4.59872 4.60101 4.5443 4.60397 4.49042 4.61154C4.05042 4.68712 3.75965 5.03673 3.75715 5.49615C3.75445 6.04013 3.75445 6.5841 3.75715 7.12808C3.76022 7.73058 3.89926 8.29885 4.21445 8.81654C4.71445 9.63885 5.44388 10.1435 6.38426 10.3431C6.48503 10.3646 6.58868 10.3719 6.69888 10.3869C6.69888 10.1506 6.69888 9.93019 6.69888 9.70981C6.69718 9.65236 6.70072 9.59488 6.70945 9.53808C6.71762 9.49406 6.73577 9.4525 6.76253 9.41661C6.78928 9.38072 6.82392 9.35144 6.86377 9.33104C6.90362 9.31065 6.94762 9.29967 6.99238 9.29895C7.03714 9.29824 7.08147 9.30781 7.12195 9.32692C7.25657 9.38731 7.30176 9.5 7.30195 9.63846V10.4038Z" fill="#F99C39" fill-opacity="0.73"/>
<path fill-rule="evenodd" clip-rule="evenodd" d="M8.19111 6.7788C8.24418 6.77921 8.29726 6.77963 8.35034 6.77963C8.39201 6.77968 8.43367 6.77987 8.47533 6.78007C8.60342 6.78068 8.73139 6.78129 8.8588 6.77751C8.91905 6.7783 8.9788 6.76644 9.03418 6.74271C9.09149 6.71295 9.1374 6.66514 9.16479 6.60667C9.19218 6.54819 9.19954 6.48232 9.18572 6.41924C9.16983 6.35174 9.13174 6.29153 9.07755 6.24826C9.02337 6.20499 8.95622 6.18116 8.88688 6.18059C8.65406 6.17969 8.42124 6.17999 8.18842 6.18029C8.07201 6.18044 7.9556 6.18059 7.83919 6.18059C7.65438 6.18117 7.5188 6.3054 7.51226 6.47309C7.51131 6.51471 7.519 6.55608 7.53484 6.59458C7.55067 6.63308 7.57432 6.66788 7.60427 6.69679C7.63423 6.7257 7.66985 6.74809 7.70889 6.76255C7.74793 6.777 7.78955 6.78321 7.83111 6.78078C7.95111 6.77692 8.07111 6.77786 8.19111 6.7788ZM5.64937 6.77962C5.59167 6.77962 5.53398 6.77986 5.47629 6.78009C5.3609 6.78056 5.24552 6.78103 5.13013 6.77962C4.93283 6.77674 4.80552 6.6552 4.80802 6.47751C4.81052 6.30616 4.94937 6.18135 5.14033 6.18097L5.48648 6.18071C5.71725 6.18046 5.94802 6.1802 6.17879 6.18097C6.24331 6.18027 6.30641 6.19988 6.35918 6.23701C6.41194 6.27415 6.4517 6.32693 6.47283 6.38789C6.51283 6.50443 6.47937 6.64231 6.37206 6.71289C6.30751 6.7519 6.23414 6.77393 6.15879 6.77693C6.03697 6.78342 5.91495 6.78208 5.79295 6.78073C5.74508 6.7802 5.69722 6.77968 5.64937 6.77962ZM5.18435 8.53004C5.35737 8.65915 5.56716 8.72949 5.78303 8.73078C6.2163 8.73078 6.62015 8.43251 6.74303 8.02309C6.79746 7.84174 6.69361 7.67136 6.5063 7.63482C6.36496 7.60732 6.23342 7.68982 6.17265 7.84366C6.08899 8.05636 5.9113 8.16328 5.69707 8.11866C5.53688 8.0854 5.44073 7.97847 5.38457 7.82559C5.37214 7.78917 5.35262 7.75558 5.32714 7.72676C5.30165 7.69793 5.2707 7.67444 5.23608 7.65765C5.20146 7.64086 5.16385 7.6311 5.12544 7.62893C5.08702 7.62676 5.04856 7.63222 5.01226 7.64501C4.93849 7.66907 4.87714 7.72117 4.84145 7.79007C4.80575 7.85897 4.79859 7.93914 4.82149 8.01328C4.88418 8.21985 5.01134 8.40094 5.18435 8.53004ZM7.62337 8.53371C7.79458 8.65967 8.00106 8.72862 8.21361 8.73079C8.6538 8.73368 9.06245 8.42752 9.17976 8.00714C9.19852 7.9421 9.19417 7.87257 9.16746 7.81037C9.14074 7.74818 9.09331 7.69716 9.03322 7.66599C8.86418 7.5781 8.67765 7.65137 8.60803 7.84041C8.55245 7.99137 8.45168 8.08945 8.29572 8.11945C8.08015 8.16079 7.91341 8.05675 7.82495 7.83714C7.75745 7.66868 7.59668 7.59022 7.44034 7.64752C7.28399 7.70483 7.20745 7.86656 7.25957 8.02887C7.3249 8.23114 7.45217 8.40774 7.62337 8.53371Z" fill="url(#paint1_linear_1261_489)"/>
<defs>
<linearGradient id="paint0_linear_1261_489" x1="0.288452" y1="7.04555" x2="13.7083" y2="7.04555" gradientUnits="userSpaceOnUse">
<stop stop-color="white"/>
<stop offset="1" stop-color="#F3F3F6"/>
</linearGradient>
<linearGradient id="paint1_linear_1261_489" x1="4.80798" y1="7.4554" x2="9.19253" y2="7.4554" gradientUnits="userSpaceOnUse">
<stop stop-color="white"/>
<stop offset="1" stop-color="#F3F3F6"/>
</linearGradient>
</defs>
</svg>
