<svg width="16" height="16" viewBox="0 0 16 16" fill="none" xmlns="http://www.w3.org/2000/svg">
<path fill-rule="evenodd" clip-rule="evenodd" d="M0.806189 4.5C0.802104 4.53276 0.8 4.56613 0.8 4.6V11.4C0.8 11.4339 0.802104 11.4672 0.806189 11.5C0.851314 11.8619 1.13813 12.1487 1.5 12.1938C1.53276 12.1979 1.56613 12.2 1.6 12.2H11.2C11.2339 12.2 11.2672 12.1979 11.3 12.1938C11.4635 12.1734 11.6117 12.1037 11.7292 12H12.6837C12.4463 12.5864 11.8715 13 11.2 13H1.6C0.716345 13 0 12.2837 0 11.4V4.6C0 3.71634 0.716345 3 1.6 3H11.2C11.8715 3 12.4463 3.41363 12.6837 4H11.7292C11.6117 3.8963 11.4635 3.82658 11.3 3.80619C11.2672 3.8021 11.2339 3.8 11.2 3.8H1.6C1.56613 3.8 1.53276 3.8021 1.5 3.80619C1.13813 3.85131 0.851314 4.13813 0.806189 4.5ZM11.3 10.1V11.5H9.9L11.3 10.1ZM9.9 4.5H11.3V5.9L9.9 4.5ZM6.70235 4.6C6.75795 4.6 6.80243 4.64448 6.80243 4.70009V5.66759H6.98593C7.01373 5.66759 7.04131 5.66867 7.06864 5.6708C7.66418 5.71711 8.13692 6.25944 8.13692 6.91868C8.13692 7.20226 8.04796 7.46916 7.89783 7.68045C8.20365 7.90287 8.40382 8.28097 8.40382 8.698C8.40382 9.38193 7.88671 9.93241 7.25282 9.93241H6.80243V10.8999C6.80243 10.9555 6.75795 11 6.70235 11H6.36872C6.31312 11 6.26864 10.9555 6.26864 10.8999V9.93241H5.73484V10.8999C5.73484 10.9555 5.69036 11 5.63475 11H5.30113C5.24553 11 5.20104 10.9555 5.20104 10.8999V9.93241H4.13901C4.08897 9.92129 4.05004 9.87124 4.06116 9.81564L4.12233 9.47646C4.12426 9.46295 4.13021 9.45011 4.13901 9.43887C4.15557 9.41772 4.18225 9.40224 4.2113 9.39861C4.22764 9.39715 4.24353 9.39515 4.25896 9.39264C4.38009 9.37292 4.47309 9.32139 4.53951 9.24777C4.57024 9.21372 4.59527 9.17495 4.61478 9.13241C4.65006 9.05547 4.66725 8.96623 4.66725 8.87037V6.80191C4.66725 6.67856 4.63468 6.56335 4.57101 6.46759C4.54441 6.4276 4.51239 6.391 4.47505 6.35861C4.38233 6.27819 4.2568 6.22378 4.10009 6.208L4.08897 6.20695C4.03892 6.20139 4 6.15691 4 6.10686V5.76768C4 5.71208 4.04448 5.66759 4.10009 5.66759H5.20104V4.70009C5.20104 4.64448 5.24553 4.6 5.30113 4.6H5.63475C5.69036 4.6 5.73484 4.64448 5.73484 4.70009V5.66759H6.26864V4.70009C6.26864 4.64448 6.31312 4.6 6.36872 4.6H6.70235ZM7.03487 7.28515C6.98491 7.3761 6.91 7.45109 6.81911 7.50114L6.80888 7.50664C6.7324 7.54666 6.64513 7.56924 6.55222 7.56924H5.73484V6.46829H6.55222C6.85804 6.46829 7.10269 6.71295 7.10269 7.01877C7.10269 7.11564 7.07814 7.20638 7.03487 7.28515ZM5.73484 8.06968H6.81911C6.963 8.06706 7.09458 8.11984 7.19358 8.20831C7.305 8.30788 7.37515 8.45266 7.37515 8.6146C7.37515 8.85142 7.2351 9.05157 7.02989 9.13241C6.9701 9.15596 6.90479 9.16938 6.83579 9.17063H5.73484V8.06968ZM2.9 11.5H1.5V10.1L2.9 11.5ZM1.5 5.9V4.5H2.9L1.5 5.9Z" fill="white"/>
<path fill-rule="evenodd" clip-rule="evenodd" d="M13.75 5.75C13.75 5.33579 13.4142 5 13 5C12.5858 5 12.25 5.33579 12.25 5.75V7.25H10.75C10.3358 7.25 10 7.58579 10 8C10 8.41421 10.3358 8.75 10.75 8.75H12.25V10.25C12.25 10.6642 12.5858 11 13 11C13.4142 11 13.75 10.6642 13.75 10.25V8.75H15.25C15.6642 8.75 16 8.41421 16 8C16 7.58579 15.6642 7.25 15.25 7.25H13.75V5.75Z" fill="white"/>
</svg>
