<svg width="33" height="39" viewBox="0 0 33 39" fill="none" xmlns="http://www.w3.org/2000/svg">
<path d="M14.8308 0.690775C12.8943 1.18957 11.3466 2.48789 10.481 4.35102C9.98957 5.39995 9.9529 5.62001 9.91622 7.63718L9.87955 9.4563H11.0238H12.1681V7.98193C12.1681 6.88166 12.1975 6.39753 12.2855 6.06012C12.5495 5.04786 13.2537 4.05028 14.1339 3.4708C15.1829 2.77396 16.5766 2.57591 17.7795 2.95734C19.1879 3.40479 20.3395 4.60775 20.7209 6.04545C20.7943 6.34619 20.8456 6.96234 20.875 7.96726L20.919 9.4563H22.0046H23.0975V7.81322C23.0975 6.31685 23.0828 6.11146 22.9215 5.4733C22.32 3.11138 20.4935 1.28492 18.1316 0.68344C17.1487 0.434044 15.8064 0.44138 14.8308 0.690775Z" fill="url(#paint0_linear_402_1483)"/>
<path d="M0.475869 11.7962C0.358506 11.8769 0.204468 12.0383 0.123781 12.1557C-0.00825206 12.3611 -0.00825206 12.7278 0.00641827 23.0704L0.0284238 33.7724L0.226473 34.3152C0.571226 35.2468 0.915979 35.7749 1.63483 36.4864C2.39768 37.2493 3.13853 37.6674 4.12878 37.9168C4.69359 38.0635 4.97966 38.0635 16.4959 38.0635C28.0121 38.0635 28.2982 38.0635 28.863 37.9168C29.1784 37.8361 29.7212 37.6307 30.0659 37.462C30.5721 37.2126 30.8215 37.0219 31.3863 36.4497C31.9584 35.8849 32.1491 35.6355 32.3985 35.1294C32.5672 34.7847 32.7726 34.2419 32.8533 33.9264C32.9927 33.3616 33 33.0756 33 22.8503C33 12.6911 32.9927 12.3464 32.8606 12.141C32.7873 12.031 32.6259 11.8696 32.5159 11.7962C32.3105 11.6642 31.8557 11.6569 16.4959 11.6569C1.06268 11.6569 0.681254 11.6642 0.475869 11.7962ZM21.4911 17.2243C23.4569 17.437 25.1 18.7793 25.6208 20.6058C25.6795 20.8258 26.0169 22.711 26.369 24.7868C27.1099 29.2539 27.1245 29.5107 26.6844 30.4349C26.0609 31.7406 24.9093 32.4961 23.5376 32.4961C22.5474 32.4961 21.7332 32.166 21.0437 31.4692C20.6916 31.1244 20.5155 30.831 19.8994 29.6134L19.1732 28.161H16.4959H13.8185L13.1144 29.5694C12.3662 31.0657 12.0214 31.5498 11.3906 31.968C10.8551 32.32 10.2096 32.5034 9.49812 32.5034C8.08977 32.4961 6.93815 31.7552 6.30733 30.4349C5.86722 29.5107 5.88189 29.2539 6.62274 24.7868C6.97483 22.711 7.31224 20.8258 7.37093 20.6058C7.87705 18.838 9.55681 17.4297 11.3979 17.2316C12.1461 17.1509 20.7503 17.1509 21.4911 17.2243Z" fill="url(#paint1_linear_402_1483)"/>
<path d="M11.1412 19.4248C10.7671 19.5422 10.3563 19.7989 10.0556 20.0923C9.47612 20.6718 9.44678 20.8038 8.75728 24.9115C8.41253 26.9801 8.13379 28.8432 8.13379 29.0486C8.13379 29.5474 8.37585 29.9728 8.79395 30.2075C9.05068 30.3469 9.17538 30.3762 9.59349 30.3469C10.3784 30.3029 10.4077 30.2662 11.4713 28.161C12.2782 26.562 12.4249 26.3126 12.6669 26.1659L12.9383 25.9971H16.4959C19.9214 25.9971 20.0608 26.0045 20.3102 26.1439C20.5302 26.2685 20.6843 26.5253 21.4471 28.029C21.9312 28.9826 22.408 29.8554 22.5107 29.9581C22.7895 30.2589 23.0462 30.3616 23.5083 30.3616C24.3078 30.3616 24.858 29.8261 24.858 29.0486C24.858 28.8359 24.5792 26.9801 24.2345 24.9115C23.765 22.1388 23.5596 21.0606 23.4349 20.7892C23.2222 20.3197 22.7674 19.8576 22.276 19.6009L21.8872 19.3955L16.6059 19.3808C13.7012 19.3735 11.2439 19.3955 11.1412 19.4248ZM13.7379 21.7721C14.3907 22.2049 14.3907 23.1144 13.7379 23.5472C13.2757 23.8479 12.5276 23.6499 12.2708 23.1584C12.0214 22.6743 12.1828 22.0508 12.6302 21.7794C12.9383 21.5887 13.4591 21.5887 13.7379 21.7721ZM20.3395 21.7721C20.6549 21.9848 20.8236 22.2856 20.8236 22.6596C20.8236 23.4665 19.9287 23.9653 19.2319 23.5399C18.3443 23.0044 18.7551 21.6327 19.7967 21.6327C19.9948 21.6327 20.2075 21.6914 20.3395 21.7721Z" fill="url(#paint2_linear_402_1483)"/>
<defs>
<linearGradient id="paint0_linear_402_1483" x1="16.4885" y1="9.4563" x2="16.4885" y2="0.50002" gradientUnits="userSpaceOnUse">
<stop stop-color="#4394F8"/>
<stop offset="1" stop-color="#54C0FE"/>
</linearGradient>
<linearGradient id="paint1_linear_402_1483" x1="16.5" y1="38.0635" x2="16.5" y2="11.6569" gradientUnits="userSpaceOnUse">
<stop stop-color="#4394F8"/>
<stop offset="1" stop-color="#54C0FE"/>
</linearGradient>
<linearGradient id="paint2_linear_402_1483" x1="16.4959" y1="30.3616" x2="16.4959" y2="19.3794" gradientUnits="userSpaceOnUse">
<stop stop-color="#4394F8"/>
<stop offset="1" stop-color="#54C0FE"/>
</linearGradient>
</defs>
</svg>
