<svg width="32" height="36" viewBox="0 0 32 36" fill="none" xmlns="http://www.w3.org/2000/svg">
<path d="M2.5 0.0633354C1.90937 0.246147 1.31875 0.752399 1.01641 1.33599L0.847656 1.6524V18.0001V34.3477L1.01641 34.6641C1.24141 35.093 1.69141 35.5501 2.11328 35.7751L2.46484 35.9649L12.9414 35.986C24.3883 36.0071 23.8891 36.0211 25.1758 35.5993C26.0336 35.318 26.5891 35.0508 27.3414 34.5446C28.9445 33.4829 30.1891 31.8305 30.7867 29.9883C31.2086 28.6876 31.1875 29.468 31.1734 14.9415L31.1523 1.6524L30.9625 1.30083C30.7375 0.87896 30.2805 0.428963 29.8516 0.20396L29.5352 0.0352097L16.1055 0.0211487C8.72266 0.0141182 2.59844 0.0352097 2.5 0.0633354ZM24.4937 5.21724C25.1828 5.49146 25.6891 6.01177 25.9562 6.7149C26.0828 7.0524 26.0898 7.34068 26.0898 12.9376C26.0898 18.5344 26.0828 18.8227 25.9562 19.1602C25.7664 19.6665 25.45 20.0743 25.0422 20.3485C24.3672 20.8055 24.8945 20.7774 16 20.7774C8.18828 20.7774 7.86484 20.7704 7.52734 20.6438C6.82422 20.3766 6.35312 19.9126 6.04375 19.1954C5.91719 18.893 5.91016 18.6188 5.88906 13.3032C5.875 10.118 5.89609 7.52349 5.93125 7.25631C5.97344 6.99615 6.07188 6.63052 6.15625 6.44771C6.47266 5.77271 7.18984 5.24537 7.94922 5.13287C8.14609 5.10474 11.8797 5.08365 16.2461 5.09068C23.5867 5.09771 24.2125 5.10474 24.4937 5.21724ZM10.5016 22.704C11.0852 23.0063 11.3875 23.4915 11.4719 24.2719L11.5211 24.736L12.0133 24.7852C12.5617 24.8344 12.9062 24.9821 13.2156 25.2844C13.8484 25.9172 13.8344 26.993 13.1805 27.6118C12.8711 27.9071 12.5406 28.0407 11.9781 28.0969L11.5211 28.1461L11.4719 28.6032C11.4156 29.1657 11.282 29.4961 10.9867 29.8055C10.1992 30.6352 8.8 30.3961 8.32891 29.3555C8.25859 29.2008 8.18125 28.8633 8.15312 28.6032L8.10391 28.1461L7.64687 28.0969C6.57812 27.9844 5.94531 27.3727 5.94531 26.4376C5.94531 25.5094 6.57812 24.8836 7.61172 24.7852L8.10391 24.736L8.15312 24.2719C8.23047 23.4985 8.53281 23.0133 9.10938 22.704C9.44687 22.5282 10.15 22.5282 10.5016 22.704ZM24.0016 23.2665C24.5992 23.5758 24.9297 24.0961 24.9297 24.7501C24.9297 25.6641 24.2406 26.3602 23.3266 26.3672C22.4055 26.3672 21.6953 25.6641 21.6953 24.7501C21.6953 24.1172 22.0539 23.5618 22.6445 23.2524C22.9469 23.0907 23.6711 23.0977 24.0016 23.2665ZM20.0641 26.6415C20.6617 26.9508 20.9922 27.4711 20.9922 28.1251C20.9922 29.0391 20.3031 29.7352 19.3891 29.7422C18.468 29.7422 17.7578 29.0391 17.7578 28.1251C17.7578 27.4922 18.1164 26.9368 18.707 26.6274C19.0094 26.4657 19.7336 26.4727 20.0641 26.6415Z" fill="url(#paint0_linear_402_1559)"/>
<path fill-rule="evenodd" clip-rule="evenodd" d="M16.5 7C16.7397 7.00001 16.9708 7.08774 17.1483 7.24608C17.3257 7.40443 17.4368 7.62203 17.4598 7.85645L17.4643 7.94741V8.26321H19.7143C19.962 8.26333 20.2001 8.35705 20.3793 8.52495C20.5585 8.69285 20.6651 8.92206 20.677 9.16508C20.6889 9.40811 20.6052 9.64631 20.4432 9.83034C20.2812 10.0144 20.0534 10.1301 19.8069 10.1536L19.7143 10.158H17.4643V12.0528H18.1072C18.8626 12.0528 19.588 12.3432 20.1285 12.8618C20.6689 13.3804 20.9814 14.0861 20.9992 14.8281C21.017 15.5701 20.7387 16.2895 20.2237 16.8325C19.7088 17.3755 18.998 17.6991 18.2434 17.7341L18.1072 17.7373H17.4643V18.0531C17.4642 18.2964 17.3688 18.5303 17.1979 18.7064C17.027 18.8825 16.7937 18.9872 16.5463 18.9989C16.299 19.0106 16.0565 18.9283 15.8692 18.7692C15.6819 18.61 15.5641 18.3862 15.5402 18.144L15.5357 18.0531V17.7373H13.2857C13.038 17.7371 12.7999 17.6434 12.6207 17.4755C12.4415 17.3076 12.3349 17.0784 12.323 16.8354C12.3111 16.5924 12.3948 16.3542 12.5568 16.1701C12.7188 15.9861 12.9466 15.8703 13.1931 15.8469L13.2857 15.8425H15.5357V13.9476H14.8928C14.1374 13.9476 13.412 13.6573 12.8715 13.1387C12.3311 12.6201 12.0186 11.9144 12.0008 11.1724C11.983 10.4304 12.2613 9.711 12.7763 9.16797C13.2912 8.62493 14.002 8.30134 14.7566 8.26637L14.8928 8.26321H15.5357V7.94741C15.5357 7.69614 15.6373 7.45516 15.8181 7.27749C15.999 7.09982 16.2443 7 16.5 7ZM18.1072 13.9476H17.4643V15.8425H18.1072C18.3629 15.8425 18.6082 15.7426 18.789 15.565C18.9699 15.3873 19.0715 15.1463 19.0715 14.895C19.0715 14.6438 18.9699 14.4028 18.789 14.2251C18.6082 14.0475 18.3629 13.9476 18.1072 13.9476ZM15.5357 10.158H14.8928C14.6371 10.158 14.3918 10.2578 14.211 10.4355C14.0301 10.6132 13.9285 10.8542 13.9285 11.1054C13.9285 11.3567 14.0301 11.5977 14.211 11.7753C14.3918 11.953 14.6371 12.0528 14.8928 12.0528H15.5357V10.158Z" fill="url(#paint1_linear_402_1559)"/>
<defs>
<linearGradient id="paint0_linear_402_1559" x1="16.0134" y1="35.9944" x2="16.0134" y2="0.0197868" gradientUnits="userSpaceOnUse">
<stop stop-color="#4394F8"/>
<stop offset="1" stop-color="#54C0FE"/>
</linearGradient>
<linearGradient id="paint1_linear_402_1559" x1="16.5" y1="7" x2="16.5" y2="19" gradientUnits="userSpaceOnUse">
<stop stop-color="#4394F8"/>
<stop offset="1" stop-color="#54C0FE"/>
</linearGradient>
</defs>
</svg>
