<svg width="22" height="22" viewBox="0 0 22 22" fill="none" xmlns="http://www.w3.org/2000/svg">
<g clip-path="url(#clip0_640_3622)">
<g filter="url(#filter0_ii_640_3622)">
<path d="M10.0653 5.14951L8.07249 6.89836C7.975 6.98392 7.95128 7.12209 8.00612 7.23964C8.15448 7.55815 8.08087 7.9541 7.80399 8.19709C7.52711 8.44008 7.12837 8.46556 6.8284 8.2732C6.77612 8.23848 6.71392 8.22179 6.65128 8.22567C6.58864 8.22955 6.52899 8.25379 6.48139 8.2947L0.854046 13.2332C0.382176 13.6473 0.335395 14.3649 0.749505 14.8368L4.26431 18.8418C4.67842 19.3137 5.39599 19.3605 5.86786 18.9464L11.4952 14.0078C11.5927 13.9223 11.6164 13.7841 11.5616 13.6666C11.4132 13.3481 11.4868 12.9521 11.7637 12.7091C12.0406 12.4661 12.4393 12.4406 12.7393 12.633C12.8487 12.7026 12.9888 12.6971 13.0863 12.6115L15.0791 10.8627C15.551 10.4485 15.5977 9.73097 15.1836 9.2591L11.6688 5.25405C11.2547 4.78218 10.5371 4.7354 10.0653 5.14951ZM11.1682 12.0305C10.8289 12.3283 10.3091 12.2944 10.0113 11.9551C9.71356 11.6158 9.74745 11.096 10.0867 10.7982C10.426 10.5005 10.9459 10.5344 11.2436 10.8736C11.5414 11.2129 11.5075 11.7328 11.1682 12.0305ZM9.48439 10.1119C9.14511 10.4096 8.62524 10.3757 8.32749 10.0364C8.02974 9.69717 8.06363 9.1773 8.40291 8.87955C8.74219 8.5818 9.26206 8.61569 9.55981 8.95497C9.85756 9.29425 9.82367 9.81412 9.48439 10.1119Z" fill="url(#paint0_linear_640_3622)"/>
</g>
<path d="M10.0653 5.14951L8.07249 6.89836C7.975 6.98392 7.95128 7.12209 8.00612 7.23964C8.15448 7.55815 8.08087 7.9541 7.80399 8.19709C7.52711 8.44008 7.12837 8.46556 6.8284 8.2732C6.77612 8.23848 6.71392 8.22179 6.65128 8.22567C6.58864 8.22955 6.52899 8.25379 6.48139 8.2947L0.854046 13.2332C0.382176 13.6473 0.335395 14.3649 0.749505 14.8368L4.26431 18.8418C4.67842 19.3137 5.39599 19.3605 5.86786 18.9464L11.4952 14.0078C11.5927 13.9223 11.6164 13.7841 11.5616 13.6666C11.4132 13.3481 11.4868 12.9521 11.7637 12.7091C12.0406 12.4661 12.4393 12.4406 12.7393 12.633C12.8487 12.7026 12.9888 12.6971 13.0863 12.6115L15.0791 10.8627C15.551 10.4485 15.5977 9.73097 15.1836 9.2591L11.6688 5.25405C11.2547 4.78218 10.5371 4.7354 10.0653 5.14951ZM11.1682 12.0305C10.8289 12.3283 10.3091 12.2944 10.0113 11.9551C9.71356 11.6158 9.74745 11.096 10.0867 10.7982C10.426 10.5005 10.9459 10.5344 11.2436 10.8736C11.5414 11.2129 11.5075 11.7328 11.1682 12.0305ZM9.48439 10.1119C9.14511 10.4096 8.62524 10.3757 8.32749 10.0364C8.02974 9.69717 8.06363 9.1773 8.40291 8.87955C8.74219 8.5818 9.26206 8.61569 9.55981 8.95497C9.85756 9.29425 9.82367 9.81412 9.48439 10.1119Z" fill="url(#paint1_linear_640_3622)"/>
<path d="M8.55378 12.9925L4.87242 16.2233C4.84374 16.2484 4.81038 16.2677 4.77425 16.28C4.73813 16.2923 4.69993 16.2973 4.66186 16.2948C4.62378 16.2923 4.58657 16.2824 4.55234 16.2655C4.51811 16.2487 4.48754 16.2252 4.46238 16.1965C4.43721 16.1679 4.41793 16.1345 4.40566 16.0984C4.39338 16.0622 4.38834 16.0241 4.39082 15.986C4.3933 15.9479 4.40326 15.9107 4.42012 15.8765C4.43699 15.8422 4.46043 15.8117 4.48911 15.7865L8.16658 12.5592C8.28747 12.4531 8.47052 12.465 8.57662 12.5859C8.60214 12.6139 8.62182 12.6468 8.63451 12.6825C8.64719 12.7182 8.65263 12.7561 8.65051 12.794C8.64838 12.8319 8.63873 12.8689 8.62213 12.903C8.60552 12.9371 8.58229 12.9675 8.55378 12.9925ZM9.31013 13.8544L5.62877 17.0851C5.57085 17.1359 5.49511 17.1617 5.41821 17.1567C5.34131 17.1517 5.26956 17.1163 5.21873 17.0584C5.1679 17.0005 5.14216 16.9247 5.14717 16.8478C5.15218 16.7709 5.18754 16.6992 5.24546 16.6483L8.92293 13.421C9.04382 13.3149 9.22687 13.3269 9.33297 13.4478C9.43954 13.5613 9.42713 13.7517 9.31013 13.8544Z" fill="#D88B4C"/>
<path d="M4.97442 12.9099L3.38722 14.3028C3.34369 14.341 3.29307 14.3703 3.23823 14.3889C3.18339 14.4076 3.12542 14.4152 3.06763 14.4115C3.00984 14.4077 2.95335 14.3926 2.9014 14.367C2.84945 14.3414 2.80304 14.3058 2.76484 14.2623C2.72664 14.2187 2.69739 14.1681 2.67875 14.1133C2.66011 14.0584 2.65246 14.0005 2.65623 13.9427C2.66 13.8849 2.67511 13.8284 2.70071 13.7764C2.72631 13.7245 2.76189 13.6781 2.80542 13.6399L4.39262 12.247C4.57591 12.0861 4.85415 12.1043 5.015 12.2875C5.17928 12.4747 5.15771 12.7491 4.97442 12.9099ZM12.6553 8.39206L11.7896 9.15183C11.6492 9.27504 11.6353 9.48738 11.7585 9.62777L12.5183 10.4935C12.6415 10.6339 12.8539 10.6477 12.9943 10.5245L13.86 9.76477C14.0004 9.64156 14.0142 9.42922 13.891 9.28883L13.1313 8.42309C13.0081 8.2827 12.7957 8.26885 12.6553 8.39206Z" fill="#D6894C"/>
</g>
<defs>
<filter id="filter0_ii_640_3622" x="0.467102" y="4.69525" width="14.9989" height="14.7054" filterUnits="userSpaceOnUse" color-interpolation-filters="sRGB">
<feFlood flood-opacity="0" result="BackgroundImageFix"/>
<feBlend mode="normal" in="SourceGraphic" in2="BackgroundImageFix" result="shape"/>
<feColorMatrix in="SourceAlpha" type="matrix" values="0 0 0 0 0 0 0 0 0 0 0 0 0 0 0 0 0 0 127 0" result="hardAlpha"/>
<feOffset dy="0.171875"/>
<feGaussianBlur stdDeviation="0.286458"/>
<feComposite in2="hardAlpha" operator="arithmetic" k2="-1" k3="1"/>
<feColorMatrix type="matrix" values="0 0 0 0 0.866667 0 0 0 0 0.745098 0 0 0 0 0.270588 0 0 0 1 0"/>
<feBlend mode="normal" in2="shape" result="effect1_innerShadow_640_3622"/>
<feColorMatrix in="SourceAlpha" type="matrix" values="0 0 0 0 0 0 0 0 0 0 0 0 0 0 0 0 0 0 127 0" result="hardAlpha"/>
<feOffset dy="-0.171875"/>
<feGaussianBlur stdDeviation="0.286458"/>
<feComposite in2="hardAlpha" operator="arithmetic" k2="-1" k3="1"/>
<feColorMatrix type="matrix" values="0 0 0 0 0.815686 0 0 0 0 0.588235 0 0 0 0 0.286275 0 0 0 1 0"/>
<feBlend mode="normal" in2="effect1_innerShadow_640_3622" result="effect2_innerShadow_640_3622"/>
</filter>
<linearGradient id="paint0_linear_640_3622" x1="14.0422" y1="8.88357" x2="4.75615" y2="17.033" gradientUnits="userSpaceOnUse">
<stop stop-color="#FFE74D"/>
<stop offset="1" stop-color="#F3C240"/>
</linearGradient>
<linearGradient id="paint1_linear_640_3622" x1="13.7145" y1="7.38052" x2="12.6487" y2="8.31586" gradientUnits="userSpaceOnUse">
<stop stop-color="#FFF250"/>
<stop offset="1" stop-color="#FFF250" stop-opacity="0"/>
</linearGradient>
<clipPath id="clip0_640_3622">
<rect width="22" height="22" fill="white"/>
</clipPath>
</defs>
</svg>
