<svg width="52" height="46" viewBox="0 0 52 46" fill="none" xmlns="http://www.w3.org/2000/svg">
<g clip-path="url(#clip0_3_15587)">
<path d="M25.6673 0H9.01076C3.32989 0 -0.948005 5.19828 0.182655 10.7619C2.55428 22.4719 8.40062 40.2005 22.3994 45.2229C24.5125 45.9813 26.8221 45.9813 28.9352 45.2229C42.934 40.2005 48.7803 22.4753 51.152 10.7619C52.2792 5.19483 48.0013 0 42.3239 0H25.6673Z" fill="#41BFFA"/>
<path d="M25.6674 44.6541C24.6815 44.6541 23.7094 44.4852 22.7822 44.1509C9.01086 39.2146 3.40927 20.9723 1.29273 10.5379C0.823924 8.22829 1.41338 5.85667 2.90944 4.02624C4.41239 2.18892 6.63579 1.13409 9.01086 1.13409H42.3274C44.7025 1.13409 46.9224 2.18892 48.4254 4.02624C49.9214 5.85322 50.5109 8.22829 50.0421 10.5379C47.929 20.9723 42.324 39.2146 28.5527 44.1543C27.6254 44.4887 26.6533 44.6576 25.6674 44.6576V44.6541Z" fill="#EAE6F7"/>
<path d="M25.6674 44.6541C24.6815 44.6541 23.7094 44.4852 22.7822 44.1509C9.01086 39.2146 3.40927 20.9723 1.29273 10.5379C0.823924 8.22829 1.41338 5.85667 2.90944 4.02624C4.41239 2.18892 6.63579 1.13409 9.01086 1.13409H42.3274C44.7025 1.13409 46.9224 2.18892 48.4254 4.02624C49.9214 5.85322 50.5109 8.22829 50.0421 10.5379C47.929 20.9723 42.324 39.2146 28.5527 44.1543C27.6254 44.4887 26.6533 44.6576 25.6674 44.6576V44.6541Z" stroke="#111D2D" stroke-width="0.320583" stroke-miterlimit="10"/>
<path d="M25.6672 43.5201C24.8123 43.5201 23.9712 43.3753 23.1646 43.0858C9.91723 38.3322 4.47076 20.5105 2.40593 10.3104C2.00606 8.3352 2.50934 6.30829 3.78823 4.74329C5.07401 3.1714 6.97682 2.26825 9.01063 2.26825H42.3272C44.3575 2.26825 46.2604 3.1714 47.5496 4.74329C48.8285 6.30829 49.3317 8.3352 48.9319 10.3104C46.867 20.5105 41.4206 38.3322 28.1732 43.0858C27.3701 43.3753 26.5255 43.5201 25.6706 43.5201H25.6672Z" fill="#D7D3E3"/>
<path d="M25.6673 42.386C24.9434 42.386 24.2299 42.2619 23.5473 42.0172C10.824 37.4532 5.53606 20.052 3.51948 10.0864C3.18856 8.44898 3.60566 6.76333 4.66738 5.46376C5.73599 4.15385 7.31822 3.40582 9.01077 3.40582H42.3273C44.0164 3.40582 45.5986 4.1573 46.6707 5.46376C47.7324 6.76333 48.1495 8.44553 47.8186 10.0864C45.7986 20.052 40.5141 37.4532 27.7873 42.0172C27.1048 42.2619 26.3947 42.386 25.6673 42.386Z" fill="#BAB7C4"/>
<path d="M25.6673 41.2519C25.0744 41.2519 24.4918 41.1519 23.9334 40.9486C11.7305 36.5707 6.6012 19.5936 4.63288 9.86232C4.36745 8.55931 4.70183 7.21837 5.54637 6.18423C6.40126 5.13975 7.66291 4.5434 9.01074 4.5434H42.3273C43.6751 4.5434 44.9368 5.1432 45.7916 6.18423C46.6362 7.21837 46.9706 8.55931 46.7051 9.86232C44.7334 19.5936 39.604 36.5742 27.4046 40.9486C26.8462 41.1485 26.2636 41.2485 25.6707 41.2485L25.6673 41.2519Z" fill="#111D2D"/>
<path d="M9.38986 39.3766C8.8004 39.3387 8.2006 39.2422 7.60424 39.0836C2.89201 37.8357 0.596221 33.3166 1.14087 26.3602C1.3477 23.7059 2.40941 14.7089 7.32502 10.3449C9.12443 8.74884 11.2134 8.04562 13.7091 8.20074C15.7912 8.32829 17.694 9.0315 19.5348 9.71403C20.593 10.107 21.5927 10.4759 22.4097 10.6413L22.6165 10.6827C23.006 10.762 23.4025 10.8137 23.7954 10.8378C24.9743 10.9102 26.1326 10.7447 27.2426 10.3483L27.4459 10.2759C28.2353 9.99325 29.1661 9.48652 30.1519 8.94877C32.6097 7.61128 35.1503 6.22554 38.2044 6.41513C39.6729 6.50475 41.0656 6.97701 42.3376 7.81122C47.8323 11.4204 50.1763 20.1726 50.7658 22.7683C52.3067 29.5764 50.6865 34.3783 46.2052 36.2914C44.9091 36.843 43.5785 37.0843 42.2479 37.0015C37.8976 36.7327 34.9193 33.2097 33.4026 30.8587L19.4934 31.8653C18.249 34.5575 15.1018 39.7282 9.38986 39.3766Z" fill="#41BFFA"/>
<path d="M9.43826 38.5837C8.9005 38.5492 8.35241 38.4596 7.80776 38.3148C3.50919 37.1773 1.42367 32.9545 1.93385 26.4188C2.13723 23.8403 3.16103 15.1018 7.85258 10.9343C9.48652 9.48302 11.3859 8.84875 13.661 8.98663C15.6293 9.10728 17.477 9.78981 19.2626 10.4517C20.3519 10.855 21.3757 11.2342 22.2581 11.41L22.465 11.4513C22.889 11.5375 23.3233 11.5927 23.7508 11.6202C25.0365 11.6995 26.3016 11.5203 27.5116 11.0859L27.715 11.0135C28.5629 10.7102 29.5213 10.1897 30.5347 9.63469C32.8925 8.34891 35.3297 7.02177 38.1563 7.19757C39.4869 7.2803 40.7451 7.70775 41.8999 8.46612C47.1464 11.9132 49.4181 20.4139 49.9903 22.9337C51.4381 29.3247 49.9834 33.806 45.8917 35.5502C44.7093 36.0535 43.4994 36.2741 42.2929 36.1983C38.115 35.9398 35.2676 32.3961 33.8164 30.021L18.9592 31.0965C17.801 33.7853 14.8675 38.9077 9.43826 38.5734V38.5837Z" fill="#EAE6F7"/>
<path d="M9.43826 38.5837C8.9005 38.5492 8.35241 38.4596 7.80776 38.3148C3.50919 37.1773 1.42367 32.9545 1.93385 26.4188C2.13723 23.8403 3.16103 15.1018 7.85258 10.9343C9.48652 9.48302 11.3859 8.84875 13.661 8.98663C15.6293 9.10728 17.477 9.78981 19.2626 10.4517C20.3519 10.855 21.3757 11.2342 22.2581 11.41L22.465 11.4513C22.889 11.5375 23.3233 11.5927 23.7508 11.6202C25.0365 11.6995 26.3016 11.5203 27.5116 11.0859L27.715 11.0135C28.5629 10.7102 29.5213 10.1897 30.5347 9.63469C32.8925 8.34891 35.3297 7.02177 38.1563 7.19757C39.4869 7.2803 40.7451 7.70775 41.8999 8.46612C47.1464 11.9132 49.4181 20.4139 49.9903 22.9337C51.4381 29.3247 49.9834 33.806 45.8917 35.5502C44.7093 36.0535 43.4994 36.2741 42.2929 36.1983C38.115 35.9398 35.2676 32.3961 33.8164 30.021L18.9592 31.0965C17.801 33.7853 14.8675 38.9077 9.43826 38.5734V38.5837Z" stroke="#111D2D" stroke-width="0.265429" stroke-miterlimit="10"/>
<path d="M9.48661 37.7944C9.00056 37.7634 8.50418 37.6841 8.01124 37.5531C4.12287 36.5259 2.24763 32.5961 2.72333 26.4878C2.91982 23.9852 3.90915 15.5087 8.38008 11.5376C9.84511 10.2346 11.5583 9.66236 13.6128 9.7899C15.4639 9.90366 17.2564 10.5655 18.9904 11.2067C20.1072 11.6203 21.162 12.0099 22.0997 12.1994L22.3099 12.2408C22.7684 12.3339 23.2372 12.3959 23.7026 12.4235C25.0952 12.5097 26.4672 12.3166 27.7805 11.8444L27.9839 11.772C28.8871 11.448 29.873 10.9102 30.9174 10.3414C33.1753 9.11082 35.5125 7.83882 38.1082 7.99739C39.2974 8.06978 40.4281 8.45241 41.4657 9.13495C46.464 12.4201 48.6633 20.6656 49.2183 23.1165C50.573 29.0904 49.2803 33.2511 45.5815 34.8264C44.5164 35.2814 43.4271 35.4779 42.3447 35.4124C38.2288 35.1574 35.4539 31.2862 34.2508 29.2007L18.4147 30.3486C17.4805 32.6858 14.7331 38.1115 9.48661 37.791V37.7944Z" fill="#D7D3E3"/>
<path d="M9.53483 37.0015C9.10049 36.9739 8.65925 36.9015 8.21457 36.7843C4.73986 35.8639 3.07145 32.2306 3.51613 26.5497C3.70573 24.1195 4.65713 15.905 8.90745 12.1304C10.207 10.9756 11.7306 10.4689 13.5645 10.5826C15.2984 10.6895 17.0358 11.3307 18.718 11.9546C19.8624 12.3786 20.9448 12.7785 21.9445 12.9784L22.1548 13.0198C22.6477 13.1197 23.151 13.1852 23.6543 13.2162C25.1538 13.3093 26.6326 13.099 28.0494 12.5923L28.2528 12.5199C29.2145 12.1752 30.228 11.6237 31.3 11.0411C33.4614 9.86562 35.6917 8.64879 38.0633 8.79357C39.1147 8.85906 40.1143 9.19688 41.0347 9.80358C45.7849 12.9267 47.9083 20.9206 48.4495 23.2957C49.7077 28.8524 48.5805 32.6891 45.2747 34.1024C44.3233 34.5092 43.3546 34.685 42.3963 34.6264C38.2736 34.3713 35.5193 29.9004 34.6989 28.3802L17.8562 29.6005C17.1909 31.4309 14.64 37.3186 9.53827 37.0049L9.53483 37.0015Z" fill="#BAB7C4"/>
<path d="M47.667 23.468C46.6984 19.1867 44.4267 12.9853 40.5935 10.462C36.488 7.76288 32.2445 11.9305 28.5182 13.2645C28.5182 13.2645 28.4424 13.2921 28.3148 13.3369C26.2913 14.0608 24.1059 14.2194 21.9997 13.7954C21.8687 13.7678 21.7894 13.754 21.7894 13.754C17.9079 12.9715 13.1095 9.45887 9.43831 12.7233C6.00497 15.7706 4.6537 22.2374 4.31243 26.6118C4.047 30.0003 4.43997 34.9642 8.42141 36.0156C14.5987 37.6495 17.2736 28.8421 17.2736 28.8421L26.219 28.194L35.1643 27.546C35.1643 27.546 39.0802 35.8777 44.9576 33.3682C48.746 31.7515 48.4185 26.7842 47.667 23.468Z" fill="#EAE6F7"/>
<mask id="mask0_3_15587" style="mask-type:luminance" maskUnits="userSpaceOnUse" x="4" y="9" width="45" height="28">
<path d="M47.667 23.468C46.6984 19.1867 44.4267 12.9853 40.5935 10.462C36.488 7.76288 32.2445 11.9305 28.5182 13.2645C28.5182 13.2645 28.4975 13.2714 28.4596 13.2852C26.3431 14.0436 24.0542 14.209 21.8514 13.7643C21.8101 13.7574 21.7894 13.7506 21.7894 13.7506C17.9114 12.9681 13.1095 9.45543 9.43831 12.7199C6.00497 15.7671 4.6537 22.2339 4.31243 26.6084C4.047 29.9969 4.43997 34.9608 8.42141 36.0121C14.5987 37.6461 17.2736 28.8387 17.2736 28.8387L26.219 28.1906L35.1643 27.5425C35.1643 27.5425 39.0802 35.8743 44.9576 33.3647C48.746 31.748 48.4185 26.7807 47.667 23.4646V23.468Z" fill="white"/>
</mask>
<g mask="url(#mask0_3_15587)">
<path d="M44.8785 11.3618C44.8785 11.3618 36.6984 25.8708 0.517303 28.208C0.517303 28.208 2.77518 45.6539 17.0463 38.7976C31.3174 31.9412 27.7979 32.3376 38.4151 35.8296C49.0322 39.3215 52.045 33.8475 52.0002 27.3186C51.952 20.7897 50.873 9.79339 44.8785 11.3618Z" fill="#D7D3E3"/>
</g>
<path d="M23.1682 24.3058C23.2889 25.9673 22.041 27.4116 20.3795 27.5323C18.718 27.6529 17.2736 26.4051 17.153 24.7435C17.0323 23.082 18.2802 21.6377 19.9417 21.517C21.6032 21.3964 23.0476 22.6442 23.1682 24.3058Z" fill="#3AABE0"/>
<path d="M22.3096 24.3676C22.3958 25.5535 21.503 26.5876 20.3172 26.6703C19.1314 26.7565 18.0972 25.8637 18.0145 24.6779C17.9283 23.4921 18.8211 22.4579 20.007 22.3752C21.1928 22.2925 22.2269 23.1818 22.3096 24.3676Z" fill="#41BFFA"/>
<path d="M18.5038 24.902C18.4728 24.671 18.5038 24.4366 18.5624 24.2091C18.621 23.9816 18.7279 23.7644 18.8692 23.5714C19.0105 23.3818 19.1863 23.2094 19.3897 23.0922C19.5897 22.9647 19.8137 22.8888 20.0412 22.8475C19.8379 22.9612 19.6379 23.0612 19.4656 23.2025C19.2898 23.337 19.1346 23.4955 19.0071 23.6713C18.7451 24.0229 18.5865 24.4469 18.5038 24.902Z" fill="#EAE6F7"/>
<path d="M34.599 23.4785C34.7196 25.14 33.4718 26.5844 31.8103 26.705C30.1487 26.8257 28.7044 25.5778 28.5837 23.9163C28.4631 22.2548 29.711 20.8104 31.3725 20.6898C33.034 20.5691 34.4783 21.817 34.599 23.4785Z" fill="#3AABE0"/>
<path d="M32.2459 25.748C33.379 25.3849 34.0032 24.1719 33.64 23.0388C33.2769 21.9057 32.0639 21.2816 30.9308 21.6447C29.7977 22.0079 29.1735 23.2208 29.5367 24.3539C29.8998 25.487 31.1128 26.1112 32.2459 25.748Z" fill="#41BFFA"/>
<path d="M29.9347 24.0748C29.9037 23.8438 29.9347 23.6094 29.9933 23.3819C30.0519 23.1544 30.1588 22.9372 30.3001 22.7442C30.4414 22.5546 30.6172 22.3822 30.8206 22.265C31.0205 22.1375 31.2446 22.0616 31.4721 22.0203C31.2687 22.134 31.0688 22.234 30.8964 22.3753C30.7206 22.5098 30.5655 22.6683 30.438 22.8476C30.176 23.1992 30.0174 23.6232 29.9347 24.0782V24.0748Z" fill="#EAE6F7"/>
<path d="M24.1132 18.6527L22.4517 18.7733C22.2104 18.7906 21.9967 18.6389 21.9277 18.4183C21.9208 18.4562 21.9174 18.4976 21.9208 18.5389L21.9277 18.6527C21.9484 18.9354 22.1931 19.1491 22.4758 19.1284L24.1373 19.0078C24.42 18.9871 24.6337 18.7423 24.613 18.4597L24.6061 18.3459C24.6061 18.3045 24.5923 18.2666 24.582 18.2287C24.5441 18.4562 24.3545 18.6389 24.1132 18.6561V18.6527Z" fill="#C9904F"/>
<path d="M24.0544 17.8702L22.3929 17.9908C22.1516 18.0081 21.962 18.1908 21.924 18.4183C21.993 18.6389 22.2067 18.7906 22.448 18.7733L24.1095 18.6527C24.3508 18.6354 24.5404 18.4527 24.5783 18.2252C24.5094 18.0046 24.2957 17.8529 24.0544 17.8702Z" fill="#E6A45A"/>
<path d="M22.2792 18.1839C22.8928 18.0908 23.5132 18.046 24.1337 18.0494C23.5201 18.1425 22.8997 18.1873 22.2792 18.1839Z" fill="#EAE6F7"/>
<path d="M28.5873 18.3287L26.9258 18.4494C26.6845 18.4666 26.4708 18.3149 26.4018 18.0943C26.3949 18.1322 26.3915 18.1736 26.3949 18.215L26.4018 18.3287C26.4225 18.6114 26.6673 18.8251 26.9499 18.8044L28.6114 18.6838C28.8941 18.6631 29.1078 18.4183 29.0871 18.1357L29.0803 18.0219C29.0803 17.9806 29.0665 17.9426 29.0561 17.9047C29.0182 18.1322 28.8286 18.3149 28.5873 18.3322V18.3287Z" fill="#C9904F"/>
<path d="M28.5291 17.5461L26.8676 17.6668C26.6263 17.684 26.4367 17.8667 26.3988 18.0942C26.4677 18.3148 26.6815 18.4665 26.9228 18.4493L28.5843 18.3286C28.8256 18.3114 29.0152 18.1287 29.0531 17.9012C28.9842 17.6806 28.7704 17.5289 28.5291 17.5461Z" fill="#E6A45A"/>
<path d="M26.7537 17.8599C27.3673 17.7668 27.9878 17.722 28.6082 17.7255C27.9947 17.8185 27.3742 17.8634 26.7537 17.8599Z" fill="#EAE6F7"/>
<path d="M12.2526 15.4328L11.5547 15.4833C11.1426 15.5131 10.8328 15.8713 10.8626 16.2834L10.9131 16.9813C10.9429 17.3934 11.3011 17.7032 11.7132 17.6734L12.4111 17.6229C12.8232 17.593 13.133 17.2348 13.1032 16.8228L13.0527 16.1248C13.0229 15.7128 12.6647 15.4029 12.2526 15.4328Z" fill="#C9904F"/>
<path d="M12.7676 16.1042L12.8234 16.8743C12.8405 17.1116 12.6617 17.3146 12.4279 17.3315L11.6577 17.3873C11.4205 17.4044 11.2175 17.2256 11.2006 16.9918L11.1448 16.2216C11.1276 15.9844 11.3065 15.7814 11.5403 15.7645L12.3104 15.7087C12.5477 15.6915 12.7507 15.8704 12.7676 16.1042Z" fill="#E6A45A"/>
<path d="M11.4344 17.0358C11.362 16.7083 11.3379 16.3808 11.362 16.0464C11.4344 16.3739 11.4585 16.7014 11.4344 17.0358Z" fill="#EAE6F7"/>
<path d="M12.5992 20.8709L11.9012 20.9215C11.4892 20.9513 11.1793 21.3095 11.2092 21.7215L11.2597 22.4195C11.2895 22.8315 11.6477 23.1414 12.0598 23.1116L12.7577 23.061C13.1697 23.0312 13.4796 22.673 13.4498 22.261L13.3992 21.563C13.3694 21.151 13.0112 20.8411 12.5992 20.8709Z" fill="#C9904F"/>
<path d="M13.1169 21.5461L13.1726 22.3162C13.1898 22.5535 13.0109 22.7565 12.7771 22.7734L12.007 22.8292C11.7698 22.8463 11.5667 22.6675 11.5498 22.4337L11.4941 21.6635C11.4769 21.4263 11.6557 21.2233 11.8895 21.2064L12.6597 21.1506C12.8969 21.1334 13.0999 21.3123 13.1169 21.5461Z" fill="#E6A45A"/>
<path d="M11.7825 22.4753C11.7101 22.1478 11.686 21.8203 11.7101 21.486C11.7825 21.8134 11.8066 22.1409 11.7825 22.4753Z" fill="#EAE6F7"/>
<path d="M12.4046 18.1695L11.7548 18.2165C11.375 18.244 11.0894 18.5742 11.1169 18.9539L11.1639 19.6037C11.1914 19.9835 11.5216 20.2691 11.9013 20.2416L12.5512 20.1946C12.9309 20.1671 13.2165 19.8369 13.189 19.4572L13.142 18.8073C13.1145 18.4276 12.7843 18.142 12.4046 18.1695Z" fill="#3AABE0"/>
<path d="M12.8809 18.7986L12.9325 19.5103C12.9482 19.7269 12.7858 19.9184 12.5658 19.9344L11.8541 19.986C11.6375 20.0017 11.446 19.8394 11.4301 19.6193L11.3784 18.9077C11.3627 18.6911 11.5251 18.4996 11.7451 18.4836L12.4568 18.4319C12.6734 18.4162 12.8649 18.5786 12.8809 18.7986Z" fill="#41BFFA"/>
<path d="M11.6442 19.652C11.5787 19.3521 11.5546 19.0453 11.5787 18.7385C11.6442 19.0384 11.6684 19.3452 11.6442 19.652Z" fill="#EAE6F7"/>
<path d="M13.7714 18.4456C13.7611 18.3042 13.83 18.1663 13.9506 18.0871C14.0713 18.0078 14.223 18.0009 14.3505 18.0629L15.7328 18.7627C15.8604 18.8282 15.9431 18.9523 15.95 19.0936C15.9603 19.235 15.8948 19.3694 15.7742 19.4487L14.4918 20.3208C14.3746 20.4001 14.2195 20.4104 14.092 20.3484C13.9644 20.2863 13.8783 20.1588 13.8679 20.014L13.7679 18.4421L13.7714 18.4456Z" fill="#C9904F"/>
<path d="M14.0126 18.4317L14.1126 20.0036C14.1195 20.1243 14.2574 20.1932 14.3574 20.1243L15.6397 19.2521C15.7397 19.1832 15.7293 19.035 15.6225 18.9798L14.2402 18.28C14.1298 18.2249 14.0023 18.3076 14.0126 18.4317Z" fill="#E6A45A"/>
<path d="M15.4189 18.9556C15.2362 18.8936 15.0638 18.8039 14.8846 18.7316C14.7157 18.6385 14.5364 18.5626 14.3744 18.4592C14.5571 18.5213 14.7295 18.6109 14.9087 18.6833C15.0776 18.7764 15.2569 18.8522 15.4189 18.9556Z" fill="#EAE6F7"/>
<path d="M10.3103 20.1692C10.3207 20.3106 10.2517 20.4485 10.1311 20.5277C10.0104 20.607 9.85876 20.6139 9.73121 20.5519L8.34891 19.8521C8.22137 19.7866 8.13864 19.6625 8.13174 19.5212C8.12485 19.3798 8.1869 19.2454 8.30755 19.1661L9.58988 18.294C9.70708 18.2147 9.8622 18.2044 9.98975 18.2664C10.1173 18.3285 10.2035 18.456 10.2138 18.6008L10.3138 20.1727L10.3103 20.1692Z" fill="#C9904F"/>
<path d="M10.069 20.1864L9.96899 18.6145C9.96209 18.4938 9.82421 18.4249 9.72424 18.4938L8.44191 19.3659C8.34194 19.4349 8.35228 19.5831 8.45914 19.6383L9.84144 20.338C9.95175 20.3932 10.0793 20.3105 10.069 20.1864Z" fill="#E6A45A"/>
<path d="M8.66232 19.6625C8.84502 19.7245 9.01738 19.8141 9.19663 19.8865C9.36554 19.9796 9.54479 20.0554 9.7068 20.1589C9.52411 20.0968 9.35175 20.0072 9.1725 19.9348C9.00359 19.8417 8.82434 19.7659 8.66232 19.6625Z" fill="#EAE6F7"/>
<path d="M38.5639 13.7359L37.8724 13.8434C37.4642 13.9068 37.1847 14.2891 37.2481 14.6974L37.3555 15.3888C37.4189 15.7971 37.8013 16.0766 38.2095 16.0132L38.901 15.9057C39.3092 15.8423 39.5887 15.46 39.5253 15.0518L39.4179 14.3603C39.3545 13.9521 38.9721 13.6725 38.5639 13.7359Z" fill="#C9904F"/>
<path d="M39.1266 14.3659L39.2452 15.1289C39.2817 15.364 39.12 15.5809 38.8884 15.6169L38.1254 15.7354C37.8904 15.772 37.6734 15.6103 37.6374 15.3787L37.5189 14.6157C37.4824 14.3806 37.644 14.1637 37.8757 14.1277L38.6387 14.0092C38.8737 13.9726 39.0907 14.1343 39.1266 14.3659Z" fill="#E6A45A"/>
<path d="M37.8774 15.4019C37.7809 15.0813 37.7292 14.7573 37.7257 14.4229C37.8222 14.7435 37.8739 15.0675 37.8774 15.4019Z" fill="#EAE6F7"/>
<path d="M39.3516 19.1318L38.6601 19.2392C38.2519 19.3026 37.9723 19.6849 38.0358 20.0932L38.1432 20.7846C38.2066 21.1929 38.5889 21.4724 38.9972 21.409L39.6886 21.3016C40.0969 21.2381 40.3764 20.8558 40.313 20.4476L40.2056 19.7561C40.1421 19.3479 39.7598 19.0683 39.3516 19.1318Z" fill="#C9904F"/>
<path d="M39.922 19.762L40.0405 20.525C40.077 20.76 39.9154 20.977 39.6838 21.013L38.9208 21.1315C38.6857 21.168 38.4687 21.0064 38.4328 20.7747L38.3142 20.0117C38.2777 19.7767 38.4394 19.5597 38.671 19.5237L39.434 19.4052C39.669 19.3687 39.886 19.5304 39.922 19.762Z" fill="#E6A45A"/>
<path d="M38.6662 20.7966C38.5697 20.476 38.518 20.1519 38.5145 19.8176C38.611 20.1381 38.6628 20.4622 38.6662 20.7966Z" fill="#EAE6F7"/>
<path d="M38.9388 16.454L38.2951 16.554C37.9188 16.6125 37.6612 16.9649 37.7196 17.3411L37.8196 17.9849C37.8781 18.3611 38.2305 18.6188 38.6067 18.5603L39.2505 18.4603C39.6268 18.4019 39.8844 18.0495 39.8259 17.6732L39.7259 17.0294C39.6675 16.6532 39.3151 16.3956 38.9388 16.454Z" fill="#3AABE0"/>
<path d="M39.4597 17.0356L39.5692 17.7407C39.6026 17.9553 39.4564 18.1594 39.2383 18.1933L38.5332 18.3028C38.3187 18.3361 38.1145 18.1899 38.0807 17.9719L37.9711 17.2668C37.9378 17.0522 38.084 16.8481 38.302 16.8142L39.0071 16.7047C39.2217 16.6714 39.4258 16.8176 39.4597 17.0356Z" fill="#41BFFA"/>
<path d="M38.3014 17.9941C38.2118 17.6976 38.1635 17.3977 38.1601 17.0875C38.2497 17.3839 38.298 17.6838 38.3014 17.9941Z" fill="#EAE6F7"/>
<path d="M40.3212 16.6152C40.3005 16.4739 40.3556 16.3326 40.4694 16.2429C40.5832 16.1533 40.7348 16.1326 40.8658 16.1878L42.3033 16.7738C42.4343 16.8289 42.5273 16.9427 42.548 17.084C42.5687 17.2254 42.5135 17.3632 42.4032 17.4529L41.1967 18.425C41.0864 18.5146 40.9348 18.5387 40.8003 18.487C40.6659 18.4353 40.5728 18.3147 40.5521 18.1733L40.3246 16.6152H40.3212Z" fill="#C9904F"/>
<path d="M40.5589 16.5809L40.7864 18.139C40.8036 18.2596 40.9449 18.3148 41.0414 18.2389L42.2479 17.2669C42.341 17.191 42.3203 17.0428 42.21 16.998L40.7726 16.412C40.6588 16.3671 40.5382 16.4602 40.5589 16.5809Z" fill="#E6A45A"/>
<path d="M42.0067 16.991C41.8171 16.9427 41.6413 16.8703 41.4552 16.8117C41.2794 16.7359 41.0967 16.6704 40.9243 16.5807C41.1139 16.629 41.2897 16.7014 41.4759 16.76C41.6517 16.8358 41.8344 16.9013 42.0067 16.991Z" fill="#EAE6F7"/>
<path d="M37.0117 18.6181C37.0324 18.7594 36.9772 18.9007 36.8635 18.9904C36.7497 19.08 36.5981 19.1007 36.4671 19.0455L35.0296 18.4595C34.8986 18.4044 34.8055 18.2906 34.7849 18.1493C34.7642 18.0079 34.8193 17.8701 34.9296 17.7804L36.1361 16.8083C36.2464 16.7187 36.3981 16.6946 36.5326 16.7463C36.667 16.798 36.7601 16.9186 36.7808 17.06L37.0083 18.6181H37.0117Z" fill="#C9904F"/>
<path d="M36.7738 18.6528L36.5463 17.0946C36.529 16.974 36.3877 16.9188 36.2912 16.9947L35.0847 17.9668C34.9916 18.0426 35.0123 18.1908 35.1226 18.2357L36.56 18.8217C36.6738 18.8665 36.7944 18.7734 36.7738 18.6528Z" fill="#E6A45A"/>
<path d="M35.3293 18.2458C35.5189 18.2941 35.6947 18.3665 35.8809 18.4251C36.0567 18.5009 36.2394 18.5664 36.4117 18.6561C36.2222 18.6078 36.0463 18.5354 35.8602 18.4768C35.6844 18.401 35.5017 18.3355 35.3293 18.2458Z" fill="#EAE6F7"/>
</g>
<defs>
<clipPath id="clip0_3_15587">
<rect width="52" height="45.7917" fill="white"/>
</clipPath>
</defs>
</svg>
