<svg width="21" height="21" viewBox="0 0 21 21" fill="none" xmlns="http://www.w3.org/2000/svg">
<path d="M16.625 5.25H15.2372L14.3622 4.375C13.8556 3.86838 12.9666 3.5 12.25 3.5H8.75C8.03337 3.5 7.14437 3.86838 6.63775 4.375L5.76275 5.25H4.375C2.92775 5.25 1.75 6.42775 1.75 7.875V14.875C1.75 16.3223 2.92775 17.5 4.375 17.5H16.625C18.0723 17.5 19.25 16.3223 19.25 14.875V7.875C19.25 6.42775 18.0723 5.25 16.625 5.25ZM10.5 14C9.68766 13.9999 8.90863 13.6771 8.3343 13.1026C7.75997 12.5281 7.43738 11.749 7.4375 10.9366C7.43762 10.1243 7.76043 9.34526 8.33492 8.77093C8.90942 8.1966 9.68853 7.87401 10.5009 7.87412C11.3132 7.87424 12.0922 8.19705 12.6666 8.77155C13.2409 9.34604 13.5635 10.1252 13.5634 10.9375C13.5633 11.7498 13.2404 12.5289 12.666 13.1032C12.0915 13.6775 11.3123 14.0001 10.5 14ZM15.75 9.88662C15.6006 9.88662 15.4527 9.8572 15.3147 9.80004C15.1767 9.74287 15.0513 9.65909 14.9457 9.55346C14.84 9.44783 14.7563 9.32244 14.6991 9.18443C14.6419 9.04642 14.6125 8.8985 14.6125 8.74912C14.6125 8.59975 14.6419 8.45183 14.6991 8.31382C14.7563 8.17581 14.84 8.05042 14.9457 7.94479C15.0513 7.83916 15.1767 7.75538 15.3147 7.69821C15.4527 7.64105 15.6006 7.61163 15.75 7.61163C16.0517 7.61163 16.341 7.73147 16.5543 7.94479C16.7677 8.15811 16.8875 8.44744 16.8875 8.74912C16.8875 9.05081 16.7677 9.34014 16.5543 9.55346C16.341 9.76678 16.0517 9.88662 15.75 9.88662Z" fill="white"/>
</svg>
