<svg width="16" height="16" viewBox="0 0 16 16" fill="none" xmlns="http://www.w3.org/2000/svg">
<path d="M12.3599 6.0001L5.9199 2.30677C5.57142 2.10554 5.1759 2.00012 4.77349 2.00123C4.37109 2.00233 3.97615 2.10992 3.62878 2.31306C3.28142 2.5162 2.994 2.80765 2.79573 3.15782C2.59746 3.50798 2.49539 3.90439 2.4999 4.30677V11.7201C2.4999 12.3248 2.74011 12.9047 3.1677 13.3323C3.59528 13.7599 4.17521 14.0001 4.7799 14.0001C5.18019 13.9994 5.57329 13.8937 5.9199 13.6934L12.3599 10.0001C12.7059 9.79983 12.9932 9.51208 13.193 9.16572C13.3927 8.81937 13.4978 8.42658 13.4978 8.02677C13.4978 7.62695 13.3927 7.23416 13.193 6.88781C12.9932 6.54145 12.7059 6.25371 12.3599 6.05343V6.0001ZM11.6932 8.79343L5.25323 12.5401C5.10889 12.6219 4.94581 12.6649 4.7799 12.6649C4.61399 12.6649 4.45091 12.6219 4.30657 12.5401C4.16263 12.457 4.04311 12.3375 3.96002 12.1935C3.87693 12.0496 3.8332 11.8863 3.83323 11.7201V4.2801C3.8332 4.1139 3.87693 3.95062 3.96002 3.80667C4.04311 3.66273 4.16263 3.5432 4.30657 3.4601C4.4515 3.37954 4.6141 3.33603 4.7799 3.33343C4.94559 3.33683 5.10799 3.38029 5.25323 3.4601L11.6932 7.1801C11.8372 7.26316 11.9568 7.38268 12.0399 7.52662C12.1231 7.67057 12.1668 7.83387 12.1668 8.0001C12.1668 8.16633 12.1231 8.32963 12.0399 8.47357C11.9568 8.61752 11.8372 8.73703 11.6932 8.8201V8.79343Z" fill="white"/>
</svg>
