<svg width="12" height="10" viewBox="0 0 12 10" fill="none" xmlns="http://www.w3.org/2000/svg">
<path d="M7.04991 1.08472C7.04991 1.37215 6.93819 1.63356 6.75543 1.82771L8.17851 3.60657C8.19785 3.63084 8.22493 3.64775 8.25523 3.65446C8.28554 3.66117 8.31722 3.65728 8.34501 3.64345L9.78219 2.92431C9.75114 2.76697 9.75529 2.6047 9.79436 2.44915C9.83342 2.2936 9.90643 2.14863 10.0081 2.02463C10.1098 1.90062 10.2377 1.80067 10.3826 1.73193C10.5275 1.66319 10.6859 1.62738 10.8462 1.62705C11.1129 1.6271 11.3702 1.72538 11.569 1.90311C11.7678 2.08084 11.8941 2.32557 11.9239 2.59056C11.9537 2.85554 11.8848 3.12222 11.7305 3.33964C11.5761 3.55707 11.347 3.71001 11.087 3.76927L10.1087 8.98814C10.0678 9.20566 9.95223 9.40207 9.7819 9.54339C9.61156 9.68471 9.39719 9.76206 9.17586 9.76205H2.75463C2.53331 9.76206 2.31893 9.68471 2.1486 9.54339C1.97826 9.40207 1.86267 9.20566 1.82182 8.98814L0.843451 3.76927C0.635513 3.72184 0.446173 3.61416 0.299107 3.45969C0.152042 3.30523 0.0537779 3.11083 0.0166037 2.90082C-0.0205704 2.6908 0.00499506 2.47449 0.0901031 2.27893C0.175211 2.08337 0.316085 1.91724 0.495107 1.80131C0.674129 1.68539 0.883355 1.62481 1.09662 1.62716C1.30989 1.62951 1.51773 1.69468 1.69415 1.81453C1.87057 1.93437 2.00775 2.10356 2.08853 2.30095C2.16931 2.49834 2.1901 2.71517 2.1483 2.92431L3.58549 3.64345C3.61327 3.65728 3.64496 3.66117 3.67526 3.65446C3.70556 3.64775 3.73265 3.63084 3.75198 3.60657L5.17507 1.82771C5.05384 1.69879 4.96599 1.54217 4.91919 1.3715C4.8724 1.20083 4.86807 1.02131 4.90658 0.848585C4.9451 0.675861 5.02529 0.515185 5.14017 0.380571C5.25505 0.245957 5.40111 0.141495 5.56563 0.076297C5.73015 0.0110986 5.90812 -0.0128557 6.08403 0.00652349C6.25993 0.0259027 6.42842 0.0880268 6.5748 0.187477C6.72118 0.286927 6.841 0.420682 6.92381 0.577075C7.00663 0.733469 7.04992 0.90775 7.04991 1.08472ZM5.96525 7.59272C6.25292 7.59272 6.52881 7.47844 6.73222 7.27502C6.93564 7.07161 7.04991 6.79572 7.04991 6.50805C7.04991 6.22038 6.93564 5.94449 6.73222 5.74108C6.52881 5.53766 6.25292 5.42338 5.96525 5.42338C5.67758 5.42338 5.40169 5.53766 5.19827 5.74108C4.99486 5.94449 4.88058 6.22038 4.88058 6.50805C4.88058 6.79572 4.99486 7.07161 5.19827 7.27502C5.40169 7.47844 5.67758 7.59272 5.96525 7.59272Z" fill="black"/>
</svg>
