<svg width="37" height="30" viewBox="0 0 37 30" fill="none" xmlns="http://www.w3.org/2000/svg">
<mask id="path-1-outside-1_1261_128" maskUnits="userSpaceOnUse" x="-0.6875" y="-0.0625" width="38" height="30" fill="black">
<rect fill="white" x="-0.6875" y="-0.0625" width="38" height="30"/>
<path fill-rule="evenodd" clip-rule="evenodd" d="M2.3125 5.25C2.3125 3.97284 3.34784 2.9375 4.625 2.9375H32.375C33.6522 2.9375 34.6875 3.97284 34.6875 5.25V24.9062C34.6875 26.1834 33.6522 27.2188 32.375 27.2188H4.625C3.34784 27.2188 2.3125 26.1834 2.3125 24.9062V5.25ZM8.38281 4.96094H4.33594V9.00781L8.38281 4.96094ZM32.6641 4.96094H28.6172L32.6641 9.00781V4.96094ZM8.38281 25.1953H4.33594V21.1484L8.38281 25.1953ZM32.6641 25.1953H28.6172L32.6641 21.1484V25.1953Z"/>
</mask>
<path d="M4.33594 4.96094V2.64844H2.02344V4.96094H4.33594ZM8.38281 4.96094L10.018 6.59612L13.9657 2.64844H8.38281V4.96094ZM4.33594 9.00781H2.02344V14.5907L5.97112 10.643L4.33594 9.00781ZM28.6172 4.96094V2.64844H23.0343L26.982 6.59612L28.6172 4.96094ZM32.6641 4.96094H34.9766V2.64844H32.6641V4.96094ZM32.6641 9.00781L31.0289 10.643L34.9766 14.5907V9.00781H32.6641ZM4.33594 25.1953H2.02344V27.5078H4.33594V25.1953ZM8.38281 25.1953V27.5078H13.9657L10.018 23.5601L8.38281 25.1953ZM4.33594 21.1484L5.97112 19.5133L2.02344 15.5656V21.1484H4.33594ZM28.6172 25.1953L26.982 23.5601L23.0343 27.5078H28.6172V25.1953ZM32.6641 25.1953V27.5078H34.9766V25.1953H32.6641ZM32.6641 21.1484H34.9766V15.5656L31.0289 19.5133L32.6641 21.1484ZM4.625 0.625C2.07068 0.625 0 2.69568 0 5.25H4.625V5.25V0.625ZM32.375 0.625H4.625V5.25H32.375V0.625ZM37 5.25C37 2.69568 34.9293 0.625 32.375 0.625V5.25H37ZM37 24.9062V5.25H32.375V24.9062H37ZM32.375 29.5312C34.9293 29.5312 37 27.4606 37 24.9062H32.375V29.5312ZM4.625 29.5312H32.375V24.9062H4.625V29.5312ZM0 24.9062C0 27.4606 2.07069 29.5312 4.625 29.5312V24.9062H4.625H0ZM0 5.25V24.9062H4.625V5.25H0ZM4.33594 7.27344H8.38281V2.64844H4.33594V7.27344ZM6.64844 9.00781V4.96094H2.02344V9.00781H6.64844ZM6.74763 3.32575L2.70075 7.37263L5.97112 10.643L10.018 6.59612L6.74763 3.32575ZM28.6172 7.27344H32.6641V2.64844H28.6172V7.27344ZM34.2992 7.37263L30.2524 3.32575L26.982 6.59612L31.0289 10.643L34.2992 7.37263ZM30.3516 4.96094V9.00781H34.9766V4.96094H30.3516ZM4.33594 27.5078H8.38281V22.8828H4.33594V27.5078ZM2.02344 21.1484V25.1953H6.64844V21.1484H2.02344ZM10.018 23.5601L5.97112 19.5133L2.70075 22.7836L6.74763 26.8305L10.018 23.5601ZM28.6172 27.5078H32.6641V22.8828H28.6172V27.5078ZM31.0289 19.5133L26.982 23.5601L30.2524 26.8305L34.2992 22.7836L31.0289 19.5133ZM34.9766 25.1953V21.1484H30.3516V25.1953H34.9766Z" fill="#13A199" mask="url(#path-1-outside-1_1261_128)"/>
<g clip-path="url(#clip0_1261_128)">
<mask id="mask0_1261_128" style="mask-type:luminance" maskUnits="userSpaceOnUse" x="11" y="7" width="17" height="17">
<path d="M11.0671 7.5625H27.2546V23.75H11.0671V7.5625Z" fill="white"/>
</mask>
<g mask="url(#mask0_1261_128)">
<path d="M17.1375 13.6328C17.1375 13.2751 17.2796 12.932 17.5326 12.679C17.7855 12.426 18.1286 12.2839 18.4864 12.2839V14.9818C18.1286 14.9818 17.7855 14.8397 17.5326 14.5867C17.2796 14.3337 17.1375 13.9906 17.1375 13.6328ZM21.1843 17.6797C21.1843 18.0375 21.0422 18.3806 20.7892 18.6336C20.5362 18.8865 20.1931 19.0287 19.8354 19.0287V16.3307C20.1931 16.3307 20.5362 16.4729 20.7892 16.7259C21.0422 16.9788 21.1843 17.3219 21.1843 17.6797Z" fill="#13A199"/>
<path fill-rule="evenodd" clip-rule="evenodd" d="M27.2546 7.5625H11.0671V23.75H27.2546V7.5625ZM19.1609 9.58594C19.3398 9.58594 19.5113 9.657 19.6378 9.78349C19.7643 9.90998 19.8354 10.0815 19.8354 10.2604V10.9349C20.3934 10.935 20.9376 11.108 21.3932 11.4301C21.8488 11.7522 22.1934 12.2077 22.3795 12.7337C22.4353 12.9014 22.4231 13.0844 22.3454 13.2431C22.2677 13.4019 22.1308 13.5238 21.9642 13.5827C21.7975 13.6416 21.6144 13.6327 21.4542 13.5579C21.2941 13.4831 21.1697 13.3485 21.1078 13.1829C21.0146 12.9199 20.8423 12.6923 20.6144 12.5313C20.3865 12.3702 20.1144 12.2838 19.8354 12.2839V14.9818C20.5509 14.9818 21.2371 15.266 21.7431 15.772C22.249 16.2779 22.5333 16.9642 22.5333 17.6797C22.5333 18.3952 22.249 19.0814 21.7431 19.5874C21.2371 20.0934 20.5509 20.3776 19.8354 20.3776V21.0521C19.8354 21.231 19.7643 21.4025 19.6378 21.529C19.5113 21.6555 19.3398 21.7266 19.1609 21.7266C18.982 21.7266 18.8104 21.6555 18.684 21.529C18.5575 21.4025 18.4864 21.231 18.4864 21.0521V20.3776C17.9284 20.3775 17.3842 20.2045 16.9285 19.8824C16.4729 19.5603 16.1284 19.1048 15.9423 18.5788C15.8865 18.4111 15.8987 18.2281 15.9764 18.0694C16.0541 17.9106 16.1909 17.7887 16.3576 17.7298C16.5243 17.6709 16.7074 17.6798 16.8675 17.7546C17.0277 17.8294 17.1521 17.964 17.214 18.1296C17.3071 18.3926 17.4795 18.6202 17.7074 18.7812C17.9352 18.9423 18.2074 19.0287 18.4864 19.0286V16.3307C17.7709 16.3307 17.0847 16.0465 16.5787 15.5405C16.0727 15.0346 15.7885 14.3483 15.7885 13.6328C15.7885 12.9173 16.0727 12.2311 16.5787 11.7251C17.0847 11.2191 17.7709 10.9349 18.4864 10.9349V10.2604C18.4864 10.0815 18.5575 9.90998 18.684 9.78349C18.8104 9.657 18.982 9.58594 19.1609 9.58594Z" fill="#13A199"/>
</g>
</g>
<defs>
<clipPath id="clip0_1261_128">
<rect width="16.1875" height="16.1875" fill="white" transform="translate(11.0671 7.5625)"/>
</clipPath>
</defs>
</svg>
