<svg width="12" height="10" viewBox="0 0 12 10" fill="none" xmlns="http://www.w3.org/2000/svg">
<path d="M6.21027 1.08472C6.21027 1.37215 6.09855 1.63356 5.91579 1.82771L7.33887 3.60657C7.35821 3.63084 7.38529 3.64775 7.4156 3.65446C7.4459 3.66117 7.47759 3.65728 7.50537 3.64345L8.94255 2.92431C8.9115 2.76697 8.91565 2.6047 8.95472 2.44915C8.99378 2.2936 9.06679 2.14863 9.1685 2.02463C9.27021 1.90062 9.39811 1.80067 9.54301 1.73193C9.68791 1.66319 9.84623 1.62738 10.0066 1.62705C10.2733 1.6271 10.5306 1.72538 10.7293 1.90311C10.9281 2.08084 11.0545 2.32557 11.0843 2.59056C11.1141 2.85554 11.0452 3.12222 10.8908 3.33964C10.7364 3.55707 10.5074 3.71001 10.2474 3.76927L9.26903 8.98814C9.22818 9.20566 9.11259 9.40207 8.94226 9.54339C8.77192 9.68471 8.55755 9.76206 8.33622 9.76205H1.91499C1.69366 9.76206 1.47929 9.68471 1.30896 9.54339C1.13862 9.40207 0.982178 8.98814 0.982178 8.98814L1.93167 4.06745L4.33543 1.82771C4.2142 1.69879 4.12635 1.54217 4.07955 1.3715C4.03275 1.20083 4.02842 1.02131 4.06694 0.848585C4.10546 0.675861 4.18565 0.515185 4.30053 0.380571C4.4154 0.245957 4.56147 0.141495 4.72599 0.076297C4.89051 0.0110986 5.06848 -0.0128557 5.24438 0.00652349C5.42029 0.0259027 5.58878 0.0880268 5.73516 0.187477C5.88154 0.286927 6.00136 0.420682 6.08417 0.577075C6.16699 0.733469 6.21028 0.90775 6.21027 1.08472ZM5.12561 7.59272C5.41328 7.59272 5.68917 7.47844 5.89258 7.27502C6.096 7.07161 6.21027 6.79572 6.21027 6.50805C6.21027 6.22038 6.096 5.94449 5.89258 5.74107C5.68917 5.53766 5.41328 5.42338 5.12561 5.42338C4.83793 5.42338 4.56204 5.53766 4.35863 5.74107C4.15522 5.94449 4.04094 6.22038 4.04094 6.50805C4.04094 6.79572 4.15522 7.07161 4.35863 7.27502C4.56204 7.47844 4.83793 7.59272 5.12561 7.59272Z" fill="black" fill-opacity="0.29"/>
</svg>
