<svg width="17" height="13" viewBox="0 0 17 13" fill="none" xmlns="http://www.w3.org/2000/svg">
<mask id="path-1-outside-1_1261_344" maskUnits="userSpaceOnUse" x="0.214233" y="0" width="16" height="13" fill="black">
<rect fill="white" x="0.214233" width="16" height="13"/>
<path fill-rule="evenodd" clip-rule="evenodd" d="M1.21423 2C1.21423 1.44772 1.66195 1 2.21423 1H14.2142C14.7665 1 15.2142 1.44772 15.2142 2V10.5C15.2142 11.0523 14.7665 11.5 14.2142 11.5H2.21423C1.66195 11.5 1.21423 11.0523 1.21423 10.5V2ZM3.83923 1.875H2.08923V3.625L3.83923 1.875ZM14.3392 1.875H12.5892L14.3392 3.625V1.875ZM3.83923 10.625H2.08923V8.875L3.83923 10.625ZM14.3392 10.625H12.5892L14.3392 8.875V10.625Z"/>
</mask>
<path d="M2.08923 1.875V0.875H1.08923V1.875H2.08923ZM3.83923 1.875L4.54634 2.58211L6.25345 0.875H3.83923V1.875ZM2.08923 3.625H1.08923V6.03921L2.79634 4.33211L2.08923 3.625ZM12.5892 1.875V0.875H10.175L11.8821 2.58211L12.5892 1.875ZM14.3392 1.875H15.3392V0.875H14.3392V1.875ZM14.3392 3.625L13.6321 4.33211L15.3392 6.03921V3.625H14.3392ZM2.08923 10.625H1.08923V11.625H2.08923V10.625ZM3.83923 10.625V11.625H6.25345L4.54634 9.91789L3.83923 10.625ZM2.08923 8.875L2.79634 8.16789L1.08923 6.46079V8.875H2.08923ZM12.5892 10.625L11.8821 9.91789L10.175 11.625H12.5892V10.625ZM14.3392 10.625V11.625H15.3392V10.625H14.3392ZM14.3392 8.875H15.3392V6.46079L13.6321 8.16789L14.3392 8.875ZM2.21423 0C1.10966 0 0.214233 0.89543 0.214233 2H2.21423V2V0ZM14.2142 0H2.21423V2H14.2142V0ZM16.2142 2C16.2142 0.89543 15.3188 0 14.2142 0V2H16.2142ZM16.2142 10.5V2H14.2142V10.5H16.2142ZM14.2142 12.5C15.3188 12.5 16.2142 11.6046 16.2142 10.5H14.2142V12.5ZM2.21423 12.5H14.2142V10.5H2.21423V12.5ZM0.214233 10.5C0.214233 11.6046 1.10966 12.5 2.21423 12.5V10.5H2.21423H0.214233ZM0.214233 2V10.5H2.21423V2H0.214233ZM2.08923 2.875H3.83923V0.875H2.08923V2.875ZM3.08923 3.625V1.875H1.08923V3.625H3.08923ZM3.13213 1.16789L1.38213 2.91789L2.79634 4.33211L4.54634 2.58211L3.13213 1.16789ZM12.5892 2.875H14.3392V0.875H12.5892V2.875ZM15.0463 2.91789L13.2963 1.16789L11.8821 2.58211L13.6321 4.33211L15.0463 2.91789ZM13.3392 1.875V3.625H15.3392V1.875H13.3392ZM2.08923 11.625H3.83923V9.625H2.08923V11.625ZM1.08923 8.875V10.625H3.08923V8.875H1.08923ZM4.54634 9.91789L2.79634 8.16789L1.38213 9.58211L3.13213 11.3321L4.54634 9.91789ZM12.5892 11.625H14.3392V9.625H12.5892V11.625ZM13.6321 8.16789L11.8821 9.91789L13.2963 11.3321L15.0463 9.58211L13.6321 8.16789ZM15.3392 10.625V8.875H13.3392V10.625H15.3392Z" fill="#F99C39" mask="url(#path-1-outside-1_1261_344)"/>
<path d="M8.27848 8.84875L10.3535 10.1038C10.7335 10.3337 11.1985 9.99375 11.0985 9.56375L10.5485 7.20375L12.3835 5.61375C12.7185 5.32375 12.5385 4.77375 12.0985 4.73875L9.68348 4.53375L8.73848 2.30375C8.56848 1.89875 7.98848 1.89875 7.81848 2.30375L6.87348 4.52875L4.45848 4.73375C4.01848 4.76875 3.83848 5.31875 4.17348 5.60875L6.00848 7.19875L5.45848 9.55875C5.35848 9.98875 5.82348 10.3287 6.20348 10.0988L8.27848 8.84875Z" fill="#F99C39"/>
</svg>
