<svg width="14" height="12" viewBox="0 0 14 12" fill="none" xmlns="http://www.w3.org/2000/svg">
<path d="M8.11165 1.24808C8.11165 1.5788 7.9831 1.87958 7.77281 2.10297L9.41021 4.14972C9.43246 4.17765 9.46362 4.19711 9.49849 4.20483C9.53336 4.21255 9.56982 4.20808 9.60178 4.19216L11.2554 3.36472C11.2197 3.18368 11.2245 2.99697 11.2694 2.818C11.3144 2.63902 11.3984 2.47222 11.5154 2.32954C11.6324 2.18686 11.7796 2.07185 11.9463 1.99276C12.113 1.91367 12.2952 1.87246 12.4797 1.87209C12.7865 1.87215 13.0826 1.98523 13.3113 2.18973C13.54 2.39422 13.6854 2.67581 13.7197 2.9807C13.7539 3.28559 13.6747 3.59243 13.4971 3.8426C13.3195 4.09277 13.0559 4.26875 12.7568 4.33693L11.6311 10.3418C11.5841 10.5921 11.4511 10.818 11.2551 10.9806C11.0591 11.1433 10.8124 11.2322 10.5578 11.2322H3.16949C2.91483 11.2322 2.66817 11.1433 2.47218 10.9806C2.27619 10.818 2.14319 10.5921 2.09619 10.3418L0.970476 4.33693C0.731223 4.28235 0.513368 4.15846 0.344154 3.98073C0.17494 3.803 0.0618769 3.57933 0.0191043 3.33769C-0.0236683 3.09605 0.00574733 2.84715 0.103673 2.62214C0.201598 2.39713 0.363688 2.20598 0.569671 2.07259C0.775655 1.93921 1.01639 1.86951 1.26177 1.87222C1.50716 1.87492 1.7463 1.94991 1.94929 2.0878C2.15229 2.22569 2.31012 2.42037 2.40307 2.64748C2.49601 2.8746 2.51993 3.12408 2.47184 3.36472L4.12547 4.19216C4.15744 4.20808 4.1939 4.21255 4.22876 4.20483C4.26363 4.19711 4.29479 4.17765 4.31704 4.14972L5.95444 2.10297C5.81496 1.95464 5.71388 1.77442 5.66004 1.57805C5.60619 1.38168 5.60121 1.17512 5.64553 0.976384C5.68985 0.777648 5.78212 0.592773 5.91429 0.437886C6.04647 0.282999 6.21453 0.162805 6.40383 0.0877875C6.59313 0.0127701 6.7979 -0.0147918 7.00029 0.00750594C7.20269 0.0298037 7.39655 0.101284 7.56498 0.215711C7.7334 0.330139 7.87127 0.484038 7.96656 0.663984C8.06184 0.843931 8.11166 1.04446 8.11165 1.24808ZM6.86363 8.7362C7.19462 8.7362 7.51206 8.60471 7.74611 8.37066C7.98016 8.13661 8.11165 7.81917 8.11165 7.48818C8.11165 7.15718 7.98016 6.83974 7.74611 6.60569C7.51206 6.37164 7.19462 6.24016 6.86363 6.24016C6.53263 6.24016 6.21519 6.37164 5.98114 6.60569C5.74709 6.83974 5.61561 7.15718 5.61561 7.48818C5.61561 7.81917 5.74709 8.13661 5.98114 8.37066C6.21519 8.60471 6.53263 8.7362 6.86363 8.7362Z" fill="white"/>
</svg>
