<svg width="17" height="13" viewBox="0 0 17 13" fill="none" xmlns="http://www.w3.org/2000/svg">
<mask id="path-1-outside-1_1035_221" maskUnits="userSpaceOnUse" x="0.0714111" y="0" width="16" height="13" fill="black">
<rect fill="white" x="0.0714111" width="16" height="13"/>
<path fill-rule="evenodd" clip-rule="evenodd" d="M1.07141 2C1.07141 1.44772 1.51913 1 2.07141 1H14.0714C14.6237 1 15.0714 1.44772 15.0714 2V10.5C15.0714 11.0523 14.6237 11.5 14.0714 11.5H2.07141C1.51913 11.5 1.07141 11.0523 1.07141 10.5V2ZM3.69641 1.875H1.94641V3.625L3.69641 1.875ZM14.1964 1.875H12.4464L14.1964 3.625V1.875ZM3.69641 10.625H1.94641V8.875L3.69641 10.625ZM14.1964 10.625H12.4464L14.1964 8.875V10.625Z"/>
</mask>
<path d="M1.94641 1.875V0.875H0.946411V1.875H1.94641ZM3.69641 1.875L4.40352 2.58211L6.11062 0.875H3.69641V1.875ZM1.94641 3.625H0.946411V6.03921L2.65352 4.33211L1.94641 3.625ZM12.4464 1.875V0.875H10.0322L11.7393 2.58211L12.4464 1.875ZM14.1964 1.875H15.1964V0.875H14.1964V1.875ZM14.1964 3.625L13.4893 4.33211L15.1964 6.03921V3.625H14.1964ZM1.94641 10.625H0.946411V11.625H1.94641V10.625ZM3.69641 10.625V11.625H6.11062L4.40352 9.91789L3.69641 10.625ZM1.94641 8.875L2.65352 8.16789L0.946411 6.46079V8.875H1.94641ZM12.4464 10.625L11.7393 9.91789L10.0322 11.625H12.4464V10.625ZM14.1964 10.625V11.625H15.1964V10.625H14.1964ZM14.1964 8.875H15.1964V6.46079L13.4893 8.16789L14.1964 8.875ZM2.07141 0C0.966842 0 0.0714111 0.89543 0.0714111 2H2.07141V2V0ZM14.0714 0H2.07141V2H14.0714V0ZM16.0714 2C16.0714 0.89543 15.176 0 14.0714 0V2H16.0714ZM16.0714 10.5V2H14.0714V10.5H16.0714ZM14.0714 12.5C15.176 12.5 16.0714 11.6046 16.0714 10.5H14.0714V12.5ZM2.07141 12.5H14.0714V10.5H2.07141V12.5ZM0.0714111 10.5C0.0714111 11.6046 0.966842 12.5 2.07141 12.5V10.5H2.07141H0.0714111ZM0.0714111 2V10.5H2.07141V2H0.0714111ZM1.94641 2.875H3.69641V0.875H1.94641V2.875ZM2.94641 3.625V1.875H0.946411V3.625H2.94641ZM2.9893 1.16789L1.2393 2.91789L2.65352 4.33211L4.40352 2.58211L2.9893 1.16789ZM12.4464 2.875H14.1964V0.875H12.4464V2.875ZM14.9035 2.91789L13.1535 1.16789L11.7393 2.58211L13.4893 4.33211L14.9035 2.91789ZM13.1964 1.875V3.625H15.1964V1.875H13.1964ZM1.94641 11.625H3.69641V9.625H1.94641V11.625ZM0.946411 8.875V10.625H2.94641V8.875H0.946411ZM4.40352 9.91789L2.65352 8.16789L1.2393 9.58211L2.9893 11.3321L4.40352 9.91789ZM12.4464 11.625H14.1964V9.625H12.4464V11.625ZM13.4893 8.16789L11.7393 9.91789L13.1535 11.3321L14.9035 9.58211L13.4893 8.16789ZM15.1964 10.625V8.875H13.1964V10.625H15.1964Z" fill="#F99C39" mask="url(#path-1-outside-1_1035_221)"/>
<path d="M8.13566 8.84875L10.2107 10.1038C10.5907 10.3337 11.0557 9.99375 10.9557 9.56375L10.4057 7.20375L12.2407 5.61375C12.5757 5.32375 12.3957 4.77375 11.9557 4.73875L9.54066 4.53375L8.59566 2.30375C8.42566 1.89875 7.84566 1.89875 7.67566 2.30375L6.73066 4.52875L4.31566 4.73375C3.87566 4.76875 3.69566 5.31875 4.03066 5.60875L5.86566 7.19875L5.31566 9.55875C5.21566 9.98875 5.68066 10.3287 6.06066 10.0988L8.13566 8.84875Z" fill="#F99C39"/>
</svg>
