<svg width="30" height="30" viewBox="0 0 30 30" fill="none" xmlns="http://www.w3.org/2000/svg">
<path d="M21.2504 5C22.6329 5 23.6941 6.05375 24.4804 7.1875L24.7467 7.58875L24.9904 7.98875C25.0679 8.11875 25.1416 8.24875 25.2129 8.37375C26.1966 10.1325 27.0529 12.4288 27.6191 14.6975C28.1816 16.9488 28.4929 19.3 28.2941 21.1488C28.0941 23.005 27.1379 25 25.0004 25C23.0829 25 21.5716 23.975 20.3441 22.9737L18.9566 21.81C17.8029 20.865 16.5404 20 15.0004 20C13.4604 20 12.1966 20.865 11.0454 21.81L9.6579 22.9725C8.4279 23.975 6.91665 25 5.0004 25C2.86165 25 1.9054 23.005 1.70665 21.1488C1.50915 19.2988 1.81915 16.9487 2.38165 14.6962C2.9479 12.4288 3.80415 10.1337 4.7879 8.37375L5.0104 7.9875L5.25415 7.58875L5.5204 7.1875C6.30665 6.05375 7.3679 5 8.7504 5C9.3879 5 10.0216 5.155 10.6441 5.3375L11.3854 5.565C11.5079 5.6025 11.6291 5.63875 11.7504 5.6725C12.8316 5.9825 13.9379 6.25 15.0004 6.25C16.0629 6.25 17.1691 5.9825 18.2504 5.6725L19.3566 5.33875C19.9791 5.155 20.6129 5 21.2504 5ZM10.6254 10C9.7966 10 9.00174 10.3292 8.41569 10.9153C7.82964 11.5013 7.5004 12.2962 7.5004 13.125C7.5004 13.9538 7.82964 14.7487 8.41569 15.3347C9.00174 15.9208 9.7966 16.25 10.6254 16.25C11.4542 16.25 12.2491 15.9208 12.8351 15.3347C13.4212 14.7487 13.7504 13.9538 13.7504 13.125C13.7504 12.2962 13.4212 11.5013 12.8351 10.9153C12.2491 10.3292 11.4542 10 10.6254 10ZM19.3754 10C19.0439 10 18.7259 10.1317 18.4915 10.3661C18.2571 10.6005 18.1254 10.9185 18.1254 11.25V11.875H17.5004C17.1689 11.875 16.8509 12.0067 16.6165 12.2411C16.3821 12.4755 16.2504 12.7935 16.2504 13.125C16.2504 13.4565 16.3821 13.7745 16.6165 14.0089C16.8509 14.2433 17.1689 14.375 17.5004 14.375H18.1254V15C18.1254 15.3315 18.2571 15.6495 18.4915 15.8839C18.7259 16.1183 19.0439 16.25 19.3754 16.25C19.7069 16.25 20.0249 16.1183 20.2593 15.8839C20.4937 15.6495 20.6254 15.3315 20.6254 15V14.375H21.2504C21.5819 14.375 21.8999 14.2433 22.1343 14.0089C22.3687 13.7745 22.5004 13.4565 22.5004 13.125C22.5004 12.7935 22.3687 12.4755 22.1343 12.2411C21.8999 12.0067 21.5819 11.875 21.2504 11.875H20.6254V11.25C20.6254 10.9185 20.4937 10.6005 20.2593 10.3661C20.0249 10.1317 19.7069 10 19.3754 10ZM10.6254 12.5C10.7912 12.5 10.9501 12.5658 11.0673 12.6831C11.1846 12.8003 11.2504 12.9592 11.2504 13.125C11.2504 13.2908 11.1846 13.4497 11.0673 13.5669C10.9501 13.6842 10.7912 13.75 10.6254 13.75C10.4596 13.75 10.3007 13.6842 10.1835 13.5669C10.0662 13.4497 10.0004 13.2908 10.0004 13.125C10.0004 12.9592 10.0662 12.8003 10.1835 12.6831C10.3007 12.5658 10.4596 12.5 10.6254 12.5Z" fill="url(#paint0_linear_106_81345)"/>
<defs>
<linearGradient id="paint0_linear_106_81345" x1="15.0006" y1="5" x2="15.0006" y2="25" gradientUnits="userSpaceOnUse">
<stop stop-color="#13A199"/>
<stop offset="1" stop-color="#12E6DA"/>
</linearGradient>
</defs>
</svg>
