<svg width="13" height="12" viewBox="0 0 13 12" fill="none" xmlns="http://www.w3.org/2000/svg">
<path d="M6.4403 1.24808C6.4403 1.5788 6.31175 1.87958 6.10146 2.10297L7.73886 4.14972C7.76111 4.17765 7.79227 4.19711 7.82714 4.20483C7.86201 4.21255 7.89847 4.20808 7.93043 4.19216L9.58406 3.36472C9.54833 3.18368 9.55311 2.99697 9.59806 2.818C9.64301 2.63902 9.72701 2.47222 9.84404 2.32954C9.96107 2.18686 10.1082 2.07185 10.2749 1.99276C10.4417 1.91367 10.6238 1.87246 10.8084 1.87209C11.1152 1.87215 11.4112 1.98523 11.6399 2.18973C11.8687 2.39422 12.014 2.67581 12.0483 2.9807C12.0826 3.28559 12.0034 3.59243 11.8257 3.8426C11.6481 4.09277 11.3846 4.26875 11.0854 4.33693L9.95971 10.3418C9.91271 10.5921 9.77971 10.818 9.58372 10.9806C9.38773 11.1433 9.14108 11.2322 8.88641 11.2322H1.49813C1.24347 11.2322 0.996816 11.1433 0.800826 10.9806C0.604836 10.818 0.424835 10.3418 0.424835 10.3418L1.51733 4.68002L4.28309 2.10297C4.1436 1.95464 4.04253 1.77442 3.98868 1.57805C3.93483 1.38168 3.92985 1.17512 3.97417 0.976384C4.01849 0.777648 4.11076 0.592773 4.24294 0.437886C4.37511 0.282999 4.54318 0.162805 4.73247 0.0877875C4.92177 0.0127701 5.12655 -0.0147918 5.32894 0.00750594C5.53133 0.0298037 5.7252 0.101284 5.89362 0.215711C6.06205 0.330139 6.19992 0.484038 6.2952 0.663984C6.39049 0.843931 6.44031 1.04446 6.4403 1.24808ZM5.19227 8.7362C5.52327 8.7362 5.84071 8.60471 6.07476 8.37066C6.30881 8.13661 6.4403 7.81917 6.4403 7.48818C6.4403 7.15718 6.30881 6.83974 6.07476 6.60569C5.84071 6.37164 5.52327 6.24016 5.19227 6.24016C4.86128 6.24016 4.54384 6.37164 4.30979 6.60569C4.07574 6.83974 3.94425 7.15718 3.94425 7.48818C3.94425 7.81917 4.07574 8.13661 4.30979 8.37066C4.54384 8.60471 4.86128 8.7362 5.19227 8.7362Z" fill="white"/>
</svg>
