<svg width="75" height="66" viewBox="0 0 75 66" fill="none" xmlns="http://www.w3.org/2000/svg">
<g clip-path="url(#clip0_19_21583)">
<path d="M36.9399 0.377197H13.2363C5.15201 0.377197 -0.935759 7.77474 0.673256 15.6923C4.04826 32.3564 12.3681 57.5856 32.2894 64.7329C35.2965 65.8121 38.5832 65.8121 41.5903 64.7329C61.5117 57.5856 69.8315 32.3613 73.2065 15.6923C74.8106 7.76984 68.7228 0.377197 60.6434 0.377197H36.9399Z" fill="#41BFFA"/>
<path d="M36.9399 63.9235C35.5369 63.9235 34.1536 63.6831 32.834 63.2073C13.2364 56.1825 5.26487 30.2224 2.25287 15.3734C1.58572 12.0867 2.42457 8.71167 4.55357 6.10683C6.69238 3.49218 9.85645 1.99109 13.2364 1.99109H60.6484C64.0283 1.99109 67.1874 3.49218 69.3263 6.10683C71.4553 8.70677 72.2941 12.0867 71.627 15.3734C68.6199 30.2224 60.6435 56.1825 41.0458 63.2122C39.7263 63.688 38.3429 63.9284 36.9399 63.9284V63.9235Z" fill="#EAE6F7"/>
<path d="M36.9399 63.9235C35.5369 63.9235 34.1536 63.6831 32.834 63.2073C13.2364 56.1825 5.26487 30.2224 2.25287 15.3734C1.58572 12.0867 2.42457 8.71167 4.55357 6.10683C6.69238 3.49218 9.85645 1.99109 13.2364 1.99109H60.6484C64.0283 1.99109 67.1874 3.49218 69.3263 6.10683C71.4553 8.70677 72.2941 12.0867 71.627 15.3734C68.6199 30.2224 60.6435 56.1825 41.0458 63.2122C39.7263 63.688 38.3429 63.9284 36.9399 63.9284V63.9235Z" stroke="#111D2D" stroke-width="0.456215" stroke-miterlimit="10"/>
<path d="M36.9395 62.3095C35.7229 62.3095 34.526 62.1035 33.3781 61.6914C14.5261 54.9267 6.77539 29.5651 3.83697 15.0496C3.26793 12.2387 3.98414 9.35427 5.80409 7.12715C7.63385 4.89023 10.3417 3.60498 13.236 3.60498H60.648C63.5373 3.60498 66.2452 4.89023 68.0799 7.12715C69.8998 9.35427 70.616 12.2387 70.047 15.0496C67.1086 29.5651 59.3578 54.9267 40.5058 61.6914C39.3629 62.1035 38.161 62.3095 36.9444 62.3095H36.9395Z" fill="#D7D3E3"/>
<path d="M36.9397 60.6955C35.9096 60.6955 34.8941 60.519 33.9228 60.1707C15.8165 53.6757 8.29142 28.9126 5.42168 14.7307C4.95075 12.4006 5.54432 10.0017 7.05522 8.15236C8.57594 6.28826 10.8276 5.22375 13.2362 5.22375H60.6482C63.0519 5.22375 65.3035 6.29316 66.8292 8.15236C68.3401 10.0017 68.9336 12.3956 68.4627 14.7307C65.5881 28.9126 58.0679 53.6757 39.9566 60.1707C38.9853 60.519 37.9748 60.6955 36.9397 60.6955Z" fill="#BAB7C4"/>
<path d="M36.9396 59.0818C36.0959 59.0818 35.2668 58.9396 34.4721 58.6501C17.1066 52.4201 9.80712 28.2603 7.00606 14.412C6.62833 12.5577 7.10417 10.6495 8.30602 9.17781C9.5226 7.69143 11.318 6.84277 13.2361 6.84277H60.6481C62.5662 6.84277 64.3616 7.69634 65.5781 9.17781C66.78 10.6495 67.2558 12.5577 66.8781 14.412C64.0722 28.2603 56.7727 52.425 39.412 58.6501C38.6173 58.9347 37.7883 59.0769 36.9445 59.0769L36.9396 59.0818Z" fill="#111D2D"/>
<path d="M13.7758 56.4133C12.9369 56.3593 12.0833 56.222 11.2347 55.9963C4.52882 54.2205 1.26173 47.7894 2.03681 37.89C2.33114 34.1127 3.84204 21.3093 10.8373 15.0989C13.398 12.8276 16.3708 11.8269 19.9224 12.0476C22.8853 12.2291 25.5932 13.2299 28.2127 14.2012C29.7187 14.7604 31.1413 15.2853 32.304 15.5208L32.5983 15.5796C33.1526 15.6925 33.7168 15.766 34.276 15.8004C35.9537 15.9034 37.6019 15.6679 39.1815 15.1038L39.4709 15.0008C40.5943 14.5985 41.9188 13.8774 43.3218 13.1121C46.8194 11.2088 50.4348 9.23677 54.7811 9.50657C56.8709 9.63412 58.8527 10.3062 60.6629 11.4933C68.4823 16.6294 71.818 29.0846 72.6569 32.7784C74.8497 42.4669 72.5441 49.3003 66.1669 52.0228C64.3224 52.8077 62.4288 53.1511 60.5353 53.0334C54.3445 52.6507 50.1061 47.6373 47.9477 44.2917L28.1539 45.7241C26.383 49.5554 21.9042 56.9137 13.7758 56.4133Z" fill="#328CF2"/>
<path d="M13.8446 55.2848C13.0794 55.2358 12.2994 55.1082 11.5243 54.9022C5.40711 53.2834 2.43927 47.2741 3.16528 37.9732C3.45471 34.3039 4.91166 21.8683 11.5881 15.9375C13.9133 13.8723 16.6163 12.9697 19.8539 13.1659C22.655 13.3376 25.2843 14.3089 27.8254 15.2508C29.3756 15.8247 30.8325 16.3643 32.0883 16.6145L32.3826 16.6734C32.986 16.796 33.6041 16.8745 34.2124 16.9137C36.0422 17.0266 37.8425 16.7715 39.5644 16.1534L39.8538 16.0504C41.0605 15.6187 42.4243 14.8779 43.8665 14.0882C47.2219 12.2584 50.6901 10.3698 54.7126 10.6199C56.6062 10.7377 58.3967 11.346 60.0401 12.4252C67.5063 17.3307 70.739 29.4278 71.5533 33.0137C73.6137 42.1086 71.5435 48.4858 65.7207 50.968C64.0381 51.6842 62.3162 51.9981 60.5993 51.8902C54.6538 51.5223 50.6018 46.4794 48.5366 43.0995L27.3937 44.63C25.7455 48.4563 21.5709 55.746 13.8446 55.2701V55.2848Z" fill="#EAE6F7"/>
<path d="M13.8446 55.2848C13.0794 55.2358 12.2994 55.1082 11.5243 54.9022C5.40711 53.2834 2.43927 47.2741 3.16528 37.9732C3.45471 34.3039 4.91166 21.8683 11.5881 15.9375C13.9133 13.8723 16.6163 12.9697 19.8539 13.1659C22.655 13.3376 25.2843 14.3089 27.8254 15.2508C29.3756 15.8247 30.8325 16.3643 32.0883 16.6145L32.3826 16.6734C32.986 16.796 33.6041 16.8745 34.2124 16.9137C36.0422 17.0266 37.8425 16.7715 39.5643 16.1534L39.8538 16.0504C41.0605 15.6187 42.4243 14.8779 43.8665 14.0882C47.2219 12.2584 50.6901 10.3698 54.7126 10.6199C56.6062 10.7377 58.3967 11.346 60.0401 12.4252C67.5063 17.3307 70.739 29.4278 71.5533 33.0137C73.6137 42.1086 71.5435 48.4858 65.7207 50.968C64.0381 51.6842 62.3162 51.9981 60.5993 51.8902C54.6538 51.5223 50.6018 46.4794 48.5366 43.0995L27.3937 44.63C25.7455 48.4563 21.5708 55.746 13.8446 55.2701V55.2848Z" stroke="#111D2D" stroke-width="0.377726" stroke-miterlimit="10"/>
<path d="M13.9134 54.1616C13.2218 54.1174 12.5154 54.0046 11.8139 53.8182C6.28043 52.3564 3.61182 46.764 4.28879 38.0714C4.5684 34.51 5.97629 22.4473 12.3388 16.7961C14.4236 14.9418 16.8617 14.1275 19.7854 14.309C22.4196 14.4709 24.9705 15.4128 27.438 16.3252C29.0274 16.9139 30.5285 17.4682 31.8628 17.738L32.162 17.7969C32.8145 17.9293 33.4816 18.0176 34.1439 18.0569C36.1257 18.1795 38.0781 17.9048 39.9471 17.2327L40.2365 17.1297C41.5218 16.6686 42.9248 15.9033 44.4112 15.0939C47.6243 13.3426 50.9502 11.5325 54.6441 11.7581C56.3365 11.8612 57.9455 12.4057 59.4221 13.377C66.5351 18.0519 69.6648 29.786 70.4546 33.2738C72.3825 41.7751 70.5429 47.6961 65.2793 49.9379C63.7635 50.5855 62.2133 50.8651 60.673 50.7719C54.8158 50.4089 50.8668 44.8999 49.1548 41.9321L26.6188 43.5656C25.2894 46.8916 21.3797 54.6129 13.9134 54.1567V54.1616Z" fill="#D7D3E3"/>
<path d="M13.982 53.0331C13.3639 52.9939 12.736 52.8909 12.1032 52.7241C7.15839 51.4143 4.78411 46.2439 5.41692 38.1595C5.68672 34.7011 7.04065 23.0113 13.0892 17.6397C14.9386 15.9963 17.1068 15.2752 19.7166 15.4371C22.184 15.5892 24.6564 16.5016 27.0503 17.3895C28.679 17.9929 30.2193 18.5619 31.6419 18.8465L31.9411 18.9053C32.6426 19.0476 33.3589 19.1408 34.0751 19.1849C36.209 19.3174 38.3134 19.0181 40.3296 18.297L40.619 18.194C41.9877 17.7035 43.4299 16.9186 44.9555 16.0895C48.0313 14.4168 51.2052 12.6851 54.5802 12.8911C56.0764 12.9843 57.499 13.4651 58.8088 14.3285C65.5686 18.7729 68.5904 30.1488 69.3606 33.5287C71.1511 41.4364 69.547 46.8963 64.8426 48.9076C63.4887 49.4864 62.1102 49.7366 60.7465 49.6532C54.8794 49.2902 50.9599 42.9277 49.7924 40.7644L25.8239 42.5009C24.8772 45.1058 21.2471 53.4844 13.9869 53.038L13.982 53.0331Z" fill="#BAB7C4"/>
<path d="M68.2471 33.774C66.8686 27.6814 63.6359 18.8563 58.1809 15.2655C52.3385 11.4244 46.2997 17.3552 40.9969 19.2537C40.9969 19.2537 40.8889 19.2929 40.7074 19.3567C37.8279 20.3868 34.7178 20.6125 31.7205 20.0091C31.5341 19.9699 31.4212 19.9502 31.4212 19.9502C25.8976 18.8367 19.0691 13.8379 13.8447 18.4835C8.9588 22.82 7.03583 32.0228 6.55018 38.2479C6.17246 43.07 6.73169 50.134 12.3976 51.6302C21.1883 53.9554 24.995 41.4218 24.995 41.4218L37.7249 40.4995L50.4547 39.5773C50.4547 39.5773 56.0274 51.434 64.3913 47.8627C69.7825 45.562 69.3165 38.4932 68.2471 33.774Z" fill="#EAE6F7"/>
<mask id="mask0_19_21583" style="mask-type:luminance" maskUnits="userSpaceOnUse" x="6" y="13" width="63" height="39">
<path d="M68.2471 33.774C66.8686 27.6814 63.6359 18.8563 58.1809 15.2655C52.3385 11.4244 46.2997 17.3552 40.9969 19.2537C40.9969 19.2537 40.9674 19.2635 40.9135 19.2831C37.9015 20.3623 34.6442 20.5978 31.5095 19.965C31.4507 19.9551 31.4212 19.9453 31.4212 19.9453C25.9025 18.8318 19.0691 13.833 13.8447 18.4786C8.9588 22.8151 7.03583 32.0179 6.55018 38.243C6.17246 43.0651 6.73169 50.1291 12.3976 51.6253C21.1883 53.9505 24.995 41.4169 24.995 41.4169L37.7249 40.4946L50.4547 39.5724C50.4547 39.5724 56.0274 51.4291 64.3913 47.8578C69.7825 45.5571 69.3165 38.4883 68.2471 33.7691V33.774Z" fill="white"/>
</mask>
<g mask="url(#mask0_19_21583)">
<path d="M64.2787 16.5461C64.2787 16.5461 52.6379 37.1935 1.14941 40.5194C1.14941 40.5194 4.36254 65.3463 24.6715 55.5892C44.9804 45.8321 39.9718 46.3963 55.0809 51.3656C70.1899 56.3349 74.4774 48.5449 74.4136 39.2538C74.3449 29.9627 72.8095 14.3141 64.2787 16.5461Z" fill="#D7D3E3"/>
</g>
<path d="M33.3834 34.9663C33.5551 37.3307 31.7793 39.3861 29.4148 39.5578C27.0504 39.7295 24.9949 37.9537 24.8232 35.5893C24.6515 33.2248 26.4273 31.1694 28.7918 30.9977C31.1563 30.826 33.2117 32.6018 33.3834 34.9663Z" fill="#0077EE"/>
<path d="M32.1616 35.0542C32.2843 36.7417 31.0137 38.2133 29.3262 38.3311C27.6387 38.4537 26.1671 37.1832 26.0493 35.4957C25.9267 33.8082 27.1972 32.3365 28.8847 32.2188C30.5722 32.101 32.0439 33.3667 32.1616 35.0542Z" fill="#328CF2"/>
<path d="M26.7457 35.8147C26.7015 35.486 26.7457 35.1524 26.8291 34.8287C26.9125 34.5049 27.0645 34.1959 27.2657 33.9212C27.4668 33.6513 27.717 33.4061 28.0064 33.2393C28.2909 33.0578 28.6098 32.9499 28.9336 32.891C28.6441 33.0529 28.3596 33.1951 28.1143 33.3963C27.8641 33.5876 27.6434 33.8132 27.4619 34.0634C27.0891 34.5638 26.8634 35.1672 26.7457 35.8147Z" fill="#EAE6F7"/>
<path d="M49.6504 33.7889C49.8221 36.1534 48.0463 38.2088 45.6818 38.3805C43.3173 38.5522 41.2619 36.7764 41.0902 34.4119C40.9185 32.0474 42.6943 29.992 45.0588 29.8203C47.4233 29.6486 49.4787 31.4244 49.6504 33.7889Z" fill="#0077EE"/>
<path d="M46.3016 37.0188C47.9141 36.502 48.8024 34.7758 48.2856 33.1633C47.7688 31.5509 46.0427 30.6626 44.4302 31.1794C42.8177 31.6962 41.9294 33.4223 42.4462 35.0348C42.963 36.6473 44.6891 37.5355 46.3016 37.0188Z" fill="#328CF2"/>
<path d="M43.0127 34.6374C42.9685 34.3088 43.0127 33.9752 43.0961 33.6514C43.1794 33.3277 43.3315 33.0186 43.5326 32.7439C43.7338 32.4741 43.984 32.2288 44.2734 32.062C44.5579 31.8805 44.8768 31.7726 45.2005 31.7137C44.9111 31.8756 44.6266 32.0179 44.3813 32.219C44.1311 32.4103 43.9104 32.636 43.7289 32.8911C43.356 33.3914 43.1304 33.9948 43.0127 34.6423V34.6374Z" fill="#EAE6F7"/>
<path d="M34.728 26.9215L32.3636 27.0932C32.0202 27.1177 31.716 26.9019 31.6179 26.5879C31.6081 26.6419 31.6032 26.7007 31.6081 26.7596L31.6179 26.9215C31.6474 27.3237 31.9957 27.6279 32.3979 27.5985L34.7624 27.4268C35.1646 27.3973 35.4688 27.049 35.4393 26.6468L35.4295 26.4849C35.4295 26.426 35.4099 26.3721 35.3952 26.3181C35.3412 26.6419 35.0714 26.9019 34.728 26.9264V26.9215Z" fill="#C94F4F"/>
<path d="M34.6443 25.8078L32.2798 25.9795C31.9364 26.004 31.6666 26.264 31.6127 26.5878C31.7108 26.9017 32.0149 27.1176 32.3583 27.0931L34.7228 26.9214C35.0662 26.8968 35.336 26.6368 35.3899 26.3131C35.2918 25.9991 34.9877 25.7833 34.6443 25.8078Z" fill="#FF6D6D"/>
<path d="M32.118 26.2543C32.9912 26.1219 33.8742 26.0581 34.7572 26.063C33.884 26.1955 33.001 26.2592 32.118 26.2543Z" fill="#EAE6F7"/>
<path d="M41.0951 26.4604L38.7306 26.6321C38.3873 26.6567 38.0831 26.4408 37.985 26.1269C37.9752 26.1808 37.9703 26.2397 37.9752 26.2986L37.985 26.4604C38.0144 26.8627 38.3627 27.1668 38.765 27.1374L41.1295 26.9657C41.5317 26.9363 41.8358 26.588 41.8064 26.1857L41.7966 26.0238C41.7966 25.965 41.777 25.911 41.7623 25.8571C41.7083 26.1808 41.4385 26.4408 41.0951 26.4653V26.4604Z" fill="#C94F4F"/>
<path d="M41.0122 25.3469L38.6477 25.5186C38.3044 25.5431 38.0346 25.8031 37.9806 26.1268C38.0787 26.4408 38.3828 26.6566 38.7262 26.6321L41.0907 26.4604C41.4341 26.4359 41.7039 26.1759 41.7579 25.8521C41.6597 25.5382 41.3556 25.3223 41.0122 25.3469Z" fill="#FF6D6D"/>
<path d="M38.4856 25.7933C39.3588 25.6608 40.2418 25.597 41.1248 25.6019C40.2516 25.7344 39.3686 25.7982 38.4856 25.7933Z" fill="#EAE6F7"/>
<path d="M17.8499 22.3391L16.8566 22.4109C16.2703 22.4534 15.8293 22.9631 15.8718 23.5495L15.9437 24.5427C15.9861 25.1291 16.4959 25.5701 17.0822 25.5276L18.0755 25.4557C18.6618 25.4133 19.1028 24.9035 19.0603 24.3171L18.9884 23.3239C18.946 22.7375 18.4362 22.2966 17.8499 22.3391Z" fill="#C94F4F"/>
<path d="M18.5827 23.2947L18.6621 24.3907C18.6865 24.7283 18.432 25.0172 18.0993 25.0413L17.0033 25.1206C16.6657 25.145 16.3768 24.8905 16.3527 24.5578L16.2734 23.4618C16.2489 23.1242 16.5034 22.8353 16.8361 22.8112L17.9321 22.7319C18.2697 22.7075 18.5587 22.962 18.5827 23.2947Z" fill="#FF6D6D"/>
<path d="M16.6855 24.6202C16.5825 24.1541 16.5481 23.6881 16.5825 23.2123C16.6855 23.6783 16.7198 24.1443 16.6855 24.6202Z" fill="#EAE6F7"/>
<path d="M18.3429 30.0783L17.3497 30.1502C16.7633 30.1926 16.3224 30.7024 16.3648 31.2888L16.4367 32.282C16.4791 32.8684 16.9889 33.3093 17.5753 33.2669L18.5685 33.195C19.1549 33.1525 19.5958 32.6428 19.5534 32.0564L19.4815 31.0632C19.439 30.4768 18.9293 30.0359 18.3429 30.0783Z" fill="#C94F4F"/>
<path d="M19.0797 31.0388L19.159 32.1348C19.1834 32.4724 18.9289 32.7613 18.5962 32.7854L17.5003 32.8647C17.1627 32.8892 16.8737 32.6347 16.8496 32.302L16.7703 31.206C16.7459 30.8684 17.0004 30.5795 17.3331 30.5554L18.4291 30.476C18.7667 30.4516 19.0556 30.7061 19.0797 31.0388Z" fill="#FF6D6D"/>
<path d="M17.1807 32.3615C17.0777 31.8955 17.0434 31.4295 17.0777 30.9536C17.1807 31.4196 17.2151 31.8857 17.1807 32.3615Z" fill="#EAE6F7"/>
<path d="M18.066 26.2337L17.1413 26.3006C16.6008 26.3397 16.1944 26.8096 16.2335 27.35L16.3005 28.2747C16.3396 28.8152 16.8094 29.2216 17.3499 29.1825L18.2746 29.1155C18.815 29.0764 19.2214 28.6066 19.1823 28.0661L19.1154 27.1414C19.0763 26.601 18.6064 26.1946 18.066 26.2337Z" fill="#0077EE"/>
<path d="M18.7438 27.1291L18.8173 28.1418C18.8397 28.4501 18.6086 28.7226 18.2955 28.7453L17.2827 28.8188C16.9745 28.8412 16.7019 28.6101 16.6792 28.297L16.6057 27.2842C16.5834 26.976 16.8144 26.7034 17.1276 26.6807L18.1403 26.6072C18.4486 26.5849 18.7211 26.8159 18.7438 27.1291Z" fill="#328CF2"/>
<path d="M16.9839 28.3434C16.8907 27.9166 16.8564 27.48 16.8907 27.0435C16.9839 27.4702 17.0183 27.9068 16.9839 28.3434Z" fill="#EAE6F7"/>
<path d="M20.011 26.6266C19.9963 26.4255 20.0944 26.2293 20.2661 26.1165C20.4378 26.0036 20.6536 25.9938 20.8351 26.0821L22.8023 27.0779C22.9838 27.1711 23.1015 27.3477 23.1113 27.5489C23.126 27.75 23.0328 27.9413 22.8611 28.0541L21.0363 29.2952C20.8695 29.4081 20.6487 29.4228 20.4672 29.3345C20.2857 29.2462 20.1631 29.0647 20.1484 28.8586L20.0061 26.6217L20.011 26.6266Z" fill="#C94F4F"/>
<path d="M20.3544 26.6071L20.4966 28.844C20.5064 29.0157 20.7026 29.1138 20.8449 29.0157L22.6698 27.7746C22.812 27.6765 22.7973 27.4655 22.6452 27.3871L20.6781 26.3912C20.5211 26.3127 20.3396 26.4305 20.3544 26.6071Z" fill="#FF6D6D"/>
<path d="M22.3556 27.3524C22.0956 27.2641 21.8504 27.1366 21.5953 27.0335C21.3549 26.9011 21.0998 26.7932 20.8693 26.646C21.1293 26.7343 21.3745 26.8618 21.6296 26.9649C21.87 27.0973 22.1251 27.2052 22.3556 27.3524Z" fill="#EAE6F7"/>
<path d="M15.0857 29.0795C15.1004 29.2806 15.0023 29.4768 14.8306 29.5896C14.6589 29.7025 14.443 29.7123 14.2615 29.624L12.2944 28.6282C12.1129 28.5349 11.9952 28.3584 11.9854 28.1572C11.9755 27.9561 12.0638 27.7648 12.2355 27.652L14.0604 26.4109C14.2272 26.298 14.4479 26.2833 14.6294 26.3716C14.8109 26.4599 14.9336 26.6414 14.9483 26.8474L15.0906 29.0844L15.0857 29.0795Z" fill="#C94F4F"/>
<path d="M14.7421 29.1036L14.5999 26.8667C14.5901 26.695 14.3938 26.5969 14.2516 26.695L12.4267 27.9361C12.2845 28.0342 12.2992 28.2451 12.4513 28.3236L14.4184 29.3194C14.5753 29.3979 14.7569 29.2802 14.7421 29.1036Z" fill="#FF6D6D"/>
<path d="M12.7404 28.3584C13.0003 28.4467 13.2456 28.5742 13.5007 28.6773C13.7411 28.8097 13.9962 28.9176 14.2267 29.0648C13.9667 28.9765 13.7215 28.849 13.4664 28.7459C13.226 28.6135 12.9709 28.5056 12.7404 28.3584Z" fill="#EAE6F7"/>
<path d="M55.2925 19.9246L54.3085 20.0774C53.7275 20.1677 53.3298 20.7118 53.42 21.2927L53.5729 22.2768C53.6631 22.8577 54.2072 23.2555 54.7881 23.1652L55.7722 23.0124C56.3531 22.9221 56.7509 22.378 56.6607 21.7971L56.5078 20.8131C56.4175 20.2321 55.8734 19.8343 55.2925 19.9246Z" fill="#C94F4F"/>
<path d="M56.0933 20.8211L56.2619 21.9069C56.3139 22.2413 56.0838 22.5501 55.7542 22.6013L54.6684 22.77C54.3339 22.8219 54.0252 22.5919 53.974 22.2623L53.8053 21.1765C53.7533 20.842 53.9834 20.5332 54.313 20.482L55.3988 20.3133C55.7333 20.2614 56.042 20.4914 56.0933 20.8211Z" fill="#FF6D6D"/>
<path d="M54.3156 22.2953C54.1782 21.8391 54.1046 21.3779 54.0997 20.9021C54.2371 21.3583 54.3107 21.8194 54.3156 22.2953Z" fill="#EAE6F7"/>
<path d="M56.4135 27.6033L55.4294 27.7562C54.8485 27.8464 54.4507 28.3905 54.541 28.9714L54.6938 29.9555C54.7841 30.5364 55.3282 30.9342 55.9091 30.8439L56.8931 30.6911C57.4741 30.6008 57.8719 30.0567 57.7816 29.4758L57.6288 28.4918C57.5385 27.9108 56.9944 27.513 56.4135 27.6033Z" fill="#C94F4F"/>
<path d="M57.2253 28.5002L57.394 29.5861C57.446 29.9205 57.2159 30.2293 56.8863 30.2805L55.8005 30.4492C55.466 30.5011 55.1572 30.2711 55.106 29.9415L54.9374 28.8557C54.8854 28.5212 55.1154 28.2124 55.4451 28.1612L56.5309 27.9925C56.8654 27.9406 57.1741 28.1706 57.2253 28.5002Z" fill="#FF6D6D"/>
<path d="M55.4381 29.9725C55.3008 29.5163 55.2272 29.0552 55.2223 28.5793C55.3596 29.0356 55.4332 29.4967 55.4381 29.9725Z" fill="#EAE6F7"/>
<path d="M55.8262 23.7925L54.91 23.9348C54.3746 24.018 54.008 24.5195 54.0912 25.0549L54.2335 25.9711C54.3167 26.5065 54.8181 26.8731 55.3536 26.79L56.2697 26.6476C56.8051 26.5645 57.1718 26.063 57.0886 25.5276L56.9463 24.6114C56.8631 24.076 56.3616 23.7094 55.8262 23.7925Z" fill="#0077EE"/>
<path d="M56.5674 24.6202L56.7233 25.6236C56.7707 25.929 56.5627 26.2195 56.2525 26.2677L55.249 26.4235C54.9437 26.471 54.6532 26.2629 54.605 25.9527L54.4491 24.9493C54.4017 24.6439 54.6097 24.3534 54.92 24.3052L55.9234 24.1493C56.2288 24.1019 56.5192 24.31 56.5674 24.6202Z" fill="#328CF2"/>
<path d="M54.919 25.9841C54.7915 25.5622 54.7228 25.1355 54.7179 24.694C54.8454 25.1158 54.9141 25.5426 54.919 25.9841Z" fill="#EAE6F7"/>
<path d="M57.7932 24.0218C57.7638 23.8207 57.8422 23.6196 58.0041 23.492C58.166 23.3645 58.3819 23.335 58.5683 23.4135L60.6139 24.2475C60.8003 24.326 60.9327 24.4878 60.9622 24.689C60.9916 24.8901 60.9131 25.0863 60.7561 25.2139L59.0392 26.5972C58.8822 26.7248 58.6664 26.7591 58.4751 26.6855C58.2837 26.6119 58.1513 26.4403 58.1219 26.2391L57.7981 24.0218H57.7932Z" fill="#C94F4F"/>
<path d="M58.1314 23.9731L58.4551 26.1904C58.4797 26.3621 58.6808 26.4406 58.8181 26.3327L60.5351 24.9493C60.6675 24.8414 60.6381 24.6304 60.4811 24.5667L58.4355 23.7327C58.2736 23.669 58.1019 23.8014 58.1314 23.9731Z" fill="#FF6D6D"/>
<path d="M60.1918 24.5568C59.922 24.4881 59.6718 24.3851 59.4069 24.3017C59.1568 24.1938 58.8968 24.1006 58.6515 23.973C58.9213 24.0417 59.1715 24.1447 59.4364 24.2281C59.6866 24.336 59.9466 24.4292 60.1918 24.5568Z" fill="#EAE6F7"/>
<path d="M53.0836 26.8722C53.1131 27.0734 53.0346 27.2745 52.8727 27.402C52.7108 27.5296 52.495 27.559 52.3086 27.4805L50.263 26.6466C50.0765 26.5681 49.9441 26.4062 49.9147 26.2051C49.8852 26.0039 49.9637 25.8077 50.1207 25.6802L51.8376 24.2968C51.9946 24.1693 52.2105 24.1349 52.4018 24.2085C52.5931 24.2821 52.7255 24.4538 52.755 24.6549L53.0787 26.8722H53.0836Z" fill="#C94F4F"/>
<path d="M52.7451 26.9217L52.4213 24.7044C52.3968 24.5327 52.1957 24.4542 52.0583 24.5621L50.3414 25.9455C50.2089 26.0534 50.2383 26.2643 50.3953 26.3281L52.4409 27.162C52.6028 27.2258 52.7745 27.0934 52.7451 26.9217Z" fill="#FF6D6D"/>
<path d="M50.6895 26.3424C50.9593 26.4111 51.2094 26.5141 51.4743 26.5975C51.7245 26.7054 51.9845 26.7986 52.2298 26.9262C51.96 26.8575 51.7098 26.7545 51.4449 26.6711C51.1947 26.5632 50.9347 26.47 50.6895 26.3424Z" fill="#EAE6F7"/>
</g>
<defs>
<clipPath id="clip0_19_21583">
<rect width="74" height="65.1651" fill="white" transform="translate(0.413208 0.377197)"/>
</clipPath>
</defs>
</svg>
