<svg width="108" height="147" viewBox="0 0 108 147" fill="none" xmlns="http://www.w3.org/2000/svg">
<g clip-path="url(#clip0_106_68924)">
<path d="M34.6672 92.3771C34.9441 91.8209 35.4045 91.3812 35.7874 90.8896C35.7318 90.9356 35.674 90.9788 35.6141 91.019C35.3308 91.1392 35.0687 91.3043 34.838 91.5079C34.6966 91.7041 34.6011 91.9296 34.5586 92.1676L33.8989 94.7313C34.0283 94.5683 34.1576 94.4079 34.2896 94.2475C34.2812 93.6043 34.41 92.9667 34.6672 92.3771Z" fill="#F2F2F2"/>
<path d="M60.6688 92.3849C60.6649 92.0473 60.5964 91.7136 60.467 91.4018C60.3331 91.1484 60.1641 90.915 59.9652 90.7085L59.4064 90.0721C59.1218 96.8292 58.5165 103.604 59.7737 110.222C59.9781 111.293 60.2497 112.395 60.9379 113.241C61.1219 113.42 61.258 113.642 61.3336 113.888C62.3684 109.852 61.7864 105.48 61.1758 101.305C61.1165 100.851 61.0257 100.403 60.9042 99.962C60.4448 98.2695 60.3374 96.5006 60.5886 94.7649C60.6931 93.9761 60.72 93.1789 60.6688 92.3849Z" fill="#F2F2F2"/>
<path d="M63.8713 78.123C64.619 79.3544 65.0846 80.8135 65.5037 82.2078L65.6822 82.8106C65.5968 80.7669 65.5554 78.7206 65.5399 76.6743C65.1364 77.0331 64.7302 77.3875 64.3215 77.7376L63.8713 78.123Z" fill="#F2F2F2"/>
<path d="M65.9695 64.9555C66.2463 64.3993 66.7068 63.9595 67.0896 63.468C67.0341 63.514 66.9762 63.5571 66.9163 63.5973C66.633 63.7176 66.371 63.8827 66.1402 64.0863C65.9989 64.2825 65.9034 64.5079 65.8608 64.7459L65.2012 67.3096C65.3305 67.1466 65.4599 66.9862 65.5918 66.8258C65.5835 66.1826 65.7122 65.545 65.9695 64.9555Z" fill="#F2F2F2"/>
<path d="M60.6817 115.833C60.718 115.745 60.7542 115.662 60.7878 115.574C60.9094 115.259 61.018 114.941 61.1189 114.62L61.0982 114.656C60.8939 114.992 60.6714 115.316 60.4412 115.634C60.5239 115.696 60.6041 115.763 60.6817 115.833Z" fill="#F2F2F2"/>
<path d="M36.0851 144.318C35.7223 142.777 35.4741 141.211 35.3426 139.633C34.9322 135.839 34.5217 132.044 34.1113 128.25C34.0983 128.149 34.088 128.051 34.0776 127.95C34.0621 127.999 34.0492 128.049 34.0337 128.098C33.7206 129.016 33.0998 129.792 32.4815 130.548C31.8632 131.303 31.0897 132.082 30.1817 131.862C29.8095 131.739 29.4716 131.53 29.1961 131.251L27.1265 129.464C26.7178 129.119 26.3116 128.764 25.9081 128.4C25.8899 130.897 25.833 133.393 25.7037 135.884C25.6623 136.66 25.5976 137.496 25.2251 138.187C25.9887 140.559 26.412 143.027 26.4824 145.518C26.5005 146.193 26.4824 146.866 26.4617 147.541L32.5255 147.476H32.5617L37.1225 147.427C36.7422 146.408 36.3593 145.381 36.0851 144.318Z" fill="#F2F2F2"/>
<path d="M25.8409 118.565C25.9702 118.725 26.0996 118.886 26.2315 119.049L25.5718 116.495C25.5293 116.257 25.4338 116.032 25.2924 115.836C25.0617 115.632 24.7996 115.467 24.5163 115.347C24.4564 115.306 24.3986 115.263 24.343 115.217C24.7259 115.709 25.1864 116.149 25.4632 116.705C25.719 117.291 25.8477 117.925 25.8409 118.565Z" fill="#F2F2F2"/>
<path d="M33.3403 107.2C33.5033 108.996 33.599 110.799 33.6895 112.602C33.78 114.405 33.8732 116.161 33.9637 117.941C34.1748 116.565 34.4949 115.208 34.9209 113.882C34.5484 113.192 34.4837 112.369 34.4423 111.58C34.313 109.089 34.256 106.592 34.2379 104.096C33.8421 104.45 33.4412 104.797 33.0376 105.131C33.1881 105.812 33.2892 106.504 33.3403 107.2Z" fill="#F2F2F2"/>
<path d="M-1.02737 125.632C-1.63789 129.808 -2.22772 134.169 -1.18518 138.215C-1.10954 137.97 -0.973436 137.747 -0.789376 137.568C-0.101249 136.723 0.17038 135.621 0.374749 134.55C1.632 127.932 1.02666 121.157 0.742098 114.4L0.191078 115.036C-0.012583 115.238 -0.186755 115.468 -0.326311 115.719C-0.45709 116.027 -0.528196 116.357 -0.535853 116.692C-0.586723 117.484 -0.559863 118.28 -0.455658 119.067C-0.199746 120.807 -0.304533 122.581 -0.763505 124.279C-0.882855 124.724 -0.971023 125.176 -1.02737 125.632Z" fill="#F2F2F2"/>
<path d="M80.2155 134L92.9999 133.974C86.1837 126.942 94 120.5 87.5 113C86.0487 111.905 84.4566 109.613 84 108.5C80.7387 110.054 74.3477 115.858 73.4998 117.5C72.0159 120.345 77.5249 121.19 80.2971 124C84.1128 127.876 82.5962 129.934 80.297 133.848C80.2644 133.915 80.2481 133.95 80.2155 134Z" fill="#FBBEBE"/>
<path d="M49.3611 147.306C49.3611 145.95 49.3698 144.594 49.387 143.236C49.3474 144.595 49.3094 145.953 49.2732 147.308L49.3611 147.306Z" fill="#F2F2F2"/>
<path d="M62.477 49.6046C63.4652 50.6213 64.4146 51.7957 64.6009 53.2004C62.4951 53.7515 60.3402 52.7167 58.3715 51.7932C52.2793 48.9282 45.8461 46.8531 39.2281 45.6181C38.7107 45.5224 38.1571 45.4163 37.7665 45.0593C37.0292 44.3841 37.1637 42.6819 37.8493 41.9809C38.5891 41.2255 39.9576 41.3341 40.9536 41.2798C44.9262 41.0785 48.8966 41.7158 52.6066 43.15C56.3167 44.5843 59.6832 46.7835 62.4873 49.6046H62.477Z" fill="#192534"/>
<path d="M106.344 148.079H53.4279C52.7218 146.468 52.1658 144.795 51.7671 143.081C51.6326 142.548 51.5084 142.01 51.3842 141.475C51.2756 141.004 51.1721 140.531 51.0738 140.06C50.7737 138.644 50.515 137.222 50.2977 135.794C50.089 134.449 49.9166 133.099 49.7803 131.745C49.6458 130.45 49.5415 129.151 49.4673 127.847C49.4673 127.811 49.4673 127.774 49.4673 127.736C49.4363 127.117 49.4673 126.442 49.8916 126.005C50.2641 125.63 50.8332 125.547 51.3635 125.511C55.7614 125.211 60.035 126.804 64.4224 126.569C65.6124 126.499 66.5696 126.31 67.6768 126.538C67.8519 126.571 68.0248 126.615 68.1942 126.67C68.4529 126.75 68.6935 126.835 68.9393 126.928C70.6234 127.531 72.1936 128.292 74.0045 128.631C77.0881 129.213 80.252 129.099 83.3822 129.324C83.6409 129.339 83.8996 129.36 84.1583 129.386C84.4764 129.412 84.7946 129.445 85.1102 129.484C87.7926 129.84 90.4258 130.5 92.959 131.45C94.3249 131.944 95.6702 132.503 96.9973 133.096C97.3775 133.266 97.7552 133.437 98.1329 133.613C98.8055 133.926 99.4885 134.257 100.156 134.617C100.415 134.754 100.673 134.894 100.916 135.041C102.927 136.208 104.743 137.656 105.801 139.623C105.881 139.767 105.953 139.915 106.023 140.065C106.093 140.215 106.145 140.342 106.202 140.484C107.125 142.882 106.802 145.469 106.344 148.079Z" fill="#202F42"/>
<path opacity="0.1" d="M106.344 148.079H53.4279C52.7218 146.468 52.1658 144.795 51.7671 143.081C51.6326 142.548 51.5084 142.01 51.3842 141.475C51.2756 141.004 51.1721 140.531 51.0738 140.06C50.7737 138.644 50.515 137.222 50.2977 135.794C50.089 134.449 49.9166 133.099 49.7803 131.745C49.6458 130.45 49.5415 129.151 49.4673 127.847C49.4673 127.811 49.4673 127.774 49.4673 127.736C49.4363 127.117 49.4673 126.442 49.8916 126.005C50.2641 125.63 50.8332 125.547 51.3635 125.511C55.7614 125.211 60.035 126.804 64.4224 126.569C65.6124 126.499 66.5696 126.31 67.6768 126.538C67.8519 126.571 68.0248 126.615 68.1942 126.67C68.4529 126.75 68.6935 126.835 68.9393 126.928C70.6234 127.531 72.1936 128.292 74.0045 128.631C77.0881 129.213 80.252 129.099 83.3822 129.324C83.6409 129.339 83.8996 129.36 84.1583 129.386C84.4764 129.412 84.7946 129.445 85.1102 129.484C87.7926 129.84 90.4258 130.5 92.959 131.45C94.3249 131.944 95.6702 132.503 96.9973 133.096C97.3775 133.266 97.7552 133.437 98.1329 133.613C98.8055 133.926 99.4885 134.257 100.156 134.617C100.415 134.754 100.673 134.894 100.916 135.041C102.927 136.208 104.743 137.656 105.801 139.623C105.881 139.767 105.953 139.915 106.023 140.065C106.093 140.215 106.145 140.342 106.202 140.484C107.125 142.882 106.802 145.469 106.344 148.079Z" fill="black"/>
<path d="M58.048 148.079H-1.59399C-2.93402 146.605 -3.811 144.683 -3.5937 142.724C-3.51569 141.91 -3.37908 141.103 -3.18496 140.308C-3.16426 140.223 -3.14098 140.14 -3.1177 140.049C-2.73542 138.545 -1.78617 137.248 -0.468665 136.428C1.88028 134.919 4.70522 134.33 7.29217 133.352C8.68136 132.834 10.0214 132.18 11.4106 131.66C13.4086 130.94 15.4713 130.413 17.5701 130.087C17.8029 130.048 18.0383 130.009 18.2712 129.976C18.504 129.942 18.7498 129.901 18.9903 129.867C20.2838 129.681 21.5773 129.528 22.8837 129.378C25.7293 129.044 28.6189 128.713 31.4827 128.967C33.7707 129.204 36.023 129.71 38.1932 130.472C39.8282 131.018 41.4424 131.652 43.0463 132.283C45.5479 133.272 48.0702 134.283 50.3027 135.765C50.4967 135.895 50.6856 136.024 50.8744 136.161C52.3602 137.24 53.6633 138.55 54.7342 140.042C55.3554 140.897 55.9015 141.804 56.3665 142.753C57.189 144.435 57.7557 146.23 58.048 148.079Z" fill="#202F42"/>
<path d="M41.0415 43.784C40.0637 45.9285 38.4054 47.8713 36.1833 48.6603C35.001 49.0794 33.7257 49.1545 32.5201 49.4985C31.3146 49.8426 30.0988 50.554 29.6745 51.7311C29.5187 52.2467 29.4437 52.7834 29.452 53.322C29.2683 58.3795 29.1183 63.6362 31.1387 68.2772C32.8849 72.2817 36.0849 75.4456 39.2462 78.462C42.9455 81.9906 46.8622 85.5683 51.7282 87.1463C54.5738 88.0647 57.9239 88.1656 60.2781 86.3366C61.2456 85.5838 61.9648 84.5672 62.671 83.5634C64.2232 81.3516 65.8012 79.1087 66.7791 76.5787C68.7839 71.4048 68.1087 65.6411 67.4025 60.1438C67.3983 59.8173 67.275 59.5037 67.0559 59.2617C66.7816 59.0314 66.3807 59.0625 66.0211 59.0832C63.504 59.2332 60.7566 57.9423 59.9133 55.5675C59.5511 54.5327 59.5615 53.4255 59.5796 52.339L59.6779 46.0734C59.6779 45.3982 59.696 44.6997 59.4425 44.0711C59.0001 42.9794 57.8903 42.3404 56.8271 41.8127C53.3987 40.0978 49.8251 38.6901 46.1482 37.6063C44.5391 37.1329 43.3155 36.3439 42.5989 38.072C41.8409 39.8699 41.8745 41.955 41.0415 43.784Z" fill="#FBBEBE"/>
<path opacity="0.1" d="M41.0415 43.784C40.0637 45.9285 38.4054 47.8713 36.1833 48.6603C35.001 49.0794 33.7257 49.1545 32.5201 49.4985C31.3146 49.8426 30.0988 50.554 29.6745 51.7311C29.5187 52.2467 29.4437 52.7834 29.452 53.322C29.2683 58.3795 29.1183 63.6362 31.1387 68.2772C32.8849 72.2817 36.0849 75.4456 39.2462 78.462C42.9455 81.9906 46.8622 85.5683 51.7282 87.1463C54.5738 88.0647 57.9239 88.1656 60.2781 86.3366C61.2456 85.5838 61.9648 84.5672 62.671 83.5634C64.2232 81.3516 65.8012 79.1087 66.7791 76.5787C68.7839 71.4048 68.1087 65.6411 67.4025 60.1438C67.3983 59.8173 67.275 59.5037 67.0559 59.2617C66.7816 59.0314 66.3807 59.0625 66.0211 59.0832C63.504 59.2332 60.7566 57.9423 59.9133 55.5675C59.5511 54.5327 59.5615 53.4255 59.5796 52.339L59.6779 46.0734C59.6779 45.3982 59.696 44.6997 59.4425 44.0711C59.0001 42.9794 57.8903 42.3404 56.8271 41.8127C53.3987 40.0978 49.8251 38.6901 46.1482 37.6063C44.5391 37.1329 43.3155 36.3439 42.5989 38.072C41.8409 39.8699 41.8745 41.955 41.0415 43.784Z" fill="black"/>
<path d="M58.0094 48.8725C68.582 48.8725 77.1527 40.3017 77.1527 29.7291C77.1527 19.1565 68.582 10.5857 58.0094 10.5857C47.4368 10.5857 38.866 19.1565 38.866 29.7291C38.866 40.3017 47.4368 48.8725 58.0094 48.8725Z" fill="#FBBEBE"/>
<path d="M59.828 59.7428L57.6886 65.0538C57.2049 66.2541 56.7133 67.4674 55.9683 68.5255C53.9117 71.441 49.8605 72.7758 46.482 71.6531C43.2923 70.6002 40.4621 67.6149 37.169 68.3315C35.4616 68.704 34.1009 70.0751 33.3403 71.6479C32.5797 73.2208 32.3366 74.9903 32.1736 76.7313C31.4209 84.7842 32.1888 92.9068 34.4372 100.676C34.67 101.478 34.9545 102.319 35.5728 102.872C36.3282 103.535 37.4121 103.633 38.4185 103.69C43.075 103.967 47.7401 104.131 52.4138 104.181C55.2853 104.215 58.1698 104.205 61.0051 103.76C63.8404 103.315 66.5541 102.466 69.3506 101.907C71.966 101.39 74.6434 101.149 77.1994 100.397C77.6158 100.275 78.0556 100.12 78.3117 99.7732C78.51 99.4424 78.6004 99.0582 78.5704 98.6737C78.5704 97.1837 78.1074 95.735 77.6055 94.3329C76.312 90.7551 74.8013 87.2343 74.0821 83.5013C73.0913 78.3662 73.6733 73.0759 73.5647 67.8451C73.5285 65.9722 73.3991 64.0682 72.755 62.3065C72.1108 60.5448 70.8924 58.9253 69.1772 58.1674C66.2204 56.8506 61.2431 56.2608 59.828 59.7428Z" fill="#FFF654"/>
<path d="M49.9898 84.875C48.6239 83.716 48.6963 81.6491 48.5333 79.8641C48.2358 76.5166 46.7794 73.3967 45.3462 70.3545L41.0648 61.2588C39.2746 57.4663 37.4431 53.1487 38.9202 49.2191C39.4143 47.8946 40.2603 46.715 40.6949 45.3697C41.1295 44.0245 41.0415 42.343 39.9395 41.4557C38.5374 40.3278 36.4652 41.0961 34.8794 41.9524C31.9639 43.5339 29.153 45.3009 26.4641 47.2427C25.7346 47.7601 24.9688 48.3732 24.7308 49.2424C24.5834 49.7831 24.661 50.3755 24.454 50.8981C24.0505 51.9328 22.7932 52.2433 21.7196 52.4864C17.2949 53.5063 13.1246 55.418 9.4639 58.1047C5.80318 60.7913 2.72891 64.1963 0.42907 68.1116C-0.333946 69.3822 -0.941904 70.7397 -1.38179 72.155C-1.89918 73.9658 -2.0337 75.8466 -2.15787 77.7169C-2.489 82.5286 -2.80806 87.3378 -3.11505 92.1443C-3.25216 94.2734 -3.38667 96.4542 -2.80461 98.5056C-2.4295 99.825 -1.76984 101.059 -1.49045 102.404C-0.923905 105.201 -2.11908 108.057 -3.61174 110.488C-5.10441 112.92 -6.94114 115.202 -7.87761 117.884C-8.42791 119.591 -8.71065 121.373 -8.71578 123.167C-8.85354 129.22 -7.17587 135.176 -3.89889 140.267C-0.719536 140.735 1.66045 137.574 4.58111 136.231C8.86251 134.268 14.2692 135.84 18.2919 133.414C19.275 132.821 20.1261 132.014 21.166 131.525C22.1103 131.083 23.158 130.925 24.1902 130.775C28.0033 130.224 31.8656 129.715 35.6969 130.128C41.1295 130.716 46.7457 133.129 51.8549 131.181C53.1148 130.7 54.2686 129.973 55.5336 129.505C60.1901 127.779 65.364 129.841 70.3231 129.461C69.5471 129.42 69.2004 128.54 69.0555 127.767C68.7296 126.051 68.4416 124.326 68.1915 122.593C67.9716 121.09 67.7828 119.545 68.1268 118.068C68.4424 116.697 69.1978 115.481 69.8316 114.224C71.8313 110.266 72.6773 105.827 74.3924 101.734C75.2073 99.7836 76.2033 97.921 77.1708 96.0428C81.0768 88.3336 84.1194 80.2166 86.2432 71.8394C83.9848 67.7856 81.9385 63.5611 79.6801 59.51C79.0256 58.3355 78.353 57.1403 77.3519 56.2323C75.9187 54.9182 73.9759 54.3464 72.1056 53.8161C70.4991 53.3582 68.8693 52.8978 67.1904 52.8952C65.5114 52.8926 60.7877 51.1386 59.6546 52.3623C58.4853 53.6247 61.1162 57.7017 61.0567 59.4194C60.9972 61.1372 61.1861 62.8756 60.9015 64.5726C60.4876 67.0484 59.0906 69.255 58.4568 71.6816C58.2061 72.8301 58.0136 73.9905 57.8799 75.1584C57.4575 77.7702 56.7737 80.3329 55.8388 82.808C55.6683 83.3292 55.4159 83.8199 55.0912 84.2619C53.865 85.7623 51.8937 85.1932 49.9898 84.875Z" fill="#192534"/>
<path d="M66.4298 18.9131C63.8429 21.5621 59.6883 21.6733 55.9838 21.6087L56.1054 20.1574L50.8952 22.0252C52.2459 21.0214 53.4044 19.7822 54.3152 18.3672C53.64 17.7748 52.5819 17.7929 51.78 18.2017C50.978 18.6104 50.3882 19.3321 49.8837 20.0772C48.4059 22.2908 47.4651 24.8188 47.1363 27.46C46.8076 30.1012 47.0999 32.7827 47.9901 35.291C46.9553 35.8653 45.636 35.6972 44.6426 35.0711C43.6492 34.4451 42.9559 33.4258 42.4851 32.3497C42.1772 31.646 41.8565 30.813 41.1218 30.5931C40.5061 30.4095 39.8283 30.7846 39.4868 31.3304C39.1804 31.9002 39.0567 32.5505 39.1324 33.193C39.2281 34.6986 40.3276 36.1266 40.5475 37.6167C40.7674 39.1068 42.9921 40.2657 41.8409 41.2384C41.5098 41.5204 38.1131 42.2887 37.6837 42.2214C37.1016 42.1309 36.7162 41.5695 36.473 41.034C35.3141 38.4885 35.7306 35.5135 35.045 32.8024C34.494 30.6216 33.2523 28.6865 32.0287 26.7981C31.7 26.2478 31.3123 25.7352 30.8723 25.2692C30.4661 24.8708 29.9643 24.5267 29.7677 23.9938C29.571 23.4609 29.9332 22.7004 30.4946 22.7857C29.5885 21.9096 28.6136 21.1077 27.5791 20.3876C28.6035 19.0907 29.6055 17.7774 30.5851 16.4477C30.9214 15.9924 31.2707 15.4129 31.0249 14.8955C30.8814 14.6585 30.6791 14.4625 30.4377 14.3264L27.7628 12.5155C27.7033 11.2868 30.2049 11.7395 30.5903 10.5779C30.6582 10.2692 30.6348 9.94746 30.523 9.6518L29.6124 6.33016L33.0712 7.89786C33.4903 8.08929 33.9378 8.28331 34.3957 8.21605C35.3089 8.08412 35.7487 7.00277 35.7952 6.07923C35.8418 5.15569 35.6944 4.16231 36.1522 3.35777C37.7182 3.29568 39.2833 3.30689 40.8475 3.39139C40.9463 2.6042 40.7378 1.80924 40.2655 1.1718L51.824 0.530233C53.7978 0.421582 55.826 0.320694 57.7015 0.941561C58.3379 1.15369 58.9794 1.45895 59.6469 1.38393C60.3143 1.3089 60.9869 0.693213 60.7955 0.051651C62.5278 1.02969 64.1122 2.24914 65.5011 3.67337C65.876 4.11989 66.3293 4.49423 66.8386 4.778C67.356 5.02117 68.0648 5.01082 68.458 4.58139C68.7736 4.23733 68.9314 3.63716 69.3971 3.61646C69.6868 3.61646 69.9145 3.84411 70.0981 4.07435C70.7589 4.91982 71.2971 5.85429 71.6969 6.85014C72.5262 6.73835 73.3387 6.5246 74.1157 6.21375C73.3085 6.89412 73.2878 8.16172 73.6733 9.14476C74.0587 10.1278 74.7572 10.9556 75.2255 11.8973C75.6914 12.9086 76.0044 13.9836 76.1542 15.087C76.3896 16.4684 76.3922 18.2094 75.166 18.8872C74.1001 19.477 72.7782 18.8484 71.8029 18.1111C69.1177 16.0985 68.6055 16.6883 66.4298 18.9131Z" fill="#592A0A"/>
<path d="M79.957 141.136L97.882 139.519C98.6025 139.454 99.2698 139.113 99.7436 138.566C100.217 138.02 100.461 137.31 100.422 136.588L100.409 136.329C100.38 135.754 100.173 135.202 99.8171 134.749C99.4614 134.296 98.9743 133.965 98.4226 133.799L95.5253 132.93C95.2643 132.852 94.9932 132.812 94.7207 132.811H88.1473C87.9676 132.812 87.7883 132.829 87.6118 132.863C86.2226 133.134 79.8303 134.392 79.5923 134.622C79.4655 134.751 78.7049 135.32 77.9702 135.864C77.5306 136.188 77.196 136.635 77.0079 137.148C76.8198 137.662 76.7865 138.219 76.9122 138.751L76.9665 138.989C77.1201 139.648 77.508 140.23 78.0581 140.625C78.6082 141.019 79.283 141.201 79.957 141.136Z" fill="#464A5F"/>
<path d="M71.2029 135.533L78.4463 133.463L91.8984 131.652C91.8984 131.652 100.435 129.324 101.211 136.567L100.487 137.794C100.487 137.794 101.211 133.204 92.4158 134.498C92.4158 134.498 76.6018 133.967 77.2667 140.189C77.2667 140.184 71.7203 139.154 71.2029 135.533Z" fill="#FFF654"/>
<path d="M81.0333 131.137C82.0334 131.137 82.8441 131.022 82.8441 130.879C82.8441 130.736 82.0334 130.62 81.0333 130.62C80.0332 130.62 79.2224 130.736 79.2224 130.879C79.2224 131.022 80.0332 131.137 81.0333 131.137Z" fill="#FFF654"/>
<path d="M97.2017 131.008H95.9082V133.336H97.2017V131.008Z" fill="#FFF654"/>
<path d="M81.6799 131.008H80.3865V133.336H81.6799V131.008Z" fill="#FFF654"/>
<path d="M98.2235 131.219C98.3513 130.885 97.5896 130.284 96.5223 129.875C95.4549 129.466 94.4861 129.405 94.3583 129.738C94.2305 130.072 94.9922 130.674 96.0596 131.083C97.1269 131.492 98.0958 131.553 98.2235 131.219Z" fill="#FFF654"/>
<path d="M23.0932 135.152C23.6468 135.729 24.2108 136.316 24.9222 136.679C25.6261 136.991 26.3754 137.189 27.1418 137.266C34.9785 138.473 42.7876 139.823 50.5692 141.317C52.7603 141.741 54.967 142.181 57.0365 143.032C58.092 143.469 59.1061 144.013 60.1409 144.47C66.0908 147.081 72.8169 146.913 79.3076 146.695C80.5777 146.654 81.8945 146.602 83.0405 146.072C83.8968 145.681 84.6806 144.939 84.7582 144.002C84.8928 142.375 83.0431 141.415 81.566 140.714C78.0399 139.051 74.9667 136.345 73.1092 132.915C72.7781 132.309 72.5091 131.494 72.9747 130.982C73.3239 130.599 73.9164 130.597 74.4363 130.617C76.6094 130.702 78.7824 130.679 80.9554 130.55C82.0808 130.48 83.5708 129.947 83.3923 128.838C83.3147 128.362 82.9215 128.007 82.549 127.697C80.5907 126.051 78.3685 124.357 75.81 124.406C74.4674 124.432 73.1868 124.944 71.9296 125.376C65.157 127.673 57.8644 127.8 50.7166 127.754C48.9679 127.754 47.2061 127.72 45.4936 127.363C44.087 127.03 42.709 126.587 41.3726 126.036C37.0369 124.383 32.683 122.719 28.6681 120.399C27.072 119.478 25.2921 118.412 23.5123 118.886C22.7138 119.145 21.9872 119.588 21.391 120.179C19.2723 122.093 17.4847 124.437 18.0875 127.376C18.7006 130.465 20.9875 132.953 23.0932 135.152Z" fill="#FBBEBE"/>
<path d="M21.9397 85.1932C22.6071 87.3533 22.9977 89.6402 24.1463 91.5881C25.3648 93.6577 27.3929 95.2616 28.0966 97.5562C28.5933 99.1808 28.3553 100.919 28.3553 102.624C28.3553 104.556 28.7201 106.548 29.7885 108.158C30.3265 108.97 31.0276 109.658 31.6407 110.416C34.3596 113.779 35.1978 118.27 35.5367 122.575C32.9497 121.11 29.923 119.6 27.1213 120.606C25.9882 121.015 25.0311 121.801 24.1412 122.616C22.4142 124.193 20.8356 125.925 19.4252 127.79C18.6853 128.765 17.9584 129.958 18.2791 131.137C16.7477 128.913 15.1955 126.672 14.0055 124.225C13.1622 122.476 12.5077 120.629 11.4962 118.968C10.2234 116.881 8.43064 115.166 6.92245 113.241C3.53355 108.915 1.63215 103.561 0.70861 98.1564C-0.21493 92.7522 -0.25373 87.2162 -0.225274 81.7215C-0.225274 79.9107 -0.186476 78.0274 0.576673 76.3795C1.02939 75.399 1.7201 74.5505 2.40565 73.7149C3.27486 72.6517 4.16995 71.5678 5.35218 70.8693C9.1136 68.6549 13.1492 72.3257 15.6637 74.8377C18.5638 77.73 20.7176 81.2839 21.9397 85.1932Z" fill="#192534"/>
<path d="M86.7839 72.7758C87.1325 73.0937 87.414 73.478 87.6118 73.9063C87.8084 74.4237 87.7566 74.9928 87.7152 75.5439C87.4701 78.8248 87.7028 82.124 88.406 85.338C88.8276 87.2808 89.3605 89.5289 88.1214 91.0836C87.9299 91.2879 87.7568 91.5087 87.604 91.7433C87.0297 92.8195 88.0904 93.9914 88.8975 94.9149C91.3499 97.7605 91.7431 102.213 89.8417 105.459C89.4821 106.078 89.0423 106.662 88.8406 107.345C88.7042 107.907 88.6502 108.486 88.6802 109.063L88.6905 113.391C85.9716 113.026 82.932 112.742 80.746 114.4C78.9015 115.797 78.172 118.228 76.6069 119.92C75.0884 121.55 72.7265 122.6 72.1341 124.748L72.1651 115.804C72.2037 114.616 72.1397 113.427 71.9737 112.25C71.6632 110.4 70.8587 108.67 70.3879 106.854C69.7722 104.479 69.7334 101.998 69.6972 99.5429C69.6377 95.4892 69.5807 91.3915 70.4215 87.4257C70.7656 85.8114 71.2545 84.2308 71.6322 82.6243C72.3177 79.7269 72.667 76.7106 73.8699 73.9891C75.0728 71.2676 77.4347 68.7997 80.3994 68.5074C83.5218 68.1943 84.8463 70.7502 86.7839 72.7758Z" fill="#192534"/>
<path d="M92.9313 132.73C93.7974 132.23 93.7467 130.521 92.818 128.912C91.8893 127.304 90.4344 126.405 89.5683 126.905C88.7021 127.405 88.7528 129.115 89.6815 130.723C90.6102 132.332 92.0652 133.23 92.9313 132.73Z" fill="#FBBEBE"/>
</g>
<defs>
<clipPath id="clip0_106_68924">
<rect width="118" height="148.078" fill="white" transform="translate(-10)"/>
</clipPath>
</defs>
</svg>
