<svg width="54" height="12" viewBox="0 0 54 12" fill="none" xmlns="http://www.w3.org/2000/svg">
<path d="M0.975077 2.60378V5.75161C0.975077 6.19416 1.08215 6.5225 1.29628 6.73664C1.51518 6.95078 1.81735 7.05785 2.2028 7.05785C2.58349 7.05785 2.8809 6.95078 3.09504 6.73664C3.31394 6.5225 3.42339 6.19416 3.42339 5.75161V2.60378H4.07294V5.74447C4.07294 6.15847 3.98966 6.50823 3.82311 6.79375C3.65656 7.0745 3.43053 7.28388 3.14501 7.42188C2.86425 7.55988 2.5478 7.62888 2.19566 7.62888C1.84353 7.62888 1.5247 7.55988 1.23918 7.42188C0.958422 7.28388 0.734767 7.0745 0.568215 6.79375C0.406422 6.50823 0.325525 6.15847 0.325525 5.74447V2.60378H0.975077ZM5.41003 4.38826C5.53851 4.16461 5.72885 3.97902 5.98106 3.8315C6.23803 3.67923 6.53544 3.60309 6.8733 3.60309C7.22068 3.60309 7.53475 3.68637 7.81551 3.85292C8.10103 4.01947 8.32468 4.25502 8.48647 4.55957C8.64827 4.85937 8.72916 5.20913 8.72916 5.60885C8.72916 6.00381 8.64827 6.35595 8.48647 6.66526C8.32468 6.97457 8.10103 7.21488 7.81551 7.38619C7.53475 7.5575 7.22068 7.64316 6.8733 7.64316C6.5402 7.64316 6.24516 7.5694 5.9882 7.42188C5.73599 7.26961 5.54327 7.08164 5.41003 6.85799V9.43478H4.76047V3.66733H5.41003V4.38826ZM8.06534 5.60885C8.06534 5.31381 8.00585 5.05685 7.88689 4.83795C7.76792 4.61906 7.60613 4.4525 7.40151 4.3383C7.20165 4.22409 6.98037 4.16699 6.73768 4.16699C6.49975 4.16699 6.27847 4.22647 6.07385 4.34544C5.87399 4.45964 5.7122 4.62857 5.58847 4.85223C5.46951 5.07113 5.41003 5.32571 5.41003 5.61599C5.41003 5.91102 5.46951 6.17037 5.58847 6.39402C5.7122 6.61292 5.87399 6.78185 6.07385 6.90081C6.27847 7.01502 6.49975 7.07213 6.73768 7.07213C6.98037 7.07213 7.20165 7.01502 7.40151 6.90081C7.60613 6.78185 7.76792 6.61292 7.88689 6.39402C8.00585 6.17037 8.06534 5.90864 8.06534 5.60885ZM11.4874 4.20268V6.50823C11.4874 6.69857 11.5278 6.83419 11.6087 6.91509C11.6896 6.99123 11.83 7.0293 12.0299 7.0293H12.5081V7.57892H11.9228C11.5611 7.57892 11.2899 7.49564 11.1091 7.32909C10.9282 7.16254 10.8378 6.88892 10.8378 6.50823V4.20268H10.331V3.66733H10.8378V2.6823H11.4874V3.66733H12.5081V4.20268H11.4874ZM14.605 7.64316C14.2386 7.64316 13.9055 7.55988 13.6057 7.39333C13.3107 7.22678 13.0775 6.99123 12.9062 6.68668C12.7397 6.37737 12.6564 6.02047 12.6564 5.61599C12.6564 5.21626 12.742 4.86413 12.9134 4.55957C13.0894 4.25026 13.3274 4.01471 13.6271 3.85292C13.9269 3.68637 14.2624 3.60309 14.6336 3.60309C15.0048 3.60309 15.3403 3.68637 15.64 3.85292C15.9398 4.01471 16.1754 4.24788 16.3467 4.55244C16.5228 4.85699 16.6108 5.2115 16.6108 5.61599C16.6108 6.02047 16.5204 6.37737 16.3396 6.68668C16.1635 6.99123 15.9232 7.22678 15.6186 7.39333C15.3141 7.55988 14.9762 7.64316 14.605 7.64316ZM14.605 7.07213C14.8382 7.07213 15.0571 7.0174 15.2617 6.90795C15.4664 6.7985 15.6305 6.63433 15.7543 6.41544C15.8827 6.19654 15.947 5.93006 15.947 5.61599C15.947 5.30192 15.8851 5.03544 15.7614 4.81654C15.6377 4.59764 15.4759 4.43585 15.276 4.33116C15.0761 4.22171 14.8596 4.16699 14.6265 4.16699C14.3885 4.16699 14.1696 4.22171 13.9698 4.33116C13.7747 4.43585 13.6176 4.59764 13.4987 4.81654C13.3797 5.03544 13.3202 5.30192 13.3202 5.61599C13.3202 5.93481 13.3773 6.20368 13.4915 6.42257C13.6105 6.64147 13.7675 6.80564 13.9626 6.91509C14.1577 7.01978 14.3719 7.07213 14.605 7.07213ZM20.9628 9.29827C21.8866 8.52843 22.6227 7.8885 23.1712 7.37848C23.7197 6.85884 24.1768 6.31996 24.5425 5.76182C24.9082 5.20369 25.091 4.65518 25.091 4.11629C25.091 3.62552 24.9755 3.2406 24.7446 2.96153C24.5136 2.68247 24.1576 2.54293 23.6764 2.54293C23.1953 2.54293 22.8248 2.70652 22.565 3.03371C22.3052 3.35126 22.1704 3.78911 22.1608 4.34724H20.1977C20.2362 3.19248 20.5778 2.31679 21.2226 1.72017C21.8769 1.12354 22.7045 0.825229 23.7053 0.825229C24.8023 0.825229 25.6443 1.11873 26.2313 1.70573C26.8184 2.28311 27.1119 3.04814 27.1119 4.00082C27.1119 4.75141 26.9098 5.46832 26.5056 6.15155C26.1014 6.83479 25.6395 7.43141 25.1199 7.94143C24.6003 8.44182 23.9218 9.04807 23.0846 9.76017H27.3428V11.4346H20.2122V9.93339L20.9628 9.29827ZM28.2202 6.18042C28.2202 4.51564 28.5185 3.21173 29.1151 2.26868C29.7213 1.32562 30.7221 0.854098 32.1175 0.854098C33.5128 0.854098 34.5088 1.32562 35.1054 2.26868C35.7117 3.21173 36.0148 4.51564 36.0148 6.18042C36.0148 7.85482 35.7117 9.16836 35.1054 10.121C34.5088 11.0737 33.5128 11.55 32.1175 11.55C30.7221 11.55 29.7213 11.0737 29.1151 10.121C28.5185 9.16836 28.2202 7.85482 28.2202 6.18042ZM34.0228 6.18042C34.0228 5.46832 33.9747 4.8717 33.8785 4.39055C33.7919 3.89977 33.609 3.50042 33.33 3.19248C33.0605 2.88455 32.6564 2.73058 32.1175 2.73058C31.5786 2.73058 31.1696 2.88455 30.8905 3.19248C30.6211 3.50042 30.4383 3.89977 30.342 4.39055C30.2554 4.8717 30.2121 5.46832 30.2121 6.18042C30.2121 6.91177 30.2554 7.52764 30.342 8.02804C30.4286 8.51881 30.6115 8.91816 30.8905 9.2261C31.1696 9.52441 31.5786 9.67357 32.1175 9.67357C32.6564 9.67357 33.0653 9.52441 33.3444 9.2261C33.6235 8.91816 33.8063 8.51881 33.8929 8.02804C33.9795 7.52764 34.0228 6.91177 34.0228 6.18042ZM37.1558 6.18042C37.1558 4.51564 37.4541 3.21173 38.0507 2.26868C38.657 1.32562 39.6578 0.854098 41.0531 0.854098C42.4484 0.854098 43.4444 1.32562 44.041 2.26868C44.6473 3.21173 44.9504 4.51564 44.9504 6.18042C44.9504 7.85482 44.6473 9.16836 44.041 10.121C43.4444 11.0737 42.4484 11.55 41.0531 11.55C39.6578 11.55 38.657 11.0737 38.0507 10.121C37.4541 9.16836 37.1558 7.85482 37.1558 6.18042ZM42.9585 6.18042C42.9585 5.46832 42.9103 4.8717 42.8141 4.39055C42.7275 3.89977 42.5447 3.50042 42.2656 3.19248C41.9962 2.88455 41.592 2.73058 41.0531 2.73058C40.5142 2.73058 40.1052 2.88455 39.8262 3.19248C39.5567 3.50042 39.3739 3.89977 39.2777 4.39055C39.1911 4.8717 39.1477 5.46832 39.1477 6.18042C39.1477 6.91177 39.1911 7.52764 39.2777 8.02804C39.3643 8.51881 39.5471 8.91816 39.8262 9.2261C40.1052 9.52441 40.5142 9.67357 41.0531 9.67357C41.592 9.67357 42.001 9.52441 42.28 9.2261C42.5591 8.91816 42.7419 8.51881 42.8285 8.02804C42.9151 7.52764 42.9585 6.91177 42.9585 6.18042ZM46.0914 6.18042C46.0914 4.51564 46.3897 3.21173 46.9864 2.26868C47.5926 1.32562 48.5934 0.854098 49.9887 0.854098C51.3841 0.854098 52.38 1.32562 52.9767 2.26868C53.5829 3.21173 53.886 4.51564 53.886 6.18042C53.886 7.85482 53.5829 9.16836 52.9767 10.121C52.38 11.0737 51.3841 11.55 49.9887 11.55C48.5934 11.55 47.5926 11.0737 46.9864 10.121C46.3897 9.16836 46.0914 7.85482 46.0914 6.18042ZM51.8941 6.18042C51.8941 5.46832 51.846 4.8717 51.7497 4.39055C51.6631 3.89977 51.4803 3.50042 51.2012 3.19248C50.9318 2.88455 50.5276 2.73058 49.9887 2.73058C49.4498 2.73058 49.0409 2.88455 48.7618 3.19248C48.4924 3.50042 48.3095 3.89977 48.2133 4.39055C48.1267 4.8717 48.0834 5.46832 48.0834 6.18042C48.0834 6.91177 48.1267 7.52764 48.2133 8.02804C48.2999 8.51881 48.4827 8.91816 48.7618 9.2261C49.0409 9.52441 49.4498 9.67357 49.9887 9.67357C50.5276 9.67357 50.9366 9.52441 51.2157 9.2261C51.4947 8.91816 51.6776 8.51881 51.7642 8.02804C51.8508 7.52764 51.8941 6.91177 51.8941 6.18042Z" fill="white"/>
</svg>
